{
	"asset":{
		"generator":"Khronos glTF Blender I/O v4.5.47",
		"version":"2.0"
	},
	"scene":0,
	"scenes":[
		{
			"name":"Scene",
			"nodes":[
				0
			]
		}
	],
	"nodes":[
		{
			"mesh":0,
			"name":"path.002",
			"rotation":[
				0,
				0.07513541728258133,
				0,
				0.9971734285354614
			],
			"scale":[
				0.5097723603248596,
				1,
				1
			],
			"translation":[
				-12.513198852539062,
				0.6231376528739929,
				-22.05657196044922
			]
		}
	],
	"materials":[
		{
			"name":"Material_16.001"
		}
	],
	"meshes":[
		{
			"name":"Mesh_32.002",
			"primitives":[
				{
					"attributes":{
						"POSITION":0,
						"NORMAL":1,
						"TEXCOORD_0":2
					},
					"indices":3,
					"material":0
				}
			]
		}
	],
	"accessors":[
		{
			"bufferView":0,
			"componentType":5126,
			"count":39,
			"max":[
				38.24329376220703,
				3.533550500869751,
				18.773117065429688
			],
			"min":[
				-92.62288665771484,
				-1.6308695077896118,
				-35.03282928466797
			],
			"type":"VEC3"
		},
		{
			"bufferView":1,
			"componentType":5126,
			"count":39,
			"type":"VEC3"
		},
		{
			"bufferView":2,
			"componentType":5126,
			"count":39,
			"type":"VEC2"
		},
		{
			"bufferView":3,
			"componentType":5123,
			"count":96,
			"type":"SCALAR"
		}
	],
	"bufferViews":[
		{
			"buffer":0,
			"byteLength":468,
			"byteOffset":0,
			"target":34962
		},
		{
			"buffer":0,
			"byteLength":468,
			"byteOffset":468,
			"target":34962
		},
		{
			"buffer":0,
			"byteLength":312,
			"byteOffset":936,
			"target":34962
		},
		{
			"buffer":0,
			"byteLength":192,
			"byteOffset":1248,
			"target":34963
		}
	],
	"buffers":[
		{
			"byteLength":1440,
			"uri":"earth_path_baked.bin"
		}
	]
}
