{
	"asset":{
		"generator":"Khronos glTF Blender I/O v4.5.47",
		"version":"2.0"
	},
	"scene":0,
	"scenes":[
		{
			"name":"Scene",
			"nodes":[
				0
			]
		}
	],
	"nodes":[
		{
			"mesh":0,
			"name":"landscape_plot",
			"rotation":[
				0,
				0.4700547158718109,
				0,
				0.8826372623443604
			],
			"scale":[
				1,
				1,
				0.17096196115016937
			],
			"translation":[
				-30.869747161865234,
				2.628390073776245,
				-17.93393898010254
			]
		}
	],
	"meshes":[
		{
			"name":"Plane",
			"primitives":[
				{
					"attributes":{
						"POSITION":0,
						"NORMAL":1,
						"TEXCOORD_0":2
					},
					"indices":3
				}
			]
		}
	],
	"accessors":[
		{
			"bufferView":0,
			"componentType":5126,
			"count":4526,
			"max":[
				22.064180374145508,
				1.5230352878570557,
				227.81546020507812
			],
			"min":[
				-13.059910774230957,
				-1.4944406747817993,
				-235.37548828125
			],
			"type":"VEC3"
		},
		{
			"bufferView":1,
			"componentType":5126,
			"count":4526,
			"type":"VEC3"
		},
		{
			"bufferView":2,
			"componentType":5126,
			"count":4526,
			"type":"VEC2"
		},
		{
			"bufferView":3,
			"componentType":5123,
			"count":8664,
			"type":"SCALAR"
		}
	],
	"bufferViews":[
		{
			"buffer":0,
			"byteLength":54312,
			"byteOffset":0,
			"target":34962
		},
		{
			"buffer":0,
			"byteLength":54312,
			"byteOffset":54312,
			"target":34962
		},
		{
			"buffer":0,
			"byteLength":36208,
			"byteOffset":108624,
			"target":34962
		},
		{
			"buffer":0,
			"byteLength":17328,
			"byteOffset":144832,
			"target":34963
		}
	],
	"buffers":[
		{
			"byteLength":162160,
			"uri":"islands_plot.bin"
		}
	]
}
