{
	"asset":{
		"generator":"Khronos glTF Blender I/O v4.5.47",
		"version":"2.0"
	},
	"scene":0,
	"scenes":[
		{
			"name":"Scene",
			"nodes":[
				0
			]
		}
	],
	"nodes":[
		{
			"mesh":0,
			"name":"landscape_surface.001",
			"rotation":[
				0,
				0.30856072902679443,
				0,
				0.9512046575546265
			],
			"scale":[
				0.8398001790046692,
				0.6499999761581421,
				1.4479237794876099
			],
			"translation":[
				-31.265485763549805,
				1.6612577438354492,
				-23.000381469726562
			]
		}
	],
	"materials":[
		{
			"doubleSided":true,
			"name":"Material.001",
			"pbrMetallicRoughness":{
				"baseColorFactor":[
					0.14217382669448853,
					0.8003232479095459,
					0,
					1
				],
				"metallicFactor":0,
				"roughnessFactor":0.5
			}
		}
	],
	"meshes":[
		{
			"name":"Mesh_20.004",
			"primitives":[
				{
					"attributes":{
						"POSITION":0,
						"NORMAL":1,
						"TEXCOORD_0":2
					},
					"indices":3,
					"material":0
				}
			]
		}
	],
	"accessors":[
		{
			"bufferView":0,
			"componentType":5126,
			"count":223,
			"max":[
				36.72499084472656,
				3.8210790157318115,
				32.25273895263672
			],
			"min":[
				-63.398963928222656,
				-4.1276750564575195,
				-70.89683532714844
			],
			"type":"VEC3"
		},
		{
			"bufferView":1,
			"componentType":5126,
			"count":223,
			"type":"VEC3"
		},
		{
			"bufferView":2,
			"componentType":5126,
			"count":223,
			"type":"VEC2"
		},
		{
			"bufferView":3,
			"componentType":5123,
			"count":621,
			"type":"SCALAR"
		}
	],
	"bufferViews":[
		{
			"buffer":0,
			"byteLength":2676,
			"byteOffset":0,
			"target":34962
		},
		{
			"buffer":0,
			"byteLength":2676,
			"byteOffset":2676,
			"target":34962
		},
		{
			"buffer":0,
			"byteLength":1784,
			"byteOffset":5352,
			"target":34962
		},
		{
			"buffer":0,
			"byteLength":1242,
			"byteOffset":7136,
			"target":34963
		}
	],
	"buffers":[
		{
			"byteLength":8380,
			"uri":"islands_surface.bin"
		}
	]
}
