{
	"asset":{
		"generator":"Khronos glTF Blender I/O v4.5.47",
		"version":"2.0"
	},
	"scene":0,
	"scenes":[
		{
			"name":"Scene",
			"nodes":[
				0,
				1,
				2
			]
		}
	],
	"nodes":[
		{
			"mesh":0,
			"name":"Landscape_01",
			"rotation":[
				0,
				0.30856072902679443,
				0,
				0.9512046575546265
			],
			"scale":[
				0.8398001790046692,
				0.6499999761581421,
				1.4479237794876099
			],
			"translation":[
				-28.02506446838379,
				-1.9643378257751465,
				-33.1387825012207
			]
		},
		{
			"mesh":1,
			"name":"Landscape_02",
			"rotation":[
				0,
				0.30856072902679443,
				0,
				0.9512046575546265
			],
			"scale":[
				0.8398001790046692,
				0.6499999761581421,
				1.4479237794876099
			],
			"translation":[
				-41.73197555541992,
				1.723926305770874,
				-31.916833877563477
			]
		},
		{
			"mesh":2,
			"name":"Landscape_03",
			"rotation":[
				0,
				0.30856072902679443,
				0,
				0.9512046575546265
			],
			"scale":[
				0.8398001790046692,
				0.6499999761581421,
				1.4479237794876099
			],
			"translation":[
				-49.78050994873047,
				-0.3276311159133911,
				-31.660186767578125
			]
		}
	],
	"materials":[
		{
			"name":"Material_7",
			"pbrMetallicRoughness":{
				"baseColorTexture":{
					"index":0
				},
				"metallicFactor":0
			}
		},
		{
			"doubleSided":true,
			"name":"Material",
			"pbrMetallicRoughness":{
				"baseColorTexture":{
					"index":1
				},
				"metallicFactor":0,
				"roughnessFactor":0.5
			}
		},
		{
			"name":"Material_8",
			"pbrMetallicRoughness":{
				"baseColorTexture":{
					"index":2
				},
				"metallicFactor":0
			}
		}
	],
	"meshes":[
		{
			"name":"Mesh_20.067",
			"primitives":[
				{
					"attributes":{
						"POSITION":0,
						"NORMAL":1,
						"TEXCOORD_0":2
					},
					"indices":3,
					"material":0
				}
			]
		},
		{
			"name":"Mesh_20.342",
			"primitives":[
				{
					"attributes":{
						"POSITION":4,
						"NORMAL":5,
						"TEXCOORD_0":6
					},
					"indices":7,
					"material":1
				}
			]
		},
		{
			"name":"Mesh_20.587",
			"primitives":[
				{
					"attributes":{
						"POSITION":8,
						"NORMAL":9,
						"TEXCOORD_0":10
					},
					"indices":11,
					"material":2
				}
			]
		}
	],
	"textures":[
		{
			"sampler":0,
			"source":0
		},
		{
			"sampler":0,
			"source":1
		},
		{
			"sampler":0,
			"source":2
		}
	],
	"images":[
		{
			"mimeType":"image/png",
			"name":"ground_albedo_04",
			"uri":"ground_albedo_04.png"
		},
		{
			"mimeType":"image/png",
			"name":"ground_albedo_02",
			"uri":"ground_albedo_02.png"
		},
		{
			"mimeType":"image/png",
			"name":"ground_albedo_03",
			"uri":"ground_albedo_03.png"
		}
	],
	"accessors":[
		{
			"bufferView":0,
			"componentType":5126,
			"count":764,
			"max":[
				47.963233947753906,
				10.068604469299316,
				48.10895538330078
			],
			"min":[
				-109.636474609375,
				-1.3165087699890137,
				-47.67697525024414
			],
			"type":"VEC3"
		},
		{
			"bufferView":1,
			"componentType":5126,
			"count":764,
			"type":"VEC3"
		},
		{
			"bufferView":2,
			"componentType":5126,
			"count":764,
			"type":"VEC2"
		},
		{
			"bufferView":3,
			"componentType":5123,
			"count":1506,
			"type":"SCALAR"
		},
		{
			"bufferView":4,
			"componentType":5126,
			"count":1496,
			"max":[
				40.58238220214844,
				3.724665880203247,
				41.481475830078125
			],
			"min":[
				-62.2734375,
				-4.750693321228027,
				-61.807899475097656
			],
			"type":"VEC3"
		},
		{
			"bufferView":5,
			"componentType":5126,
			"count":1496,
			"type":"VEC3"
		},
		{
			"bufferView":6,
			"componentType":5126,
			"count":1496,
			"type":"VEC2"
		},
		{
			"bufferView":7,
			"componentType":5123,
			"count":3234,
			"type":"SCALAR"
		},
		{
			"bufferView":8,
			"componentType":5126,
			"count":736,
			"max":[
				34.45262908935547,
				6.473094463348389,
				42.84004592895508
			],
			"min":[
				-54.33512878417969,
				-3.464291572570801,
				-58.688411712646484
			],
			"type":"VEC3"
		},
		{
			"bufferView":9,
			"componentType":5126,
			"count":736,
			"type":"VEC3"
		},
		{
			"bufferView":10,
			"componentType":5126,
			"count":736,
			"type":"VEC2"
		},
		{
			"bufferView":11,
			"componentType":5123,
			"count":1374,
			"type":"SCALAR"
		}
	],
	"bufferViews":[
		{
			"buffer":0,
			"byteLength":9168,
			"byteOffset":0,
			"target":34962
		},
		{
			"buffer":0,
			"byteLength":9168,
			"byteOffset":9168,
			"target":34962
		},
		{
			"buffer":0,
			"byteLength":6112,
			"byteOffset":18336,
			"target":34962
		},
		{
			"buffer":0,
			"byteLength":3012,
			"byteOffset":24448,
			"target":34963
		},
		{
			"buffer":0,
			"byteLength":17952,
			"byteOffset":27460,
			"target":34962
		},
		{
			"buffer":0,
			"byteLength":17952,
			"byteOffset":45412,
			"target":34962
		},
		{
			"buffer":0,
			"byteLength":11968,
			"byteOffset":63364,
			"target":34962
		},
		{
			"buffer":0,
			"byteLength":6468,
			"byteOffset":75332,
			"target":34963
		},
		{
			"buffer":0,
			"byteLength":8832,
			"byteOffset":81800,
			"target":34962
		},
		{
			"buffer":0,
			"byteLength":8832,
			"byteOffset":90632,
			"target":34962
		},
		{
			"buffer":0,
			"byteLength":5888,
			"byteOffset":99464,
			"target":34962
		},
		{
			"buffer":0,
			"byteLength":2748,
			"byteOffset":105352,
			"target":34963
		}
	],
	"samplers":[
		{
			"magFilter":9729,
			"minFilter":9987
		}
	],
	"buffers":[
		{
			"byteLength":108100,
			"uri":"island_circles_baked.bin"
		}
	]
}
