{
	"asset":{
		"generator":"Khronos glTF Blender I/O v4.5.47",
		"version":"2.0"
	},
	"scene":0,
	"scenes":[
		{
			"name":"Scene",
			"nodes":[
				0
			]
		}
	],
	"nodes":[
		{
			"mesh":0,
			"name":"Landscape"
		}
	],
	"meshes":[
		{
			"name":"Landscape",
			"primitives":[
				{
					"attributes":{
						"POSITION":0,
						"NORMAL":1,
						"TEXCOORD_0":2
					},
					"indices":3
				}
			]
		}
	],
	"accessors":[
		{
			"bufferView":0,
			"componentType":5126,
			"count":2967,
			"max":[
				1.0000007152557373,
				2.2150771617889404,
				1.0000014305114746
			],
			"min":[
				-1,
				-0.0006353743374347687,
				-1.0000014305114746
			],
			"type":"VEC3"
		},
		{
			"bufferView":1,
			"componentType":5126,
			"count":2967,
			"type":"VEC3"
		},
		{
			"bufferView":2,
			"componentType":5126,
			"count":2967,
			"type":"VEC2"
		},
		{
			"bufferView":3,
			"componentType":5123,
			"count":2997,
			"type":"SCALAR"
		}
	],
	"bufferViews":[
		{
			"buffer":0,
			"byteLength":35604,
			"byteOffset":0,
			"target":34962
		},
		{
			"buffer":0,
			"byteLength":35604,
			"byteOffset":35604,
			"target":34962
		},
		{
			"buffer":0,
			"byteLength":23736,
			"byteOffset":71208,
			"target":34962
		},
		{
			"buffer":0,
			"byteLength":5994,
			"byteOffset":94944,
			"target":34963
		}
	],
	"buffers":[
		{
			"byteLength":100940,
			"uri":"mountain_landscape.bin"
		}
	]
}
