{
	"asset":{
		"generator":"Khronos glTF Blender I/O v4.5.47",
		"version":"2.0"
	},
	"scene":0,
	"scenes":[
		{
			"name":"Scene",
			"nodes":[
				0
			]
		}
	],
	"nodes":[
		{
			"mesh":0,
			"name":"mountain_landscape_mmi3d_022",
			"scale":[
				308.4140319824219,
				86.49003601074219,
				308.4140319824219
			],
			"translation":[
				593.5248413085938,
				9.599738121032715,
				364.4979248046875
			]
		}
	],
	"materials":[
		{
			"name":"Material_10",
			"pbrMetallicRoughness":{
				"baseColorFactor":[
					1,
					0,
					0.006669003516435623,
					1
				],
				"metallicFactor":0
			}
		}
	],
	"meshes":[
		{
			"name":"Mesh_36",
			"primitives":[
				{
					"attributes":{
						"POSITION":0,
						"NORMAL":1,
						"TEXCOORD_0":2
					},
					"indices":3,
					"material":0
				}
			]
		}
	],
	"accessors":[
		{
			"bufferView":0,
			"componentType":5126,
			"count":23468,
			"max":[
				3.4517807960510254,
				1.5274314880371094,
				2.543778896331787
			],
			"min":[
				-2.2183854579925537,
				-0.6882810592651367,
				-1.4723113775253296
			],
			"type":"VEC3"
		},
		{
			"bufferView":1,
			"componentType":5126,
			"count":23468,
			"type":"VEC3"
		},
		{
			"bufferView":2,
			"componentType":5126,
			"count":23468,
			"type":"VEC2"
		},
		{
			"bufferView":3,
			"componentType":5123,
			"count":23976,
			"type":"SCALAR"
		}
	],
	"bufferViews":[
		{
			"buffer":0,
			"byteLength":281616,
			"byteOffset":0,
			"target":34962
		},
		{
			"buffer":0,
			"byteLength":281616,
			"byteOffset":281616,
			"target":34962
		},
		{
			"buffer":0,
			"byteLength":187744,
			"byteOffset":563232,
			"target":34962
		},
		{
			"buffer":0,
			"byteLength":47952,
			"byteOffset":750976,
			"target":34963
		}
	],
	"buffers":[
		{
			"byteLength":798928,
			"uri":"mountain_landscape_baked.bin"
		}
	]
}
