{
	"asset":{
		"generator":"Khronos glTF Blender I/O v4.5.47",
		"version":"2.0"
	},
	"scene":0,
	"scenes":[
		{
			"name":"Scene",
			"nodes":[
				0
			]
		}
	],
	"nodes":[
		{
			"mesh":0,
			"name":"arch_01"
		}
	],
	"meshes":[
		{
			"name":"wall_entry",
			"primitives":[
				{
					"attributes":{
						"POSITION":0,
						"NORMAL":1,
						"TEXCOORD_0":2
					},
					"indices":3
				}
			]
		}
	],
	"accessors":[
		{
			"bufferView":0,
			"componentType":5126,
			"count":2061,
			"max":[
				1.034343957901001,
				1.79680597782135,
				0.14325697720050812
			],
			"min":[
				-1.039396047592163,
				0.0057610273361206055,
				-0.0472540445625782
			],
			"type":"VEC3"
		},
		{
			"bufferView":1,
			"componentType":5126,
			"count":2061,
			"type":"VEC3"
		},
		{
			"bufferView":2,
			"componentType":5126,
			"count":2061,
			"type":"VEC2"
		},
		{
			"bufferView":3,
			"componentType":5123,
			"count":2247,
			"type":"SCALAR"
		}
	],
	"bufferViews":[
		{
			"buffer":0,
			"byteLength":24732,
			"byteOffset":0,
			"target":34962
		},
		{
			"buffer":0,
			"byteLength":24732,
			"byteOffset":24732,
			"target":34962
		},
		{
			"buffer":0,
			"byteLength":16488,
			"byteOffset":49464,
			"target":34962
		},
		{
			"buffer":0,
			"byteLength":4494,
			"byteOffset":65952,
			"target":34963
		}
	],
	"buffers":[
		{
			"byteLength":70448,
			"uri":"arch_01.bin"
		}
	]
}
