{
	"asset":{
		"generator":"Khronos glTF Blender I/O v4.5.47",
		"version":"2.0"
	},
	"scene":0,
	"scenes":[
		{
			"name":"Scene",
			"nodes":[
				0
			]
		}
	],
	"nodes":[
		{
			"mesh":0,
			"name":"3D_Key_1",
			"rotation":[
				0.7071068286895752,
				0,
				0,
				0.7071068286895752
			]
		}
	],
	"meshes":[
		{
			"name":"3D_Key_1",
			"primitives":[
				{
					"attributes":{
						"POSITION":0,
						"NORMAL":1,
						"TEXCOORD_0":2
					},
					"indices":3
				}
			]
		}
	],
	"accessors":[
		{
			"bufferView":0,
			"componentType":5126,
			"count":2582,
			"max":[
				0.12711800634860992,
				0.23594599962234497,
				0.027703000232577324
			],
			"min":[
				-0.11054900288581848,
				-0.23297899961471558,
				-0.027941999956965446
			],
			"type":"VEC3"
		},
		{
			"bufferView":1,
			"componentType":5126,
			"count":2582,
			"type":"VEC3"
		},
		{
			"bufferView":2,
			"componentType":5126,
			"count":2582,
			"type":"VEC2"
		},
		{
			"bufferView":3,
			"componentType":5123,
			"count":3516,
			"type":"SCALAR"
		}
	],
	"bufferViews":[
		{
			"buffer":0,
			"byteLength":30984,
			"byteOffset":0,
			"target":34962
		},
		{
			"buffer":0,
			"byteLength":30984,
			"byteOffset":30984,
			"target":34962
		},
		{
			"buffer":0,
			"byteLength":20656,
			"byteOffset":61968,
			"target":34962
		},
		{
			"buffer":0,
			"byteLength":7032,
			"byteOffset":82624,
			"target":34963
		}
	],
	"buffers":[
		{
			"byteLength":89656,
			"uri":"key.bin"
		}
	]
}
