{
	"asset":{
		"generator":"Khronos glTF Blender I/O v4.5.47",
		"version":"2.0"
	},
	"scene":0,
	"scenes":[
		{
			"name":"Scene",
			"nodes":[
				0,
				1
			]
		}
	],
	"nodes":[
		{
			"mesh":0,
			"name":"cauldron_01_lid",
			"rotation":[
				0.7071068286895752,
				0,
				0,
				0.7071068286895752
			],
			"translation":[
				0,
				0.24977631866931915,
				0
			]
		},
		{
			"mesh":1,
			"name":"cauldron_01_lid.001",
			"rotation":[
				0.7071068286895752,
				0,
				0,
				0.7071068286895752
			],
			"translation":[
				0,
				0.24977631866931915,
				0
			]
		}
	],
	"meshes":[
		{
			"name":"cauldron_01_lid",
			"primitives":[
				{
					"attributes":{
						"POSITION":0,
						"NORMAL":1,
						"TEXCOORD_0":2
					},
					"indices":3
				}
			]
		},
		{
			"name":"cauldron_01_lid.001",
			"primitives":[
				{
					"attributes":{
						"POSITION":4,
						"NORMAL":5,
						"TEXCOORD_0":6
					},
					"indices":7
				}
			]
		}
	],
	"accessors":[
		{
			"bufferView":0,
			"componentType":5126,
			"count":718,
			"max":[
				0.16893500089645386,
				0.16992199420928955,
				0.005905000027269125
			],
			"min":[
				-0.1697169989347458,
				-0.1678750067949295,
				-0.04836200177669525
			],
			"type":"VEC3"
		},
		{
			"bufferView":1,
			"componentType":5126,
			"count":718,
			"type":"VEC3"
		},
		{
			"bufferView":2,
			"componentType":5126,
			"count":718,
			"type":"VEC2"
		},
		{
			"bufferView":3,
			"componentType":5123,
			"count":816,
			"type":"SCALAR"
		},
		{
			"bufferView":4,
			"componentType":5126,
			"count":164,
			"max":[
				0.058201998472213745,
				0.013523999601602554,
				-0.04403800144791603
			],
			"min":[
				-0.05898300185799599,
				-0.011477000080049038,
				-0.08758900314569473
			],
			"type":"VEC3"
		},
		{
			"bufferView":5,
			"componentType":5126,
			"count":164,
			"type":"VEC3"
		},
		{
			"bufferView":6,
			"componentType":5126,
			"count":164,
			"type":"VEC2"
		},
		{
			"bufferView":7,
			"componentType":5123,
			"count":180,
			"type":"SCALAR"
		}
	],
	"bufferViews":[
		{
			"buffer":0,
			"byteLength":8616,
			"byteOffset":0,
			"target":34962
		},
		{
			"buffer":0,
			"byteLength":8616,
			"byteOffset":8616,
			"target":34962
		},
		{
			"buffer":0,
			"byteLength":5744,
			"byteOffset":17232,
			"target":34962
		},
		{
			"buffer":0,
			"byteLength":1632,
			"byteOffset":22976,
			"target":34963
		},
		{
			"buffer":0,
			"byteLength":1968,
			"byteOffset":24608,
			"target":34962
		},
		{
			"buffer":0,
			"byteLength":1968,
			"byteOffset":26576,
			"target":34962
		},
		{
			"buffer":0,
			"byteLength":1312,
			"byteOffset":28544,
			"target":34962
		},
		{
			"buffer":0,
			"byteLength":360,
			"byteOffset":29856,
			"target":34963
		}
	],
	"buffers":[
		{
			"byteLength":30216,
			"uri":"cauldron_01_lid.bin"
		}
	]
}
