{
	"asset":{
		"generator":"Khronos glTF Blender I/O v4.5.47",
		"version":"2.0"
	},
	"scene":0,
	"scenes":[
		{
			"name":"Scene",
			"nodes":[
				0,
				1,
				2,
				3
			]
		}
	],
	"nodes":[
		{
			"mesh":0,
			"name":"CauldronPot_low",
			"rotation":[
				0,
				-0.7071068286895752,
				0,
				0.7071067690849304
			],
			"scale":[
				0.05209611728787422,
				0.05209611728787422,
				0.05209611728787422
			]
		},
		{
			"mesh":1,
			"name":"Stand_low",
			"rotation":[
				0,
				-0.7071068286895752,
				0,
				0.7071067690849304
			],
			"scale":[
				0.05209611728787422,
				0.05209611728787422,
				0.05209611728787422
			],
			"translation":[
				-0.0006236135959625244,
				0.10652005672454834,
				0.0033391404431313276
			]
		},
		{
			"mesh":2,
			"name":"CauldronHandle_low",
			"rotation":[
				0,
				-0.7071068286895752,
				0,
				0.7071067690849304
			],
			"scale":[
				0.05209611728787422,
				0.05209611728787422,
				0.05209611728787422
			]
		},
		{
			"mesh":3,
			"name":"Standlegs_low",
			"rotation":[
				0,
				-0.7071068286895752,
				0,
				0.7071067690849304
			],
			"scale":[
				0.05209611728787422,
				0.05209611728787422,
				0.05209611728787422
			]
		}
	],
	"meshes":[
		{
			"name":"BezierCurve",
			"primitives":[
				{
					"attributes":{
						"POSITION":0,
						"NORMAL":1,
						"TEXCOORD_0":2
					},
					"indices":3
				}
			]
		},
		{
			"name":"Cylinder.010",
			"primitives":[
				{
					"attributes":{
						"POSITION":4,
						"NORMAL":5,
						"TEXCOORD_0":6
					},
					"indices":7
				}
			]
		},
		{
			"name":"BezierCurve.002",
			"primitives":[
				{
					"attributes":{
						"POSITION":8,
						"NORMAL":9,
						"TEXCOORD_0":10
					},
					"indices":11
				}
			]
		},
		{
			"name":"BezierCurve.006",
			"primitives":[
				{
					"attributes":{
						"POSITION":12,
						"NORMAL":13,
						"TEXCOORD_0":14
					},
					"indices":15
				}
			]
		}
	],
	"accessors":[
		{
			"bufferView":0,
			"componentType":5126,
			"count":652,
			"max":[
				4.113161563873291,
				8.296077728271484,
				4.113161087036133
			],
			"min":[
				-4.092539310455322,
				1.4140933752059937,
				-4.153054237365723
			],
			"type":"VEC3"
		},
		{
			"bufferView":1,
			"componentType":5126,
			"count":652,
			"type":"VEC3"
		},
		{
			"bufferView":2,
			"componentType":5126,
			"count":652,
			"type":"VEC2"
		},
		{
			"bufferView":3,
			"componentType":5123,
			"count":846,
			"type":"SCALAR"
		},
		{
			"bufferView":4,
			"componentType":5126,
			"count":316,
			"max":[
				3.149783134460449,
				0.2681586742401123,
				3.2165310382843018
			],
			"min":[
				-3.291533946990967,
				-0.27903592586517334,
				-3.2490031719207764
			],
			"type":"VEC3"
		},
		{
			"bufferView":5,
			"componentType":5126,
			"count":316,
			"type":"VEC3"
		},
		{
			"bufferView":6,
			"componentType":5126,
			"count":316,
			"type":"VEC2"
		},
		{
			"bufferView":7,
			"componentType":5123,
			"count":336,
			"type":"SCALAR"
		},
		{
			"bufferView":8,
			"componentType":5126,
			"count":368,
			"max":[
				4.100502967834473,
				7.6633501052856445,
				0.847977876663208
			],
			"min":[
				-4.100502967834473,
				6.423775672912598,
				-0.8756168484687805
			],
			"type":"VEC3"
		},
		{
			"bufferView":9,
			"componentType":5126,
			"count":368,
			"type":"VEC3"
		},
		{
			"bufferView":10,
			"componentType":5126,
			"count":368,
			"type":"VEC2"
		},
		{
			"bufferView":11,
			"componentType":5123,
			"count":438,
			"type":"SCALAR"
		},
		{
			"bufferView":12,
			"componentType":5126,
			"count":784,
			"max":[
				4.438088893890381,
				2.248065233230591,
				4.438088893890381
			],
			"min":[
				-4.438088893890381,
				0.01874392293393612,
				-4.438088893890381
			],
			"type":"VEC3"
		},
		{
			"bufferView":13,
			"componentType":5126,
			"count":784,
			"type":"VEC3"
		},
		{
			"bufferView":14,
			"componentType":5126,
			"count":784,
			"type":"VEC2"
		},
		{
			"bufferView":15,
			"componentType":5123,
			"count":936,
			"type":"SCALAR"
		}
	],
	"bufferViews":[
		{
			"buffer":0,
			"byteLength":7824,
			"byteOffset":0,
			"target":34962
		},
		{
			"buffer":0,
			"byteLength":7824,
			"byteOffset":7824,
			"target":34962
		},
		{
			"buffer":0,
			"byteLength":5216,
			"byteOffset":15648,
			"target":34962
		},
		{
			"buffer":0,
			"byteLength":1692,
			"byteOffset":20864,
			"target":34963
		},
		{
			"buffer":0,
			"byteLength":3792,
			"byteOffset":22556,
			"target":34962
		},
		{
			"buffer":0,
			"byteLength":3792,
			"byteOffset":26348,
			"target":34962
		},
		{
			"buffer":0,
			"byteLength":2528,
			"byteOffset":30140,
			"target":34962
		},
		{
			"buffer":0,
			"byteLength":672,
			"byteOffset":32668,
			"target":34963
		},
		{
			"buffer":0,
			"byteLength":4416,
			"byteOffset":33340,
			"target":34962
		},
		{
			"buffer":0,
			"byteLength":4416,
			"byteOffset":37756,
			"target":34962
		},
		{
			"buffer":0,
			"byteLength":2944,
			"byteOffset":42172,
			"target":34962
		},
		{
			"buffer":0,
			"byteLength":876,
			"byteOffset":45116,
			"target":34963
		},
		{
			"buffer":0,
			"byteLength":9408,
			"byteOffset":45992,
			"target":34962
		},
		{
			"buffer":0,
			"byteLength":9408,
			"byteOffset":55400,
			"target":34962
		},
		{
			"buffer":0,
			"byteLength":6272,
			"byteOffset":64808,
			"target":34962
		},
		{
			"buffer":0,
			"byteLength":1872,
			"byteOffset":71080,
			"target":34963
		}
	],
	"buffers":[
		{
			"byteLength":72952,
			"uri":"cauldron_02.bin"
		}
	]
}
