{
	"asset":{
		"generator":"Khronos glTF Blender I/O v4.5.47",
		"version":"2.0"
	},
	"scene":0,
	"scenes":[
		{
			"name":"Scene",
			"nodes":[
				0,
				1,
				2,
				3,
				4,
				5
			]
		}
	],
	"nodes":[
		{
			"mesh":0,
			"name":"Platform_02_Base.001",
			"rotation":[
				0,
				0.9999788999557495,
				0,
				0.006510853301733732
			],
			"scale":[
				0.8999999761581421,
				0.8999999761581421,
				0.8999999761581421
			],
			"translation":[
				0.1282409280538559,
				2.156564235687256,
				0.43073511123657227
			]
		},
		{
			"mesh":1,
			"name":"Hanging Industrial Lamp.034",
			"translation":[
				0.23132480680942535,
				2.3264942169189453,
				1.097775936126709
			]
		},
		{
			"mesh":2,
			"name":"Hanging Industrial Lamp.033",
			"translation":[
				0.23132482171058655,
				2.469316005706787,
				1.097775936126709
			]
		},
		{
			"mesh":3,
			"name":"Hanging Industrial Lamp.025",
			"scale":[
				5.838413238525391,
				5.838413238525391,
				5.838413238525391
			],
			"translation":[
				0.23697811365127563,
				3.299470901489258,
				1.0940890312194824
			]
		},
		{
			"mesh":4,
			"name":"Hanging Industrial Lamp.001",
			"translation":[
				0.23132488131523132,
				2.2706403732299805,
				1.097775936126709
			]
		},
		{
			"mesh":5,
			"name":"Hanging Industrial Lamp",
			"translation":[
				0.23132486641407013,
				2.6099939346313477,
				1.097775936126709
			]
		}
	],
	"meshes":[
		{
			"name":"Platform_02_Base.001",
			"primitives":[
				{
					"attributes":{
						"POSITION":0,
						"NORMAL":1,
						"TEXCOORD_0":2,
						"TEXCOORD_1":3,
						"TEXCOORD_2":4
					},
					"indices":5
				}
			]
		},
		{
			"name":"Cylinder.004",
			"primitives":[
				{
					"attributes":{
						"POSITION":6,
						"NORMAL":7,
						"TEXCOORD_0":8
					},
					"indices":9
				}
			]
		},
		{
			"name":"Cylinder.005",
			"primitives":[
				{
					"attributes":{
						"POSITION":10,
						"NORMAL":11,
						"TEXCOORD_0":12
					},
					"indices":13
				}
			]
		},
		{
			"name":"Cylinder.006",
			"primitives":[
				{
					"attributes":{
						"POSITION":14,
						"NORMAL":15,
						"TEXCOORD_0":16
					},
					"indices":17
				}
			]
		},
		{
			"name":"Cylinder.007",
			"primitives":[
				{
					"attributes":{
						"POSITION":18,
						"NORMAL":19,
						"TEXCOORD_0":20
					},
					"indices":21
				}
			]
		},
		{
			"name":"Cylinder.008",
			"primitives":[
				{
					"attributes":{
						"POSITION":22,
						"NORMAL":23,
						"TEXCOORD_0":24
					},
					"indices":25
				}
			]
		}
	],
	"accessors":[
		{
			"bufferView":0,
			"componentType":5126,
			"count":200,
			"max":[
				0.2657860219478607,
				1.6061453819274902,
				0.9562596678733826
			],
			"min":[
				-0.2012520730495453,
				-2.406127691268921,
				-0.9176709651947021
			],
			"type":"VEC3"
		},
		{
			"bufferView":1,
			"componentType":5126,
			"count":200,
			"type":"VEC3"
		},
		{
			"bufferView":2,
			"componentType":5126,
			"count":200,
			"type":"VEC2"
		},
		{
			"bufferView":3,
			"componentType":5126,
			"count":200,
			"type":"VEC2"
		},
		{
			"bufferView":4,
			"componentType":5126,
			"count":200,
			"type":"VEC2"
		},
		{
			"bufferView":5,
			"componentType":5123,
			"count":234,
			"type":"SCALAR"
		},
		{
			"bufferView":6,
			"componentType":5126,
			"count":192,
			"max":[
				0.24592897295951843,
				0.16420747339725494,
				0.24663874506950378
			],
			"min":[
				-0.24803391098976135,
				-0.12333374470472336,
				-0.24693040549755096
			],
			"type":"VEC3"
		},
		{
			"bufferView":7,
			"componentType":5126,
			"count":192,
			"type":"VEC3"
		},
		{
			"bufferView":8,
			"componentType":5126,
			"count":192,
			"type":"VEC2"
		},
		{
			"bufferView":9,
			"componentType":5123,
			"count":210,
			"type":"SCALAR"
		},
		{
			"bufferView":10,
			"componentType":5126,
			"count":220,
			"max":[
				0.04471709206700325,
				0.06223118305206299,
				0.04471709951758385
			],
			"min":[
				-0.044717103242874146,
				-0.06549549102783203,
				-0.04471709206700325
			],
			"type":"VEC3"
		},
		{
			"bufferView":11,
			"componentType":5126,
			"count":220,
			"type":"VEC3"
		},
		{
			"bufferView":12,
			"componentType":5126,
			"count":220,
			"type":"VEC2"
		},
		{
			"bufferView":13,
			"componentType":5123,
			"count":954,
			"type":"SCALAR"
		},
		{
			"bufferView":14,
			"componentType":5126,
			"count":156,
			"max":[
				0.0025677781086415052,
				-0.03281332924962044,
				0.011188267730176449
			],
			"min":[
				-0.0025779115967452526,
				-0.09255579859018326,
				-0.011565026827156544
			],
			"type":"VEC3"
		},
		{
			"bufferView":15,
			"componentType":5126,
			"count":156,
			"type":"VEC3"
		},
		{
			"bufferView":16,
			"componentType":5126,
			"count":156,
			"type":"VEC2"
		},
		{
			"bufferView":17,
			"componentType":5123,
			"count":168,
			"type":"SCALAR"
		},
		{
			"bufferView":18,
			"componentType":5126,
			"count":686,
			"max":[
				0.27100589871406555,
				0.10854341834783554,
				0.27126550674438477
			],
			"min":[
				-0.2696840465068817,
				-0.0860840231180191,
				-0.27126559615135193
			],
			"type":"VEC3"
		},
		{
			"bufferView":19,
			"componentType":5126,
			"count":686,
			"type":"VEC3"
		},
		{
			"bufferView":20,
			"componentType":5126,
			"count":686,
			"type":"VEC2"
		},
		{
			"bufferView":21,
			"componentType":5123,
			"count":750,
			"type":"SCALAR"
		},
		{
			"bufferView":22,
			"componentType":5126,
			"count":342,
			"max":[
				0.2731993496417999,
				0.18329565227031708,
				0.27467742562294006
			],
			"min":[
				-0.2746884524822235,
				-0.24662283062934875,
				-0.26895320415496826
			],
			"type":"VEC3"
		},
		{
			"bufferView":23,
			"componentType":5126,
			"count":342,
			"type":"VEC3"
		},
		{
			"bufferView":24,
			"componentType":5126,
			"count":342,
			"type":"VEC2"
		},
		{
			"bufferView":25,
			"componentType":5123,
			"count":372,
			"type":"SCALAR"
		}
	],
	"bufferViews":[
		{
			"buffer":0,
			"byteLength":2400,
			"byteOffset":0,
			"target":34962
		},
		{
			"buffer":0,
			"byteLength":2400,
			"byteOffset":2400,
			"target":34962
		},
		{
			"buffer":0,
			"byteLength":1600,
			"byteOffset":4800,
			"target":34962
		},
		{
			"buffer":0,
			"byteLength":1600,
			"byteOffset":6400,
			"target":34962
		},
		{
			"buffer":0,
			"byteLength":1600,
			"byteOffset":8000,
			"target":34962
		},
		{
			"buffer":0,
			"byteLength":468,
			"byteOffset":9600,
			"target":34963
		},
		{
			"buffer":0,
			"byteLength":2304,
			"byteOffset":10068,
			"target":34962
		},
		{
			"buffer":0,
			"byteLength":2304,
			"byteOffset":12372,
			"target":34962
		},
		{
			"buffer":0,
			"byteLength":1536,
			"byteOffset":14676,
			"target":34962
		},
		{
			"buffer":0,
			"byteLength":420,
			"byteOffset":16212,
			"target":34963
		},
		{
			"buffer":0,
			"byteLength":2640,
			"byteOffset":16632,
			"target":34962
		},
		{
			"buffer":0,
			"byteLength":2640,
			"byteOffset":19272,
			"target":34962
		},
		{
			"buffer":0,
			"byteLength":1760,
			"byteOffset":21912,
			"target":34962
		},
		{
			"buffer":0,
			"byteLength":1908,
			"byteOffset":23672,
			"target":34963
		},
		{
			"buffer":0,
			"byteLength":1872,
			"byteOffset":25580,
			"target":34962
		},
		{
			"buffer":0,
			"byteLength":1872,
			"byteOffset":27452,
			"target":34962
		},
		{
			"buffer":0,
			"byteLength":1248,
			"byteOffset":29324,
			"target":34962
		},
		{
			"buffer":0,
			"byteLength":336,
			"byteOffset":30572,
			"target":34963
		},
		{
			"buffer":0,
			"byteLength":8232,
			"byteOffset":30908,
			"target":34962
		},
		{
			"buffer":0,
			"byteLength":8232,
			"byteOffset":39140,
			"target":34962
		},
		{
			"buffer":0,
			"byteLength":5488,
			"byteOffset":47372,
			"target":34962
		},
		{
			"buffer":0,
			"byteLength":1500,
			"byteOffset":52860,
			"target":34963
		},
		{
			"buffer":0,
			"byteLength":4104,
			"byteOffset":54360,
			"target":34962
		},
		{
			"buffer":0,
			"byteLength":4104,
			"byteOffset":58464,
			"target":34962
		},
		{
			"buffer":0,
			"byteLength":2736,
			"byteOffset":62568,
			"target":34962
		},
		{
			"buffer":0,
			"byteLength":744,
			"byteOffset":65304,
			"target":34963
		}
	],
	"buffers":[
		{
			"byteLength":66048,
			"uri":"lamp_03.bin"
		}
	]
}
