{
	"asset":{
		"generator":"Khronos glTF Blender I/O v4.5.47",
		"version":"2.0"
	},
	"scene":0,
	"scenes":[
		{
			"name":"Scene",
			"nodes":[
				0,
				1,
				2
			]
		}
	],
	"nodes":[
		{
			"mesh":0,
			"name":"street_lamp_01.003",
			"translation":[
				0,
				3.0515401363372803,
				0
			]
		},
		{
			"mesh":1,
			"name":"street_lamp_01.002",
			"translation":[
				5.916072041145526e-05,
				2.541231870651245,
				-0.003911495208740234
			]
		},
		{
			"mesh":2,
			"name":"street_lamp_01.001",
			"scale":[
				2.7637174129486084,
				2.7637174129486084,
				2.7637174129486084
			],
			"translation":[
				0,
				2.9631381034851074,
				0
			]
		}
	],
	"meshes":[
		{
			"name":"street_lamp_01_post_mesh.004",
			"primitives":[
				{
					"attributes":{
						"POSITION":0,
						"NORMAL":1,
						"TEXCOORD_0":2
					},
					"indices":3
				}
			]
		},
		{
			"name":"street_lamp_01_post_mesh.002",
			"primitives":[
				{
					"attributes":{
						"POSITION":4,
						"NORMAL":5,
						"TEXCOORD_0":6
					},
					"indices":7
				}
			]
		},
		{
			"name":"street_lamp_01_post_mesh.001",
			"primitives":[
				{
					"attributes":{
						"POSITION":8,
						"NORMAL":9,
						"TEXCOORD_0":10
					},
					"indices":11
				}
			]
		}
	],
	"accessors":[
		{
			"bufferView":0,
			"componentType":5126,
			"count":26,
			"max":[
				0.17280255258083344,
				0.1857820749282837,
				0.17306646704673767
			],
			"min":[
				-0.17288033664226532,
				-0.1859467476606369,
				-0.17310521006584167
			],
			"type":"VEC3"
		},
		{
			"bufferView":1,
			"componentType":5126,
			"count":26,
			"type":"VEC3"
		},
		{
			"bufferView":2,
			"componentType":5126,
			"count":26,
			"type":"VEC2"
		},
		{
			"bufferView":3,
			"componentType":5123,
			"count":36,
			"type":"SCALAR"
		},
		{
			"bufferView":4,
			"componentType":5126,
			"count":1263,
			"max":[
				0.190066397190094,
				0.9025328159332275,
				0.19065949320793152
			],
			"min":[
				-0.19018469750881195,
				-2.5412378311157227,
				-0.189591646194458
			],
			"type":"VEC3"
		},
		{
			"bufferView":5,
			"componentType":5126,
			"count":1263,
			"type":"VEC3"
		},
		{
			"bufferView":6,
			"componentType":5126,
			"count":1263,
			"type":"VEC2"
		},
		{
			"bufferView":7,
			"componentType":5123,
			"count":1371,
			"type":"SCALAR"
		},
		{
			"bufferView":8,
			"componentType":5126,
			"count":247,
			"max":[
				0.030108286067843437,
				0.03949541971087456,
				0.030104750767350197
			],
			"min":[
				-0.02992379106581211,
				-0.03508952260017395,
				-0.03011472336947918
			],
			"type":"VEC3"
		},
		{
			"bufferView":9,
			"componentType":5126,
			"count":247,
			"type":"VEC3"
		},
		{
			"bufferView":10,
			"componentType":5126,
			"count":247,
			"type":"VEC2"
		},
		{
			"bufferView":11,
			"componentType":5123,
			"count":297,
			"type":"SCALAR"
		}
	],
	"bufferViews":[
		{
			"buffer":0,
			"byteLength":312,
			"byteOffset":0,
			"target":34962
		},
		{
			"buffer":0,
			"byteLength":312,
			"byteOffset":312,
			"target":34962
		},
		{
			"buffer":0,
			"byteLength":208,
			"byteOffset":624,
			"target":34962
		},
		{
			"buffer":0,
			"byteLength":72,
			"byteOffset":832,
			"target":34963
		},
		{
			"buffer":0,
			"byteLength":15156,
			"byteOffset":904,
			"target":34962
		},
		{
			"buffer":0,
			"byteLength":15156,
			"byteOffset":16060,
			"target":34962
		},
		{
			"buffer":0,
			"byteLength":10104,
			"byteOffset":31216,
			"target":34962
		},
		{
			"buffer":0,
			"byteLength":2742,
			"byteOffset":41320,
			"target":34963
		},
		{
			"buffer":0,
			"byteLength":2964,
			"byteOffset":44064,
			"target":34962
		},
		{
			"buffer":0,
			"byteLength":2964,
			"byteOffset":47028,
			"target":34962
		},
		{
			"buffer":0,
			"byteLength":1976,
			"byteOffset":49992,
			"target":34962
		},
		{
			"buffer":0,
			"byteLength":594,
			"byteOffset":51968,
			"target":34963
		}
	],
	"buffers":[
		{
			"byteLength":52564,
			"uri":"lamp_02.bin"
		}
	]
}
