{
	"asset":{
		"generator":"Khronos glTF Blender I/O v4.5.47",
		"version":"2.0"
	},
	"scene":0,
	"scenes":[
		{
			"name":"Scene",
			"nodes":[
				0,
				1,
				2
			]
		}
	],
	"nodes":[
		{
			"mesh":0,
			"name":"Cube.001",
			"translation":[
				0,
				0.39991623163223267,
				0
			]
		},
		{
			"mesh":1,
			"name":"street_lamp_01.004",
			"scale":[
				2.7637174129486084,
				2.7637174129486084,
				2.7637174129486084
			],
			"translation":[
				0,
				0.12942861020565033,
				0
			]
		},
		{
			"mesh":2,
			"name":"Cube.003",
			"translation":[
				0,
				0.40706324577331543,
				0
			]
		}
	],
	"meshes":[
		{
			"name":"Cube.010",
			"primitives":[
				{
					"attributes":{
						"POSITION":0,
						"NORMAL":1,
						"TEXCOORD_0":2
					},
					"indices":3
				}
			]
		},
		{
			"name":"street_lamp_01_post_mesh.005",
			"primitives":[
				{
					"attributes":{
						"POSITION":4,
						"NORMAL":5,
						"TEXCOORD_0":6
					},
					"indices":7
				}
			]
		},
		{
			"name":"Cube.003",
			"primitives":[
				{
					"attributes":{
						"POSITION":8,
						"NORMAL":9,
						"TEXCOORD_0":10
					},
					"indices":11
				}
			]
		}
	],
	"accessors":[
		{
			"bufferView":0,
			"componentType":5126,
			"count":328,
			"max":[
				0.2029370218515396,
				0.27625665068626404,
				0.20293691754341125
			],
			"min":[
				-0.20293700695037842,
				-0.3928517699241638,
				-0.20293711125850677
			],
			"type":"VEC3"
		},
		{
			"bufferView":1,
			"componentType":5126,
			"count":328,
			"type":"VEC3"
		},
		{
			"bufferView":2,
			"componentType":5126,
			"count":328,
			"type":"VEC2"
		},
		{
			"bufferView":3,
			"componentType":5123,
			"count":492,
			"type":"SCALAR"
		},
		{
			"bufferView":4,
			"componentType":5126,
			"count":247,
			"max":[
				0.030108286067843437,
				0.03949541971087456,
				0.030104750767350197
			],
			"min":[
				-0.02992379106581211,
				-0.03508952260017395,
				-0.03011472336947918
			],
			"type":"VEC3"
		},
		{
			"bufferView":5,
			"componentType":5126,
			"count":247,
			"type":"VEC3"
		},
		{
			"bufferView":6,
			"componentType":5126,
			"count":247,
			"type":"VEC2"
		},
		{
			"bufferView":7,
			"componentType":5123,
			"count":297,
			"type":"SCALAR"
		},
		{
			"bufferView":8,
			"componentType":5126,
			"count":32,
			"max":[
				0.18492892384529114,
				0.23537009954452515,
				0.18517008423805237
			],
			"min":[
				-0.18389014899730682,
				-0.37235021591186523,
				-0.1836490035057068
			],
			"type":"VEC3"
		},
		{
			"bufferView":9,
			"componentType":5126,
			"count":32,
			"type":"VEC3"
		},
		{
			"bufferView":10,
			"componentType":5126,
			"count":32,
			"type":"VEC2"
		},
		{
			"bufferView":11,
			"componentType":5123,
			"count":48,
			"type":"SCALAR"
		}
	],
	"bufferViews":[
		{
			"buffer":0,
			"byteLength":3936,
			"byteOffset":0,
			"target":34962
		},
		{
			"buffer":0,
			"byteLength":3936,
			"byteOffset":3936,
			"target":34962
		},
		{
			"buffer":0,
			"byteLength":2624,
			"byteOffset":7872,
			"target":34962
		},
		{
			"buffer":0,
			"byteLength":984,
			"byteOffset":10496,
			"target":34963
		},
		{
			"buffer":0,
			"byteLength":2964,
			"byteOffset":11480,
			"target":34962
		},
		{
			"buffer":0,
			"byteLength":2964,
			"byteOffset":14444,
			"target":34962
		},
		{
			"buffer":0,
			"byteLength":1976,
			"byteOffset":17408,
			"target":34962
		},
		{
			"buffer":0,
			"byteLength":594,
			"byteOffset":19384,
			"target":34963
		},
		{
			"buffer":0,
			"byteLength":384,
			"byteOffset":19980,
			"target":34962
		},
		{
			"buffer":0,
			"byteLength":384,
			"byteOffset":20364,
			"target":34962
		},
		{
			"buffer":0,
			"byteLength":256,
			"byteOffset":20748,
			"target":34962
		},
		{
			"buffer":0,
			"byteLength":96,
			"byteOffset":21004,
			"target":34963
		}
	],
	"buffers":[
		{
			"byteLength":21100,
			"uri":"lamp_01.bin"
		}
	]
}
