{
	"asset":{
		"generator":"Khronos glTF Blender I/O v4.5.47",
		"version":"2.0"
	},
	"scene":0,
	"scenes":[
		{
			"name":"Scene",
			"nodes":[
				0,
				1,
				2,
				3,
				4,
				5,
				6,
				7
			]
		}
	],
	"nodes":[
		{
			"mesh":0,
			"name":"House_03_FantasyAtlas_mat_0",
			"scale":[
				0.9706146121025085,
				0.9706146121025085,
				0.9706146121025085
			],
			"translation":[
				0.06305717676877975,
				2.8696482181549072,
				0.2061777263879776
			]
		},
		{
			"mesh":1,
			"name":"House_03_FantasyAtlas_mat_0.001",
			"scale":[
				0.9706146121025085,
				0.9706146121025085,
				0.9706146121025085
			],
			"translation":[
				0.015266608446836472,
				3.1430323123931885,
				0.09866416454315186
			]
		},
		{
			"mesh":2,
			"name":"House_03_FantasyAtlas_mat_0.003",
			"scale":[
				0.9706146121025085,
				0.9706146121025085,
				0.9706146121025085
			],
			"translation":[
				0.029841430485248566,
				2.968885660171509,
				-0.03693496808409691
			]
		},
		{
			"mesh":3,
			"name":"House_03_FantasyAtlas_mat_0.004",
			"scale":[
				0.9706146121025085,
				0.9706146121025085,
				0.9706146121025085
			],
			"translation":[
				-0.059491388499736786,
				0.47555238008499146,
				0.08421069383621216
			]
		},
		{
			"mesh":4,
			"name":"House_03_FantasyAtlas_mat_0.005",
			"scale":[
				0.9706146121025085,
				0.9706146121025085,
				0.9706146121025085
			],
			"translation":[
				-0.403507262468338,
				3.5166332721710205,
				0.5435895919799805
			]
		},
		{
			"mesh":5,
			"name":"House_03_FantasyAtlas_mat_0.006",
			"scale":[
				0.9706146121025085,
				0.9706146121025085,
				0.9706146121025085
			],
			"translation":[
				1.1018249988555908,
				0.7385808229446411,
				0.6781866550445557
			]
		},
		{
			"mesh":6,
			"name":"House_03_FantasyAtlas_mat_0.009",
			"scale":[
				0.9706146121025085,
				0.9706146121025085,
				0.9706146121025085
			],
			"translation":[
				-0.15642723441123962,
				4.5035624504089355,
				0.07494011521339417
			]
		},
		{
			"mesh":7,
			"name":"House_03_FantasyAtlas_mat_0.010",
			"scale":[
				0.9706146121025085,
				0.9706146121025085,
				0.9706146121025085
			],
			"translation":[
				-0.8325949311256409,
				6.283637046813965,
				0.8206424713134766
			]
		}
	],
	"meshes":[
		{
			"name":"House_03_FantasyAtlas_mat_0",
			"primitives":[
				{
					"attributes":{
						"POSITION":0,
						"NORMAL":1,
						"TEXCOORD_0":2
					},
					"indices":3
				}
			]
		},
		{
			"name":"House_03_FantasyAtlas_mat_0.001",
			"primitives":[
				{
					"attributes":{
						"POSITION":4,
						"NORMAL":5,
						"TEXCOORD_0":6
					},
					"indices":7
				}
			]
		},
		{
			"name":"House_03_FantasyAtlas_mat_0.003",
			"primitives":[
				{
					"attributes":{
						"POSITION":8,
						"NORMAL":9,
						"TEXCOORD_0":10
					},
					"indices":11
				}
			]
		},
		{
			"name":"House_03_FantasyAtlas_mat_0.004",
			"primitives":[
				{
					"attributes":{
						"POSITION":12,
						"NORMAL":13,
						"TEXCOORD_0":14
					},
					"indices":15
				}
			]
		},
		{
			"name":"House_03_FantasyAtlas_mat_0.006",
			"primitives":[
				{
					"attributes":{
						"POSITION":16,
						"NORMAL":17,
						"TEXCOORD_0":18
					},
					"indices":19
				}
			]
		},
		{
			"name":"House_03_FantasyAtlas_mat_0.008",
			"primitives":[
				{
					"attributes":{
						"POSITION":20,
						"NORMAL":21,
						"TEXCOORD_0":22
					},
					"indices":23
				}
			]
		},
		{
			"name":"House_03_FantasyAtlas_mat_0.012",
			"primitives":[
				{
					"attributes":{
						"POSITION":24,
						"NORMAL":25,
						"TEXCOORD_0":26
					},
					"indices":27
				}
			]
		},
		{
			"name":"House_03_FantasyAtlas_mat_0.014",
			"primitives":[
				{
					"attributes":{
						"POSITION":28,
						"NORMAL":29,
						"TEXCOORD_0":30
					},
					"indices":31
				}
			]
		}
	],
	"accessors":[
		{
			"bufferView":0,
			"componentType":5126,
			"count":236,
			"max":[
				1.3394650220870972,
				2.8473474979400635,
				1.5281145572662354
			],
			"min":[
				-1.7773370742797852,
				-2.9198014736175537,
				-1.8365445137023926
			],
			"type":"VEC3"
		},
		{
			"bufferView":1,
			"componentType":5126,
			"count":236,
			"type":"VEC3"
		},
		{
			"bufferView":2,
			"componentType":5126,
			"count":236,
			"type":"VEC2"
		},
		{
			"bufferView":3,
			"componentType":5123,
			"count":300,
			"type":"SCALAR"
		},
		{
			"bufferView":4,
			"componentType":5126,
			"count":1053,
			"max":[
				1.6773346662521362,
				2.8580315113067627,
				1.748685359954834
			],
			"min":[
				-2.018885374069214,
				-3.231360912322998,
				-1.8355786800384521
			],
			"type":"VEC3"
		},
		{
			"bufferView":5,
			"componentType":5126,
			"count":1053,
			"type":"VEC3"
		},
		{
			"bufferView":6,
			"componentType":5126,
			"count":1053,
			"type":"VEC2"
		},
		{
			"bufferView":7,
			"componentType":5123,
			"count":1491,
			"type":"SCALAR"
		},
		{
			"bufferView":8,
			"componentType":5126,
			"count":71,
			"max":[
				1.2401392459869385,
				1.3896937370300293,
				1.5563679933547974
			],
			"min":[
				-1.6095689535140991,
				-1.9855507612228394,
				-1.3664666414260864
			],
			"type":"VEC3"
		},
		{
			"bufferView":9,
			"componentType":5126,
			"count":71,
			"type":"VEC3"
		},
		{
			"bufferView":10,
			"componentType":5126,
			"count":71,
			"type":"VEC2"
		},
		{
			"bufferView":11,
			"componentType":5123,
			"count":93,
			"type":"SCALAR"
		},
		{
			"bufferView":12,
			"componentType":5126,
			"count":492,
			"max":[
				1.65311861038208,
				0.5400809645652771,
				1.8054059743881226
			],
			"min":[
				-1.829858422279358,
				-0.45322421193122864,
				-1.8520594835281372
			],
			"type":"VEC3"
		},
		{
			"bufferView":13,
			"componentType":5126,
			"count":492,
			"type":"VEC3"
		},
		{
			"bufferView":14,
			"componentType":5126,
			"count":492,
			"type":"VEC2"
		},
		{
			"bufferView":15,
			"componentType":5123,
			"count":708,
			"type":"SCALAR"
		},
		{
			"bufferView":16,
			"componentType":5126,
			"count":136,
			"max":[
				1.7641502618789673,
				2.509662389755249,
				1.0968283414840698
			],
			"min":[
				-1.2083345651626587,
				-3.6162729263305664,
				-2.1188132762908936
			],
			"type":"VEC3"
		},
		{
			"bufferView":17,
			"componentType":5126,
			"count":136,
			"type":"VEC3"
		},
		{
			"bufferView":18,
			"componentType":5126,
			"count":136,
			"type":"VEC2"
		},
		{
			"bufferView":19,
			"componentType":5123,
			"count":192,
			"type":"SCALAR"
		},
		{
			"bufferView":20,
			"componentType":5126,
			"count":4,
			"max":[
				2.980232238769531e-07,
				0.7208937406539917,
				0.41698768734931946
			],
			"min":[
				-2.980232238769531e-07,
				-0.7208937406539917,
				-0.41698765754699707
			],
			"type":"VEC3"
		},
		{
			"bufferView":21,
			"componentType":5126,
			"count":4,
			"type":"VEC3"
		},
		{
			"bufferView":22,
			"componentType":5126,
			"count":4,
			"type":"VEC2"
		},
		{
			"bufferView":23,
			"componentType":5123,
			"count":6,
			"type":"SCALAR"
		},
		{
			"bufferView":24,
			"componentType":5126,
			"count":558,
			"max":[
				1.7443733215332031,
				1.0144726037979126,
				1.5090792179107666
			],
			"min":[
				-1.7450648546218872,
				-0.6366069912910461,
				-1.5392447710037231
			],
			"type":"VEC3"
		},
		{
			"bufferView":25,
			"componentType":5126,
			"count":558,
			"type":"VEC3"
		},
		{
			"bufferView":26,
			"componentType":5126,
			"count":558,
			"type":"VEC2"
		},
		{
			"bufferView":27,
			"componentType":5123,
			"count":804,
			"type":"SCALAR"
		},
		{
			"bufferView":28,
			"componentType":5126,
			"count":176,
			"max":[
				0.46151018142700195,
				0.20371118187904358,
				0.21793164312839508
			],
			"min":[
				-0.4625444710254669,
				-0.39094382524490356,
				-0.21866367757320404
			],
			"type":"VEC3"
		},
		{
			"bufferView":29,
			"componentType":5126,
			"count":176,
			"type":"VEC3"
		},
		{
			"bufferView":30,
			"componentType":5126,
			"count":176,
			"type":"VEC2"
		},
		{
			"bufferView":31,
			"componentType":5123,
			"count":240,
			"type":"SCALAR"
		}
	],
	"bufferViews":[
		{
			"buffer":0,
			"byteLength":2832,
			"byteOffset":0,
			"target":34962
		},
		{
			"buffer":0,
			"byteLength":2832,
			"byteOffset":2832,
			"target":34962
		},
		{
			"buffer":0,
			"byteLength":1888,
			"byteOffset":5664,
			"target":34962
		},
		{
			"buffer":0,
			"byteLength":600,
			"byteOffset":7552,
			"target":34963
		},
		{
			"buffer":0,
			"byteLength":12636,
			"byteOffset":8152,
			"target":34962
		},
		{
			"buffer":0,
			"byteLength":12636,
			"byteOffset":20788,
			"target":34962
		},
		{
			"buffer":0,
			"byteLength":8424,
			"byteOffset":33424,
			"target":34962
		},
		{
			"buffer":0,
			"byteLength":2982,
			"byteOffset":41848,
			"target":34963
		},
		{
			"buffer":0,
			"byteLength":852,
			"byteOffset":44832,
			"target":34962
		},
		{
			"buffer":0,
			"byteLength":852,
			"byteOffset":45684,
			"target":34962
		},
		{
			"buffer":0,
			"byteLength":568,
			"byteOffset":46536,
			"target":34962
		},
		{
			"buffer":0,
			"byteLength":186,
			"byteOffset":47104,
			"target":34963
		},
		{
			"buffer":0,
			"byteLength":5904,
			"byteOffset":47292,
			"target":34962
		},
		{
			"buffer":0,
			"byteLength":5904,
			"byteOffset":53196,
			"target":34962
		},
		{
			"buffer":0,
			"byteLength":3936,
			"byteOffset":59100,
			"target":34962
		},
		{
			"buffer":0,
			"byteLength":1416,
			"byteOffset":63036,
			"target":34963
		},
		{
			"buffer":0,
			"byteLength":1632,
			"byteOffset":64452,
			"target":34962
		},
		{
			"buffer":0,
			"byteLength":1632,
			"byteOffset":66084,
			"target":34962
		},
		{
			"buffer":0,
			"byteLength":1088,
			"byteOffset":67716,
			"target":34962
		},
		{
			"buffer":0,
			"byteLength":384,
			"byteOffset":68804,
			"target":34963
		},
		{
			"buffer":0,
			"byteLength":48,
			"byteOffset":69188,
			"target":34962
		},
		{
			"buffer":0,
			"byteLength":48,
			"byteOffset":69236,
			"target":34962
		},
		{
			"buffer":0,
			"byteLength":32,
			"byteOffset":69284,
			"target":34962
		},
		{
			"buffer":0,
			"byteLength":12,
			"byteOffset":69316,
			"target":34963
		},
		{
			"buffer":0,
			"byteLength":6696,
			"byteOffset":69328,
			"target":34962
		},
		{
			"buffer":0,
			"byteLength":6696,
			"byteOffset":76024,
			"target":34962
		},
		{
			"buffer":0,
			"byteLength":4464,
			"byteOffset":82720,
			"target":34962
		},
		{
			"buffer":0,
			"byteLength":1608,
			"byteOffset":87184,
			"target":34963
		},
		{
			"buffer":0,
			"byteLength":2112,
			"byteOffset":88792,
			"target":34962
		},
		{
			"buffer":0,
			"byteLength":2112,
			"byteOffset":90904,
			"target":34962
		},
		{
			"buffer":0,
			"byteLength":1408,
			"byteOffset":93016,
			"target":34962
		},
		{
			"buffer":0,
			"byteLength":480,
			"byteOffset":94424,
			"target":34963
		}
	],
	"buffers":[
		{
			"byteLength":94904,
			"uri":"house_03.bin"
		}
	]
}
