{
	"asset":{
		"generator":"Khronos glTF Blender I/O v4.5.47",
		"version":"2.0"
	},
	"scene":0,
	"scenes":[
		{
			"name":"Scene",
			"nodes":[
				0,
				1,
				2,
				3,
				4,
				5,
				6,
				7
			]
		}
	],
	"nodes":[
		{
			"mesh":0,
			"name":"House_01_FantasyAtlas_mat_0",
			"rotation":[
				-0.5000001192092896,
				0.49999985098838806,
				0.4999999403953552,
				0.5000000596046448
			],
			"scale":[
				0.030488478019833565,
				0.030488478019833565,
				0.03790053352713585
			],
			"translation":[
				0.9613472819328308,
				1.5486446619033813,
				-0.36030346155166626
			]
		},
		{
			"mesh":1,
			"name":"House_01_FantasyAtlas_mat_0.001",
			"rotation":[
				-0.5000001192092896,
				0.49999985098838806,
				0.4999999403953552,
				0.5000000596046448
			],
			"scale":[
				0.030488478019833565,
				0.030488478019833565,
				0.03790053352713585
			],
			"translation":[
				1.5813707113265991,
				1.396857500076294,
				-0.1562318205833435
			]
		},
		{
			"mesh":2,
			"name":"House_01_FantasyAtlas_mat_0.003",
			"rotation":[
				-0.5000001192092896,
				0.49999985098838806,
				0.4999999403953552,
				0.5000000596046448
			],
			"scale":[
				0.030488478019833565,
				0.030488478019833565,
				0.03790053352713585
			],
			"translation":[
				1.0504754781723022,
				2.019554853439331,
				-0.4544376730918884
			]
		},
		{
			"mesh":3,
			"name":"House_01_FantasyAtlas_mat_0.004",
			"rotation":[
				-0.5000001192092896,
				0.49999985098838806,
				0.4999999403953552,
				0.5000000596046448
			],
			"scale":[
				0.030488478019833565,
				0.030488478019833565,
				0.03790053352713585
			],
			"translation":[
				0.6190792322158813,
				2.092860698699951,
				-0.15371662378311157
			]
		},
		{
			"mesh":4,
			"name":"House_01_FantasyAtlas_mat_0.005",
			"rotation":[
				-0.5000001192092896,
				0.49999985098838806,
				0.4999999403953552,
				0.5000000596046448
			],
			"scale":[
				0.030488478019833565,
				0.030488478019833565,
				0.03790053352713585
			],
			"translation":[
				0.3130930960178375,
				0.2851472496986389,
				-0.09558358043432236
			]
		},
		{
			"mesh":5,
			"name":"House_01_FantasyAtlas_mat_0.007",
			"rotation":[
				-0.5000001192092896,
				0.49999985098838806,
				0.4999999403953552,
				0.5000000596046448
			],
			"scale":[
				0.030488478019833565,
				0.030488478019833565,
				0.03790053352713585
			],
			"translation":[
				0.39555788040161133,
				0.44316187500953674,
				-0.046305350959300995
			]
		},
		{
			"mesh":6,
			"name":"House_01_FantasyAtlas_mat_0.008",
			"rotation":[
				-0.5000001192092896,
				0.49999985098838806,
				0.4999999403953552,
				0.5000000596046448
			],
			"scale":[
				0.030488478019833565,
				0.030488478019833565,
				0.03790053352713585
			],
			"translation":[
				1.604539394378662,
				1.538536548614502,
				0.5155720710754395
			]
		},
		{
			"mesh":7,
			"name":"House_01_FantasyAtlas_mat_0.009",
			"rotation":[
				-0.5000001192092896,
				0.49999985098838806,
				0.4999999403953552,
				0.5000000596046448
			],
			"scale":[
				0.030488478019833565,
				0.030488478019833565,
				0.03790053352713585
			],
			"translation":[
				0.29935115575790405,
				2.9429256916046143,
				0.02207605168223381
			]
		}
	],
	"meshes":[
		{
			"name":"House_01_FantasyAtlas_mat_0",
			"primitives":[
				{
					"attributes":{
						"POSITION":0,
						"NORMAL":1,
						"TEXCOORD_0":2
					},
					"indices":3
				}
			]
		},
		{
			"name":"House_01_FantasyAtlas_mat_0.002",
			"primitives":[
				{
					"attributes":{
						"POSITION":4,
						"NORMAL":5,
						"TEXCOORD_0":6
					},
					"indices":7
				}
			]
		},
		{
			"name":"House_01_FantasyAtlas_mat_0.004",
			"primitives":[
				{
					"attributes":{
						"POSITION":8,
						"NORMAL":9,
						"TEXCOORD_0":10
					},
					"indices":11
				}
			]
		},
		{
			"name":"House_01_FantasyAtlas_mat_0.006",
			"primitives":[
				{
					"attributes":{
						"POSITION":12,
						"NORMAL":13,
						"TEXCOORD_0":14
					},
					"indices":15
				}
			]
		},
		{
			"name":"House_01_FantasyAtlas_mat_0.007",
			"primitives":[
				{
					"attributes":{
						"POSITION":16,
						"NORMAL":17,
						"TEXCOORD_0":18
					},
					"indices":19
				}
			]
		},
		{
			"name":"House_01_FantasyAtlas_mat_0.009",
			"primitives":[
				{
					"attributes":{
						"POSITION":20,
						"NORMAL":21,
						"TEXCOORD_0":22
					},
					"indices":23
				}
			]
		},
		{
			"name":"House_01_FantasyAtlas_mat_0.011",
			"primitives":[
				{
					"attributes":{
						"POSITION":24,
						"NORMAL":25,
						"TEXCOORD_0":26
					},
					"indices":27
				}
			]
		},
		{
			"name":"House_01_FantasyAtlas_mat_0.017",
			"primitives":[
				{
					"attributes":{
						"POSITION":28,
						"NORMAL":29,
						"TEXCOORD_0":30
					},
					"indices":31
				}
			]
		}
	],
	"accessors":[
		{
			"bufferView":0,
			"componentType":5126,
			"count":52,
			"max":[
				37.80495071411133,
				64.84869384765625,
				59.837318420410156
			],
			"min":[
				-55.41682052612305,
				-21.561481475830078,
				-40.946205139160156
			],
			"type":"VEC3"
		},
		{
			"bufferView":1,
			"componentType":5126,
			"count":52,
			"type":"VEC3"
		},
		{
			"bufferView":2,
			"componentType":5126,
			"count":52,
			"type":"VEC2"
		},
		{
			"bufferView":3,
			"componentType":5123,
			"count":120,
			"type":"SCALAR"
		},
		{
			"bufferView":4,
			"componentType":5126,
			"count":178,
			"max":[
				33.89373779296875,
				4.266056537628174,
				18.76239013671875
			],
			"min":[
				-39.04364776611328,
				-4.27581262588501,
				-22.871822357177734
			],
			"type":"VEC3"
		},
		{
			"bufferView":5,
			"componentType":5126,
			"count":178,
			"type":"VEC3"
		},
		{
			"bufferView":6,
			"componentType":5126,
			"count":178,
			"type":"VEC2"
		},
		{
			"bufferView":7,
			"componentType":5123,
			"count":258,
			"type":"SCALAR"
		},
		{
			"bufferView":8,
			"componentType":5126,
			"count":21,
			"max":[
				31.511375427246094,
				29.943756103515625,
				25.59033966064453
			],
			"min":[
				-38.774864196777344,
				-15.739990234375,
				-25.69152069091797
			],
			"type":"VEC3"
		},
		{
			"bufferView":9,
			"componentType":5126,
			"count":21,
			"type":"VEC3"
		},
		{
			"bufferView":10,
			"componentType":5126,
			"count":21,
			"type":"VEC2"
		},
		{
			"bufferView":11,
			"componentType":5123,
			"count":45,
			"type":"SCALAR"
		},
		{
			"bufferView":12,
			"componentType":5126,
			"count":510,
			"max":[
				51.917724609375,
				67.65563201904297,
				55.642730712890625
			],
			"min":[
				-57.272544860839844,
				-59.32841491699219,
				-55.30526351928711
			],
			"type":"VEC3"
		},
		{
			"bufferView":13,
			"componentType":5126,
			"count":510,
			"type":"VEC3"
		},
		{
			"bufferView":14,
			"componentType":5126,
			"count":510,
			"type":"VEC2"
		},
		{
			"bufferView":15,
			"componentType":5123,
			"count":714,
			"type":"SCALAR"
		},
		{
			"bufferView":16,
			"componentType":5126,
			"count":32,
			"max":[
				49.940223693847656,
				45.79814910888672,
				4.105995178222656
			],
			"min":[
				-49.940223693847656,
				-45.79814910888672,
				-7.953571319580078
			],
			"type":"VEC3"
		},
		{
			"bufferView":17,
			"componentType":5126,
			"count":32,
			"type":"VEC3"
		},
		{
			"bufferView":18,
			"componentType":5126,
			"count":32,
			"type":"VEC2"
		},
		{
			"bufferView":19,
			"componentType":5123,
			"count":48,
			"type":"SCALAR"
		},
		{
			"bufferView":20,
			"componentType":5126,
			"count":508,
			"max":[
				57.41371154785156,
				56.81602096557617,
				21.184612274169922
			],
			"min":[
				-55.90745544433594,
				-50.94882583618164,
				-11.778203964233398
			],
			"type":"VEC3"
		},
		{
			"bufferView":21,
			"componentType":5126,
			"count":508,
			"type":"VEC3"
		},
		{
			"bufferView":22,
			"componentType":5126,
			"count":508,
			"type":"VEC2"
		},
		{
			"bufferView":23,
			"componentType":5123,
			"count":708,
			"type":"SCALAR"
		},
		{
			"bufferView":24,
			"componentType":5126,
			"count":40,
			"max":[
				11.043890953063965,
				2.4329140186309814,
				9.970677375793457
			],
			"min":[
				-11.02846622467041,
				-0.9228294491767883,
				-26.093168258666992
			],
			"type":"VEC3"
		},
		{
			"bufferView":25,
			"componentType":5126,
			"count":40,
			"type":"VEC3"
		},
		{
			"bufferView":26,
			"componentType":5126,
			"count":40,
			"type":"VEC2"
		},
		{
			"bufferView":27,
			"componentType":5123,
			"count":108,
			"type":"SCALAR"
		},
		{
			"bufferView":28,
			"componentType":5126,
			"count":382,
			"max":[
				47.32563781738281,
				48.703182220458984,
				29.251468658447266
			],
			"min":[
				-41.70359802246094,
				-49.528324127197266,
				-15.311491966247559
			],
			"type":"VEC3"
		},
		{
			"bufferView":29,
			"componentType":5126,
			"count":382,
			"type":"VEC3"
		},
		{
			"bufferView":30,
			"componentType":5126,
			"count":382,
			"type":"VEC2"
		},
		{
			"bufferView":31,
			"componentType":5123,
			"count":816,
			"type":"SCALAR"
		}
	],
	"bufferViews":[
		{
			"buffer":0,
			"byteLength":624,
			"byteOffset":0,
			"target":34962
		},
		{
			"buffer":0,
			"byteLength":624,
			"byteOffset":624,
			"target":34962
		},
		{
			"buffer":0,
			"byteLength":416,
			"byteOffset":1248,
			"target":34962
		},
		{
			"buffer":0,
			"byteLength":240,
			"byteOffset":1664,
			"target":34963
		},
		{
			"buffer":0,
			"byteLength":2136,
			"byteOffset":1904,
			"target":34962
		},
		{
			"buffer":0,
			"byteLength":2136,
			"byteOffset":4040,
			"target":34962
		},
		{
			"buffer":0,
			"byteLength":1424,
			"byteOffset":6176,
			"target":34962
		},
		{
			"buffer":0,
			"byteLength":516,
			"byteOffset":7600,
			"target":34963
		},
		{
			"buffer":0,
			"byteLength":252,
			"byteOffset":8116,
			"target":34962
		},
		{
			"buffer":0,
			"byteLength":252,
			"byteOffset":8368,
			"target":34962
		},
		{
			"buffer":0,
			"byteLength":168,
			"byteOffset":8620,
			"target":34962
		},
		{
			"buffer":0,
			"byteLength":90,
			"byteOffset":8788,
			"target":34963
		},
		{
			"buffer":0,
			"byteLength":6120,
			"byteOffset":8880,
			"target":34962
		},
		{
			"buffer":0,
			"byteLength":6120,
			"byteOffset":15000,
			"target":34962
		},
		{
			"buffer":0,
			"byteLength":4080,
			"byteOffset":21120,
			"target":34962
		},
		{
			"buffer":0,
			"byteLength":1428,
			"byteOffset":25200,
			"target":34963
		},
		{
			"buffer":0,
			"byteLength":384,
			"byteOffset":26628,
			"target":34962
		},
		{
			"buffer":0,
			"byteLength":384,
			"byteOffset":27012,
			"target":34962
		},
		{
			"buffer":0,
			"byteLength":256,
			"byteOffset":27396,
			"target":34962
		},
		{
			"buffer":0,
			"byteLength":96,
			"byteOffset":27652,
			"target":34963
		},
		{
			"buffer":0,
			"byteLength":6096,
			"byteOffset":27748,
			"target":34962
		},
		{
			"buffer":0,
			"byteLength":6096,
			"byteOffset":33844,
			"target":34962
		},
		{
			"buffer":0,
			"byteLength":4064,
			"byteOffset":39940,
			"target":34962
		},
		{
			"buffer":0,
			"byteLength":1416,
			"byteOffset":44004,
			"target":34963
		},
		{
			"buffer":0,
			"byteLength":480,
			"byteOffset":45420,
			"target":34962
		},
		{
			"buffer":0,
			"byteLength":480,
			"byteOffset":45900,
			"target":34962
		},
		{
			"buffer":0,
			"byteLength":320,
			"byteOffset":46380,
			"target":34962
		},
		{
			"buffer":0,
			"byteLength":216,
			"byteOffset":46700,
			"target":34963
		},
		{
			"buffer":0,
			"byteLength":4584,
			"byteOffset":46916,
			"target":34962
		},
		{
			"buffer":0,
			"byteLength":4584,
			"byteOffset":51500,
			"target":34962
		},
		{
			"buffer":0,
			"byteLength":3056,
			"byteOffset":56084,
			"target":34962
		},
		{
			"buffer":0,
			"byteLength":1632,
			"byteOffset":59140,
			"target":34963
		}
	],
	"buffers":[
		{
			"byteLength":60772,
			"uri":"house_02.bin"
		}
	]
}
