{
	"asset":{
		"generator":"Khronos glTF Blender I/O v4.5.47",
		"version":"2.0"
	},
	"scene":0,
	"scenes":[
		{
			"name":"Scene",
			"nodes":[
				0,
				1,
				2,
				3,
				4,
				5,
				6,
				7,
				8
			]
		}
	],
	"nodes":[
		{
			"mesh":0,
			"name":"House_02_FantasyAtlas_mat_0.009",
			"rotation":[
				-0.5000001192092896,
				0.49999988079071045,
				0.5000000596046448,
				0.5000001192092896
			],
			"scale":[
				0.02963140979409218,
				0.02963140979409218,
				0.03683510795235634
			],
			"translation":[
				0.15657484531402588,
				3.2546792030334473,
				0.43895423412323
			]
		},
		{
			"mesh":1,
			"name":"House_02_FantasyAtlas_mat_0.008",
			"rotation":[
				-0.5000000596046448,
				0.49999985098838806,
				0.5,
				0.5000000596046448
			],
			"scale":[
				0.02963140793144703,
				0.02963140793144703,
				0.008791573345661163
			],
			"translation":[
				2.965141773223877,
				0.02147495746612549,
				0.01252797245979309
			]
		},
		{
			"mesh":2,
			"name":"House_02_FantasyAtlas_mat_0.007",
			"rotation":[
				-0.5000001192092896,
				0.49999988079071045,
				0.5000000596046448,
				0.5000001192092896
			],
			"scale":[
				0.02963140979409218,
				0.02963140979409218,
				0.03683510795235634
			],
			"translation":[
				2.5240731239318848,
				0.8882728815078735,
				-0.03271457552909851
			]
		},
		{
			"mesh":3,
			"name":"House_02_FantasyAtlas_mat_0.006",
			"rotation":[
				-0.5000001192092896,
				0.49999988079071045,
				0.5000000596046448,
				0.5000001192092896
			],
			"scale":[
				0.02963140979409218,
				0.02963140979409218,
				0.03683510795235634
			],
			"translation":[
				0.016642212867736816,
				2.8169660568237305,
				0.002697765827178955
			]
		},
		{
			"mesh":4,
			"name":"House_02_FantasyAtlas_mat_0.005",
			"rotation":[
				-0.5000001192092896,
				0.49999988079071045,
				0.5000000596046448,
				0.5000001192092896
			],
			"scale":[
				0.02963140979409218,
				0.02963140979409218,
				0.03683510795235634
			],
			"translation":[
				1.5657697916030884,
				0.41674351692199707,
				0.014208346605300903
			]
		},
		{
			"mesh":5,
			"name":"House_02_FantasyAtlas_mat_0.004",
			"rotation":[
				-0.5000001192092896,
				0.49999988079071045,
				0.5000000596046448,
				0.5000001192092896
			],
			"scale":[
				0.02963140979409218,
				0.02963140979409218,
				0.03683510795235634
			],
			"translation":[
				0.2363649606704712,
				0.40717941522598267,
				-0.006076723337173462
			]
		},
		{
			"mesh":6,
			"name":"House_02_FantasyAtlas_mat_0.003",
			"rotation":[
				-0.5000001192092896,
				0.49999988079071045,
				0.5000000596046448,
				0.5000001192092896
			],
			"scale":[
				0.02963140979409218,
				0.02963140979409218,
				0.03683510795235634
			],
			"translation":[
				0.2120577096939087,
				2.015613555908203,
				-0.3829321265220642
			]
		},
		{
			"mesh":7,
			"name":"House_02_FantasyAtlas_mat_0.002",
			"rotation":[
				-0.5000001192092896,
				0.49999988079071045,
				0.5000000596046448,
				0.5000001192092896
			],
			"scale":[
				0.02963140979409218,
				0.02963140979409218,
				0.03683510795235634
			],
			"translation":[
				2.498995304107666,
				0.9831812381744385,
				0.012760639190673828
			]
		},
		{
			"mesh":8,
			"name":"House_02_FantasyAtlas_mat_0",
			"rotation":[
				-0.5000001192092896,
				0.49999988079071045,
				0.5000000596046448,
				0.5000001192092896
			],
			"scale":[
				0.02963140979409218,
				0.02963140979409218,
				0.03683510795235634
			],
			"translation":[
				-0.07348954677581787,
				1.9393061399459839,
				0.06704041361808777
			]
		}
	],
	"meshes":[
		{
			"name":"House_02_FantasyAtlas_mat_0.017",
			"primitives":[
				{
					"attributes":{
						"POSITION":0,
						"NORMAL":1,
						"TEXCOORD_0":2
					},
					"indices":3
				}
			]
		},
		{
			"name":"House_02_FantasyAtlas_mat_0.015",
			"primitives":[
				{
					"attributes":{
						"POSITION":4,
						"NORMAL":5,
						"TEXCOORD_0":6
					},
					"indices":7
				}
			]
		},
		{
			"name":"House_02_FantasyAtlas_mat_0.014",
			"primitives":[
				{
					"attributes":{
						"POSITION":8,
						"NORMAL":9,
						"TEXCOORD_0":10
					},
					"indices":11
				}
			]
		},
		{
			"name":"House_02_FantasyAtlas_mat_0.012",
			"primitives":[
				{
					"attributes":{
						"POSITION":12,
						"NORMAL":13,
						"TEXCOORD_0":14
					},
					"indices":15
				}
			]
		},
		{
			"name":"House_02_FantasyAtlas_mat_0.010",
			"primitives":[
				{
					"attributes":{
						"POSITION":16,
						"NORMAL":17,
						"TEXCOORD_0":18
					},
					"indices":19
				}
			]
		},
		{
			"name":"House_02_FantasyAtlas_mat_0.009",
			"primitives":[
				{
					"attributes":{
						"POSITION":20,
						"NORMAL":21,
						"TEXCOORD_0":22
					},
					"indices":23
				}
			]
		},
		{
			"name":"House_02_FantasyAtlas_mat_0.003",
			"primitives":[
				{
					"attributes":{
						"POSITION":24,
						"NORMAL":25,
						"TEXCOORD_0":26
					},
					"indices":27
				}
			]
		},
		{
			"name":"House_02_FantasyAtlas_mat_0.026",
			"primitives":[
				{
					"attributes":{
						"POSITION":28,
						"NORMAL":29,
						"TEXCOORD_0":30
					},
					"indices":31
				}
			]
		},
		{
			"name":"House_02_FantasyAtlas_mat_0",
			"primitives":[
				{
					"attributes":{
						"POSITION":32,
						"NORMAL":33,
						"TEXCOORD_0":34
					},
					"indices":35
				}
			]
		}
	],
	"accessors":[
		{
			"bufferView":0,
			"componentType":5126,
			"count":189,
			"max":[
				54.506080627441406,
				75.69630432128906,
				28.808807373046875
			],
			"min":[
				-32.61150360107422,
				-76.63533020019531,
				-68.51231384277344
			],
			"type":"VEC3"
		},
		{
			"bufferView":1,
			"componentType":5126,
			"count":189,
			"type":"VEC3"
		},
		{
			"bufferView":2,
			"componentType":5126,
			"count":189,
			"type":"VEC2"
		},
		{
			"bufferView":3,
			"componentType":5123,
			"count":255,
			"type":"SCALAR"
		},
		{
			"bufferView":4,
			"componentType":5126,
			"count":46,
			"max":[
				14.763524055480957,
				16.250804901123047,
				1.213089942932129
			],
			"min":[
				-14.747828483581543,
				-9.969738006591797,
				-2.426180839538574
			],
			"type":"VEC3"
		},
		{
			"bufferView":5,
			"componentType":5126,
			"count":46,
			"type":"VEC3"
		},
		{
			"bufferView":6,
			"componentType":5126,
			"count":46,
			"type":"VEC2"
		},
		{
			"bufferView":7,
			"componentType":5123,
			"count":78,
			"type":"SCALAR"
		},
		{
			"bufferView":8,
			"componentType":5126,
			"count":96,
			"max":[
				15.51283073425293,
				3.4850616455078125,
				17.566551208496094
			],
			"min":[
				-18.55082893371582,
				-1.6257247924804688,
				-23.99156379699707
			],
			"type":"VEC3"
		},
		{
			"bufferView":9,
			"componentType":5126,
			"count":96,
			"type":"VEC3"
		},
		{
			"bufferView":10,
			"componentType":5126,
			"count":96,
			"type":"VEC2"
		},
		{
			"bufferView":11,
			"componentType":5123,
			"count":144,
			"type":"SCALAR"
		},
		{
			"bufferView":12,
			"componentType":5126,
			"count":775,
			"max":[
				50.37916564941406,
				79.08448791503906,
				29.480562210083008
			],
			"min":[
				-51.02696228027344,
				-81.23859405517578,
				-14.601566314697266
			],
			"type":"VEC3"
		},
		{
			"bufferView":13,
			"componentType":5126,
			"count":775,
			"type":"VEC3"
		},
		{
			"bufferView":14,
			"componentType":5126,
			"count":775,
			"type":"VEC2"
		},
		{
			"bufferView":15,
			"componentType":5123,
			"count":1089,
			"type":"SCALAR"
		},
		{
			"bufferView":16,
			"componentType":5126,
			"count":32,
			"max":[
				46.5292854309082,
				129.9199981689453,
				16.51492691040039
			],
			"min":[
				-46.6356315612793,
				-28.06988525390625,
				-10.896991729736328
			],
			"type":"VEC3"
		},
		{
			"bufferView":17,
			"componentType":5126,
			"count":32,
			"type":"VEC3"
		},
		{
			"bufferView":18,
			"componentType":5126,
			"count":32,
			"type":"VEC2"
		},
		{
			"bufferView":19,
			"componentType":5123,
			"count":48,
			"type":"SCALAR"
		},
		{
			"bufferView":20,
			"componentType":5126,
			"count":508,
			"max":[
				53.45802307128906,
				93.7214126586914,
				8.204675674438477
			],
			"min":[
				-54.38407897949219,
				-82.71173095703125,
				-10.813444137573242
			],
			"type":"VEC3"
		},
		{
			"bufferView":21,
			"componentType":5126,
			"count":508,
			"type":"VEC3"
		},
		{
			"bufferView":22,
			"componentType":5126,
			"count":508,
			"type":"VEC2"
		},
		{
			"bufferView":23,
			"componentType":5123,
			"count":708,
			"type":"SCALAR"
		},
		{
			"bufferView":24,
			"componentType":5126,
			"count":727,
			"max":[
				43.8794059753418,
				90.4568862915039,
				56.45978546142578
			],
			"min":[
				-70.55564880371094,
				-83.48200988769531,
				-54.479251861572266
			],
			"type":"VEC3"
		},
		{
			"bufferView":25,
			"componentType":5126,
			"count":727,
			"type":"VEC3"
		},
		{
			"bufferView":26,
			"componentType":5126,
			"count":727,
			"type":"VEC2"
		},
		{
			"bufferView":27,
			"componentType":5123,
			"count":1065,
			"type":"SCALAR"
		},
		{
			"bufferView":28,
			"componentType":5126,
			"count":76,
			"max":[
				11.00397777557373,
				2.416513681411743,
				9.941956520080566
			],
			"min":[
				-11.05107593536377,
				-0.9166086316108704,
				-26.098552703857422
			],
			"type":"VEC3"
		},
		{
			"bufferView":29,
			"componentType":5126,
			"count":76,
			"type":"VEC3"
		},
		{
			"bufferView":30,
			"componentType":5126,
			"count":76,
			"type":"VEC2"
		},
		{
			"bufferView":31,
			"componentType":5123,
			"count":108,
			"type":"SCALAR"
		},
		{
			"bufferView":32,
			"componentType":5126,
			"count":104,
			"max":[
				45.015785217285156,
				71.04304504394531,
				59.470550537109375
			],
			"min":[
				-41.399192810058594,
				-80.28059387207031,
				-52.40764236450195
			],
			"type":"VEC3"
		},
		{
			"bufferView":33,
			"componentType":5126,
			"count":104,
			"type":"VEC3"
		},
		{
			"bufferView":34,
			"componentType":5126,
			"count":104,
			"type":"VEC2"
		},
		{
			"bufferView":35,
			"componentType":5123,
			"count":123,
			"type":"SCALAR"
		}
	],
	"bufferViews":[
		{
			"buffer":0,
			"byteLength":2268,
			"byteOffset":0,
			"target":34962
		},
		{
			"buffer":0,
			"byteLength":2268,
			"byteOffset":2268,
			"target":34962
		},
		{
			"buffer":0,
			"byteLength":1512,
			"byteOffset":4536,
			"target":34962
		},
		{
			"buffer":0,
			"byteLength":510,
			"byteOffset":6048,
			"target":34963
		},
		{
			"buffer":0,
			"byteLength":552,
			"byteOffset":6560,
			"target":34962
		},
		{
			"buffer":0,
			"byteLength":552,
			"byteOffset":7112,
			"target":34962
		},
		{
			"buffer":0,
			"byteLength":368,
			"byteOffset":7664,
			"target":34962
		},
		{
			"buffer":0,
			"byteLength":156,
			"byteOffset":8032,
			"target":34963
		},
		{
			"buffer":0,
			"byteLength":1152,
			"byteOffset":8188,
			"target":34962
		},
		{
			"buffer":0,
			"byteLength":1152,
			"byteOffset":9340,
			"target":34962
		},
		{
			"buffer":0,
			"byteLength":768,
			"byteOffset":10492,
			"target":34962
		},
		{
			"buffer":0,
			"byteLength":288,
			"byteOffset":11260,
			"target":34963
		},
		{
			"buffer":0,
			"byteLength":9300,
			"byteOffset":11548,
			"target":34962
		},
		{
			"buffer":0,
			"byteLength":9300,
			"byteOffset":20848,
			"target":34962
		},
		{
			"buffer":0,
			"byteLength":6200,
			"byteOffset":30148,
			"target":34962
		},
		{
			"buffer":0,
			"byteLength":2178,
			"byteOffset":36348,
			"target":34963
		},
		{
			"buffer":0,
			"byteLength":384,
			"byteOffset":38528,
			"target":34962
		},
		{
			"buffer":0,
			"byteLength":384,
			"byteOffset":38912,
			"target":34962
		},
		{
			"buffer":0,
			"byteLength":256,
			"byteOffset":39296,
			"target":34962
		},
		{
			"buffer":0,
			"byteLength":96,
			"byteOffset":39552,
			"target":34963
		},
		{
			"buffer":0,
			"byteLength":6096,
			"byteOffset":39648,
			"target":34962
		},
		{
			"buffer":0,
			"byteLength":6096,
			"byteOffset":45744,
			"target":34962
		},
		{
			"buffer":0,
			"byteLength":4064,
			"byteOffset":51840,
			"target":34962
		},
		{
			"buffer":0,
			"byteLength":1416,
			"byteOffset":55904,
			"target":34963
		},
		{
			"buffer":0,
			"byteLength":8724,
			"byteOffset":57320,
			"target":34962
		},
		{
			"buffer":0,
			"byteLength":8724,
			"byteOffset":66044,
			"target":34962
		},
		{
			"buffer":0,
			"byteLength":5816,
			"byteOffset":74768,
			"target":34962
		},
		{
			"buffer":0,
			"byteLength":2130,
			"byteOffset":80584,
			"target":34963
		},
		{
			"buffer":0,
			"byteLength":912,
			"byteOffset":82716,
			"target":34962
		},
		{
			"buffer":0,
			"byteLength":912,
			"byteOffset":83628,
			"target":34962
		},
		{
			"buffer":0,
			"byteLength":608,
			"byteOffset":84540,
			"target":34962
		},
		{
			"buffer":0,
			"byteLength":216,
			"byteOffset":85148,
			"target":34963
		},
		{
			"buffer":0,
			"byteLength":1248,
			"byteOffset":85364,
			"target":34962
		},
		{
			"buffer":0,
			"byteLength":1248,
			"byteOffset":86612,
			"target":34962
		},
		{
			"buffer":0,
			"byteLength":832,
			"byteOffset":87860,
			"target":34962
		},
		{
			"buffer":0,
			"byteLength":246,
			"byteOffset":88692,
			"target":34963
		}
	],
	"buffers":[
		{
			"byteLength":88940,
			"uri":"house_01.bin"
		}
	]
}
