{
	"asset":{
		"generator":"Khronos glTF Blender I/O v4.5.47",
		"version":"2.0"
	},
	"scene":0,
	"scenes":[
		{
			"name":"Scene",
			"nodes":[
				0,
				1,
				2,
				3,
				4
			]
		}
	],
	"nodes":[
		{
			"mesh":0,
			"name":"Cylinder.010",
			"translation":[
				-0.0009839424164965749,
				7.574248790740967,
				-2.159261157430592e-06
			]
		},
		{
			"mesh":1,
			"name":"Cylinder.006",
			"translation":[
				0.07931318134069443,
				4.183531761169434,
				-0.022782839834690094
			]
		},
		{
			"mesh":2,
			"name":"Cylinder.007",
			"translation":[
				0.8157722353935242,
				1.823603868484497,
				0
			]
		},
		{
			"mesh":3,
			"name":"Cylinder.008",
			"translation":[
				0.6388505697250366,
				1.9543333053588867,
				0.0002524685114622116
			]
		},
		{
			"mesh":4,
			"name":"Cylinder.009",
			"translation":[
				0.0036432850174605846,
				5.198102951049805,
				0.0017327293753623962
			]
		}
	],
	"meshes":[
		{
			"name":"Cylinder.016",
			"primitives":[
				{
					"attributes":{
						"POSITION":0,
						"NORMAL":1,
						"TEXCOORD_0":2
					},
					"indices":3
				}
			]
		},
		{
			"name":"Cylinder.034",
			"primitives":[
				{
					"attributes":{
						"POSITION":4,
						"NORMAL":5,
						"TEXCOORD_0":6
					},
					"indices":7
				}
			]
		},
		{
			"name":"Cylinder.035",
			"primitives":[
				{
					"attributes":{
						"POSITION":8,
						"NORMAL":9,
						"TEXCOORD_0":10
					},
					"indices":11
				}
			]
		},
		{
			"name":"Cylinder.036",
			"primitives":[
				{
					"attributes":{
						"POSITION":12,
						"NORMAL":13,
						"TEXCOORD_0":14
					},
					"indices":15
				}
			]
		},
		{
			"name":"Cylinder.037",
			"primitives":[
				{
					"attributes":{
						"POSITION":16,
						"NORMAL":17,
						"TEXCOORD_0":18
					},
					"indices":19
				}
			]
		}
	],
	"accessors":[
		{
			"bufferView":0,
			"componentType":5126,
			"count":72,
			"max":[
				0.15641823410987854,
				0.7660930156707764,
				0.15641823410987854
			],
			"min":[
				-0.15641826391220093,
				-0.049262791872024536,
				-0.15641823410987854
			],
			"type":"VEC3"
		},
		{
			"bufferView":1,
			"componentType":5126,
			"count":72,
			"type":"VEC3"
		},
		{
			"bufferView":2,
			"componentType":5126,
			"count":72,
			"type":"VEC2"
		},
		{
			"bufferView":3,
			"componentType":5123,
			"count":120,
			"type":"SCALAR"
		},
		{
			"bufferView":4,
			"componentType":5126,
			"count":494,
			"max":[
				2.213271141052246,
				3.341454029083252,
				2.3239147663116455
			],
			"min":[
				-2.5107057094573975,
				-3.936448812484741,
				-2.2783477306365967
			],
			"type":"VEC3"
		},
		{
			"bufferView":5,
			"componentType":5126,
			"count":494,
			"type":"VEC3"
		},
		{
			"bufferView":6,
			"componentType":5126,
			"count":494,
			"type":"VEC2"
		},
		{
			"bufferView":7,
			"componentType":5123,
			"count":960,
			"type":"SCALAR"
		},
		{
			"bufferView":8,
			"componentType":5126,
			"count":26,
			"max":[
				1.3052361011505127,
				1.206871509552002,
				2.250641107559204
			],
			"min":[
				-1.4324299097061157,
				-1.3632628917694092,
				-2.250640392303467
			],
			"type":"VEC3"
		},
		{
			"bufferView":9,
			"componentType":5126,
			"count":26,
			"type":"VEC3"
		},
		{
			"bufferView":10,
			"componentType":5126,
			"count":26,
			"type":"VEC2"
		},
		{
			"bufferView":11,
			"componentType":5123,
			"count":60,
			"type":"SCALAR"
		},
		{
			"bufferView":12,
			"componentType":5126,
			"count":633,
			"max":[
				2.0140650272369385,
				1.8400437831878662,
				2.6435656547546387
			],
			"min":[
				-3.542051315307617,
				-1.9543333053588867,
				-2.6404480934143066
			],
			"type":"VEC3"
		},
		{
			"bufferView":13,
			"componentType":5126,
			"count":633,
			"type":"VEC3"
		},
		{
			"bufferView":14,
			"componentType":5126,
			"count":633,
			"type":"VEC2"
		},
		{
			"bufferView":15,
			"componentType":5123,
			"count":1536,
			"type":"SCALAR"
		},
		{
			"bufferView":16,
			"componentType":5126,
			"count":11297,
			"max":[
				2.544205904006958,
				2.2078959941864014,
				2.545799732208252
			],
			"min":[
				-2.5457587242126465,
				-1.631121039390564,
				-2.5479586124420166
			],
			"type":"VEC3"
		},
		{
			"bufferView":17,
			"componentType":5126,
			"count":11297,
			"type":"VEC3"
		},
		{
			"bufferView":18,
			"componentType":5126,
			"count":11297,
			"type":"VEC2"
		},
		{
			"bufferView":19,
			"componentType":5123,
			"count":16998,
			"type":"SCALAR"
		}
	],
	"bufferViews":[
		{
			"buffer":0,
			"byteLength":864,
			"byteOffset":0,
			"target":34962
		},
		{
			"buffer":0,
			"byteLength":864,
			"byteOffset":864,
			"target":34962
		},
		{
			"buffer":0,
			"byteLength":576,
			"byteOffset":1728,
			"target":34962
		},
		{
			"buffer":0,
			"byteLength":240,
			"byteOffset":2304,
			"target":34963
		},
		{
			"buffer":0,
			"byteLength":5928,
			"byteOffset":2544,
			"target":34962
		},
		{
			"buffer":0,
			"byteLength":5928,
			"byteOffset":8472,
			"target":34962
		},
		{
			"buffer":0,
			"byteLength":3952,
			"byteOffset":14400,
			"target":34962
		},
		{
			"buffer":0,
			"byteLength":1920,
			"byteOffset":18352,
			"target":34963
		},
		{
			"buffer":0,
			"byteLength":312,
			"byteOffset":20272,
			"target":34962
		},
		{
			"buffer":0,
			"byteLength":312,
			"byteOffset":20584,
			"target":34962
		},
		{
			"buffer":0,
			"byteLength":208,
			"byteOffset":20896,
			"target":34962
		},
		{
			"buffer":0,
			"byteLength":120,
			"byteOffset":21104,
			"target":34963
		},
		{
			"buffer":0,
			"byteLength":7596,
			"byteOffset":21224,
			"target":34962
		},
		{
			"buffer":0,
			"byteLength":7596,
			"byteOffset":28820,
			"target":34962
		},
		{
			"buffer":0,
			"byteLength":5064,
			"byteOffset":36416,
			"target":34962
		},
		{
			"buffer":0,
			"byteLength":3072,
			"byteOffset":41480,
			"target":34963
		},
		{
			"buffer":0,
			"byteLength":135564,
			"byteOffset":44552,
			"target":34962
		},
		{
			"buffer":0,
			"byteLength":135564,
			"byteOffset":180116,
			"target":34962
		},
		{
			"buffer":0,
			"byteLength":90376,
			"byteOffset":315680,
			"target":34962
		},
		{
			"buffer":0,
			"byteLength":33996,
			"byteOffset":406056,
			"target":34963
		}
	],
	"buffers":[
		{
			"byteLength":440052,
			"uri":"straw_house.bin"
		}
	]
}
