{
	"asset":{
		"generator":"Khronos glTF Blender I/O v4.5.47",
		"version":"2.0"
	},
	"scene":0,
	"scenes":[
		{
			"name":"Scene",
			"nodes":[
				0,
				1,
				2,
				3,
				4
			]
		}
	],
	"nodes":[
		{
			"mesh":0,
			"name":"windmill",
			"translation":[
				-0.7530148029327393,
				6.164786338806152,
				0.0026950512547045946
			]
		},
		{
			"mesh":1,
			"name":"windmill.001",
			"translation":[
				0.16166283190250397,
				7.828673362731934,
				0
			]
		},
		{
			"mesh":2,
			"name":"windmill.002",
			"translation":[
				0.10402724891901016,
				7.958348274230957,
				0.001623759395442903
			]
		},
		{
			"mesh":3,
			"name":"windmill.003",
			"translation":[
				3.542654275894165,
				14.08825397491455,
				0.002370817121118307
			]
		},
		{
			"mesh":4,
			"name":"windmill.004",
			"translation":[
				3.538623332977295,
				14.088252067565918,
				0.0023712513502687216
			]
		}
	],
	"meshes":[
		{
			"name":"Cylinder.048",
			"primitives":[
				{
					"attributes":{
						"POSITION":0,
						"NORMAL":1,
						"TEXCOORD_0":2
					},
					"indices":3
				}
			]
		},
		{
			"name":"Cylinder.030",
			"primitives":[
				{
					"attributes":{
						"POSITION":4,
						"NORMAL":5,
						"TEXCOORD_0":6
					},
					"indices":7
				}
			]
		},
		{
			"name":"Cylinder.031",
			"primitives":[
				{
					"attributes":{
						"POSITION":8,
						"NORMAL":9,
						"TEXCOORD_0":10
					},
					"indices":11
				}
			]
		},
		{
			"name":"Cylinder.032",
			"primitives":[
				{
					"attributes":{
						"POSITION":12,
						"NORMAL":13,
						"TEXCOORD_0":14
					},
					"indices":15
				}
			]
		},
		{
			"name":"Cylinder.033",
			"primitives":[
				{
					"attributes":{
						"POSITION":16,
						"NORMAL":17,
						"TEXCOORD_0":18
					},
					"indices":19
				}
			]
		}
	],
	"accessors":[
		{
			"bufferView":0,
			"componentType":5126,
			"count":76,
			"max":[
				1.9811108112335205,
				0.5934361815452576,
				2.433215856552124
			],
			"min":[
				-1.6840884685516357,
				-0.6920958161354065,
				-2.439404010772705
			],
			"type":"VEC3"
		},
		{
			"bufferView":1,
			"componentType":5126,
			"count":76,
			"type":"VEC3"
		},
		{
			"bufferView":2,
			"componentType":5126,
			"count":76,
			"type":"VEC2"
		},
		{
			"bufferView":3,
			"componentType":5123,
			"count":180,
			"type":"SCALAR"
		},
		{
			"bufferView":4,
			"componentType":5126,
			"count":279,
			"max":[
				2.771919012069702,
				4.12830924987793,
				2.933581829071045
			],
			"min":[
				-3.0952446460723877,
				-7.3961334228515625,
				-2.933581829071045
			],
			"type":"VEC3"
		},
		{
			"bufferView":5,
			"componentType":5126,
			"count":279,
			"type":"VEC3"
		},
		{
			"bufferView":6,
			"componentType":5126,
			"count":279,
			"type":"VEC2"
		},
		{
			"bufferView":7,
			"componentType":5123,
			"count":456,
			"type":"SCALAR"
		},
		{
			"bufferView":8,
			"componentType":5126,
			"count":5228,
			"max":[
				3.740903615951538,
				8.766655921936035,
				3.8433070182800293
			],
			"min":[
				-3.948958158493042,
				-8.086384773254395,
				-3.846554756164551
			],
			"type":"VEC3"
		},
		{
			"bufferView":9,
			"componentType":5126,
			"count":5228,
			"type":"VEC3"
		},
		{
			"bufferView":10,
			"componentType":5126,
			"count":5228,
			"type":"VEC2"
		},
		{
			"bufferView":11,
			"componentType":5123,
			"count":8544,
			"type":"SCALAR"
		},
		{
			"bufferView":12,
			"componentType":5126,
			"count":3552,
			"max":[
				0.0987042561173439,
				6.77225399017334,
				6.772256374359131
			],
			"min":[
				-0.09799941629171371,
				-6.772253036499023,
				-6.772255897521973
			],
			"type":"VEC3"
		},
		{
			"bufferView":13,
			"componentType":5126,
			"count":3552,
			"type":"VEC3"
		},
		{
			"bufferView":14,
			"componentType":5126,
			"count":3552,
			"type":"VEC2"
		},
		{
			"bufferView":15,
			"componentType":5123,
			"count":5328,
			"type":"SCALAR"
		},
		{
			"bufferView":16,
			"componentType":5126,
			"count":280,
			"max":[
				0.20438338816165924,
				6.82944393157959,
				6.829443454742432
			],
			"min":[
				-0.1956169456243515,
				-6.829438209533691,
				-6.82944393157959
			],
			"type":"VEC3"
		},
		{
			"bufferView":17,
			"componentType":5126,
			"count":280,
			"type":"VEC3"
		},
		{
			"bufferView":18,
			"componentType":5126,
			"count":280,
			"type":"VEC2"
		},
		{
			"bufferView":19,
			"componentType":5123,
			"count":420,
			"type":"SCALAR"
		}
	],
	"bufferViews":[
		{
			"buffer":0,
			"byteLength":912,
			"byteOffset":0,
			"target":34962
		},
		{
			"buffer":0,
			"byteLength":912,
			"byteOffset":912,
			"target":34962
		},
		{
			"buffer":0,
			"byteLength":608,
			"byteOffset":1824,
			"target":34962
		},
		{
			"buffer":0,
			"byteLength":360,
			"byteOffset":2432,
			"target":34963
		},
		{
			"buffer":0,
			"byteLength":3348,
			"byteOffset":2792,
			"target":34962
		},
		{
			"buffer":0,
			"byteLength":3348,
			"byteOffset":6140,
			"target":34962
		},
		{
			"buffer":0,
			"byteLength":2232,
			"byteOffset":9488,
			"target":34962
		},
		{
			"buffer":0,
			"byteLength":912,
			"byteOffset":11720,
			"target":34963
		},
		{
			"buffer":0,
			"byteLength":62736,
			"byteOffset":12632,
			"target":34962
		},
		{
			"buffer":0,
			"byteLength":62736,
			"byteOffset":75368,
			"target":34962
		},
		{
			"buffer":0,
			"byteLength":41824,
			"byteOffset":138104,
			"target":34962
		},
		{
			"buffer":0,
			"byteLength":17088,
			"byteOffset":179928,
			"target":34963
		},
		{
			"buffer":0,
			"byteLength":42624,
			"byteOffset":197016,
			"target":34962
		},
		{
			"buffer":0,
			"byteLength":42624,
			"byteOffset":239640,
			"target":34962
		},
		{
			"buffer":0,
			"byteLength":28416,
			"byteOffset":282264,
			"target":34962
		},
		{
			"buffer":0,
			"byteLength":10656,
			"byteOffset":310680,
			"target":34963
		},
		{
			"buffer":0,
			"byteLength":3360,
			"byteOffset":321336,
			"target":34962
		},
		{
			"buffer":0,
			"byteLength":3360,
			"byteOffset":324696,
			"target":34962
		},
		{
			"buffer":0,
			"byteLength":2240,
			"byteOffset":328056,
			"target":34962
		},
		{
			"buffer":0,
			"byteLength":840,
			"byteOffset":330296,
			"target":34963
		}
	],
	"buffers":[
		{
			"byteLength":331136,
			"uri":"windmill.bin"
		}
	]
}
