{
	"asset":{
		"generator":"Khronos glTF Blender I/O v4.5.47",
		"version":"2.0"
	},
	"scene":0,
	"scenes":[
		{
			"name":"Scene",
			"nodes":[
				0,
				1
			]
		}
	],
	"nodes":[
		{
			"mesh":0,
			"name":"3D_Fireaxe_1",
			"rotation":[
				0.7071068286895752,
				0,
				0,
				0.7071068286895752
			]
		},
		{
			"mesh":1,
			"name":"3D_Fireaxe_1.001",
			"rotation":[
				0.7071068286895752,
				0,
				0,
				0.7071068286895752
			]
		}
	],
	"meshes":[
		{
			"name":"3D_Fireaxe_1",
			"primitives":[
				{
					"attributes":{
						"POSITION":0,
						"NORMAL":1,
						"TEXCOORD_0":2
					},
					"indices":3
				}
			]
		},
		{
			"name":"3D_Fireaxe_1.001",
			"primitives":[
				{
					"attributes":{
						"POSITION":4,
						"NORMAL":5,
						"TEXCOORD_0":6
					},
					"indices":7
				}
			]
		}
	],
	"accessors":[
		{
			"bufferView":0,
			"componentType":5126,
			"count":104,
			"max":[
				0.07739999890327454,
				0.008592000231146812,
				0.017872000113129616
			],
			"min":[
				-0.029830999672412872,
				-0.49316298961639404,
				-0.017998000606894493
			],
			"type":"VEC3"
		},
		{
			"bufferView":1,
			"componentType":5126,
			"count":104,
			"type":"VEC3"
		},
		{
			"bufferView":2,
			"componentType":5126,
			"count":104,
			"type":"VEC2"
		},
		{
			"bufferView":3,
			"componentType":5123,
			"count":120,
			"type":"SCALAR"
		},
		{
			"bufferView":4,
			"componentType":5126,
			"count":460,
			"max":[
				0.18151099979877472,
				-0.45289701223373413,
				0.03171699866652489
			],
			"min":[
				-0.14862999320030212,
				-0.6001790165901184,
				-0.03206299990415573
			],
			"type":"VEC3"
		},
		{
			"bufferView":5,
			"componentType":5126,
			"count":460,
			"type":"VEC3"
		},
		{
			"bufferView":6,
			"componentType":5126,
			"count":460,
			"type":"VEC2"
		},
		{
			"bufferView":7,
			"componentType":5123,
			"count":672,
			"type":"SCALAR"
		}
	],
	"bufferViews":[
		{
			"buffer":0,
			"byteLength":1248,
			"byteOffset":0,
			"target":34962
		},
		{
			"buffer":0,
			"byteLength":1248,
			"byteOffset":1248,
			"target":34962
		},
		{
			"buffer":0,
			"byteLength":832,
			"byteOffset":2496,
			"target":34962
		},
		{
			"buffer":0,
			"byteLength":240,
			"byteOffset":3328,
			"target":34963
		},
		{
			"buffer":0,
			"byteLength":5520,
			"byteOffset":3568,
			"target":34962
		},
		{
			"buffer":0,
			"byteLength":5520,
			"byteOffset":9088,
			"target":34962
		},
		{
			"buffer":0,
			"byteLength":3680,
			"byteOffset":14608,
			"target":34962
		},
		{
			"buffer":0,
			"byteLength":1344,
			"byteOffset":18288,
			"target":34963
		}
	],
	"buffers":[
		{
			"byteLength":19632,
			"uri":"axe.bin"
		}
	]
}
