{
	"asset":{
		"generator":"Khronos glTF Blender I/O v4.5.47",
		"version":"2.0"
	},
	"scene":0,
	"scenes":[
		{
			"name":"Scene",
			"nodes":[
				0
			]
		}
	],
	"nodes":[
		{
			"mesh":0,
			"name":"candle_01",
			"rotation":[
				0.7071068286895752,
				0,
				0,
				0.7071068286895752
			]
		}
	],
	"meshes":[
		{
			"name":"Aset_misc__S_tkekcg0hw_LOD0",
			"primitives":[
				{
					"attributes":{
						"POSITION":0,
						"NORMAL":1,
						"TEXCOORD_0":2
					},
					"indices":3
				}
			]
		}
	],
	"accessors":[
		{
			"bufferView":0,
			"componentType":5126,
			"count":322,
			"max":[
				0.038465000689029694,
				0.03774699941277504,
				0.000534999999217689
			],
			"min":[
				-0.03799299895763397,
				-0.03853899985551834,
				-0.2070380002260208
			],
			"type":"VEC3"
		},
		{
			"bufferView":1,
			"componentType":5126,
			"count":322,
			"type":"VEC3"
		},
		{
			"bufferView":2,
			"componentType":5126,
			"count":322,
			"type":"VEC2"
		},
		{
			"bufferView":3,
			"componentType":5123,
			"count":330,
			"type":"SCALAR"
		}
	],
	"bufferViews":[
		{
			"buffer":0,
			"byteLength":3864,
			"byteOffset":0,
			"target":34962
		},
		{
			"buffer":0,
			"byteLength":3864,
			"byteOffset":3864,
			"target":34962
		},
		{
			"buffer":0,
			"byteLength":2576,
			"byteOffset":7728,
			"target":34962
		},
		{
			"buffer":0,
			"byteLength":660,
			"byteOffset":10304,
			"target":34963
		}
	],
	"buffers":[
		{
			"byteLength":10964,
			"uri":"candle_01.bin"
		}
	]
}
