{
	"asset":{
		"generator":"Khronos glTF Blender I/O v4.5.47",
		"version":"2.0"
	},
	"scene":0,
	"scenes":[
		{
			"name":"Scene",
			"nodes":[
				0
			]
		}
	],
	"nodes":[
		{
			"mesh":0,
			"name":"rock_01",
			"rotation":[
				0.7071068286895752,
				0,
				0,
				0.7071068286895752
			]
		}
	],
	"meshes":[
		{
			"name":"rock_01",
			"primitives":[
				{
					"attributes":{
						"POSITION":0,
						"NORMAL":1,
						"TEXCOORD_0":2
					},
					"indices":3
				}
			]
		}
	],
	"accessors":[
		{
			"bufferView":0,
			"componentType":5126,
			"count":724,
			"max":[
				0.20041300356388092,
				0.19338400661945343,
				0.06519299745559692
			],
			"min":[
				-0.19669599831104279,
				-0.14830200374126434,
				-0.28244999051094055
			],
			"type":"VEC3"
		},
		{
			"bufferView":1,
			"componentType":5126,
			"count":724,
			"type":"VEC3"
		},
		{
			"bufferView":2,
			"componentType":5126,
			"count":724,
			"type":"VEC2"
		},
		{
			"bufferView":3,
			"componentType":5123,
			"count":744,
			"type":"SCALAR"
		}
	],
	"bufferViews":[
		{
			"buffer":0,
			"byteLength":8688,
			"byteOffset":0,
			"target":34962
		},
		{
			"buffer":0,
			"byteLength":8688,
			"byteOffset":8688,
			"target":34962
		},
		{
			"buffer":0,
			"byteLength":5792,
			"byteOffset":17376,
			"target":34962
		},
		{
			"buffer":0,
			"byteLength":1488,
			"byteOffset":23168,
			"target":34963
		}
	],
	"buffers":[
		{
			"byteLength":24656,
			"uri":"rock_02.bin"
		}
	]
}
