{
	"asset":{
		"generator":"Khronos glTF Blender I/O v4.5.47",
		"version":"2.0"
	},
	"scene":0,
	"scenes":[
		{
			"name":"Scene",
			"nodes":[
				0,
				1
			]
		}
	],
	"nodes":[
		{
			"mesh":0,
			"name":"tree_03"
		},
		{
			"mesh":1,
			"name":"tree_03A"
		}
	],
	"meshes":[
		{
			"name":"Cone",
			"primitives":[
				{
					"attributes":{
						"POSITION":0,
						"NORMAL":1,
						"TEXCOORD_0":2
					},
					"indices":3
				}
			]
		},
		{
			"name":"Cone.001",
			"primitives":[
				{
					"attributes":{
						"POSITION":4,
						"NORMAL":5,
						"TEXCOORD_0":6
					},
					"indices":7
				}
			]
		}
	],
	"accessors":[
		{
			"bufferView":0,
			"componentType":5126,
			"count":684,
			"max":[
				2.57909893989563,
				7.672522068023682,
				3.1284892559051514
			],
			"min":[
				-2.9979264736175537,
				2.9621565341949463,
				-2.4547789096832275
			],
			"type":"VEC3"
		},
		{
			"bufferView":1,
			"componentType":5126,
			"count":684,
			"type":"VEC3"
		},
		{
			"bufferView":2,
			"componentType":5126,
			"count":684,
			"type":"VEC2"
		},
		{
			"bufferView":3,
			"componentType":5123,
			"count":750,
			"type":"SCALAR"
		},
		{
			"bufferView":4,
			"componentType":5126,
			"count":662,
			"max":[
				2.2112715244293213,
				4.850610733032227,
				2.331912040710449
			],
			"min":[
				-2.5963027477264404,
				0.010860868729650974,
				-1.5533983707427979
			],
			"type":"VEC3"
		},
		{
			"bufferView":5,
			"componentType":5126,
			"count":662,
			"type":"VEC3"
		},
		{
			"bufferView":6,
			"componentType":5126,
			"count":662,
			"type":"VEC2"
		},
		{
			"bufferView":7,
			"componentType":5123,
			"count":960,
			"type":"SCALAR"
		}
	],
	"bufferViews":[
		{
			"buffer":0,
			"byteLength":8208,
			"byteOffset":0,
			"target":34962
		},
		{
			"buffer":0,
			"byteLength":8208,
			"byteOffset":8208,
			"target":34962
		},
		{
			"buffer":0,
			"byteLength":5472,
			"byteOffset":16416,
			"target":34962
		},
		{
			"buffer":0,
			"byteLength":1500,
			"byteOffset":21888,
			"target":34963
		},
		{
			"buffer":0,
			"byteLength":7944,
			"byteOffset":23388,
			"target":34962
		},
		{
			"buffer":0,
			"byteLength":7944,
			"byteOffset":31332,
			"target":34962
		},
		{
			"buffer":0,
			"byteLength":5296,
			"byteOffset":39276,
			"target":34962
		},
		{
			"buffer":0,
			"byteLength":1920,
			"byteOffset":44572,
			"target":34963
		}
	],
	"buffers":[
		{
			"byteLength":46492,
			"uri":"tree_03.bin"
		}
	]
}
