{
	"asset":{
		"generator":"Khronos glTF Blender I/O v4.5.47",
		"version":"2.0"
	},
	"scene":0,
	"scenes":[
		{
			"name":"Scene",
			"nodes":[
				0,
				1
			]
		}
	],
	"nodes":[
		{
			"mesh":0,
			"name":"tree_07"
		},
		{
			"mesh":1,
			"name":"tree_07A"
		}
	],
	"meshes":[
		{
			"name":"Cylinder.014",
			"primitives":[
				{
					"attributes":{
						"POSITION":0,
						"NORMAL":1,
						"TEXCOORD_0":2
					},
					"indices":3
				}
			]
		},
		{
			"name":"Cylinder.009",
			"primitives":[
				{
					"attributes":{
						"POSITION":4,
						"NORMAL":5,
						"TEXCOORD_0":6
					},
					"indices":7
				}
			]
		}
	],
	"accessors":[
		{
			"bufferView":0,
			"componentType":5126,
			"count":214,
			"max":[
				1.0974583625793457,
				6.942970275878906,
				1.0587341785430908
			],
			"min":[
				-1.0974583625793457,
				1.014103651046753,
				-1.0811512470245361
			],
			"type":"VEC3"
		},
		{
			"bufferView":1,
			"componentType":5126,
			"count":214,
			"type":"VEC3"
		},
		{
			"bufferView":2,
			"componentType":5126,
			"count":214,
			"type":"VEC2"
		},
		{
			"bufferView":3,
			"componentType":5123,
			"count":360,
			"type":"SCALAR"
		},
		{
			"bufferView":4,
			"componentType":5126,
			"count":30,
			"max":[
				0.32734987139701843,
				1.0512875318527222,
				0.27846044301986694
			],
			"min":[
				-0.32734987139701843,
				0,
				-0.34419599175453186
			],
			"type":"VEC3"
		},
		{
			"bufferView":5,
			"componentType":5126,
			"count":30,
			"type":"VEC3"
		},
		{
			"bufferView":6,
			"componentType":5126,
			"count":30,
			"type":"VEC2"
		},
		{
			"bufferView":7,
			"componentType":5123,
			"count":48,
			"type":"SCALAR"
		}
	],
	"bufferViews":[
		{
			"buffer":0,
			"byteLength":2568,
			"byteOffset":0,
			"target":34962
		},
		{
			"buffer":0,
			"byteLength":2568,
			"byteOffset":2568,
			"target":34962
		},
		{
			"buffer":0,
			"byteLength":1712,
			"byteOffset":5136,
			"target":34962
		},
		{
			"buffer":0,
			"byteLength":720,
			"byteOffset":6848,
			"target":34963
		},
		{
			"buffer":0,
			"byteLength":360,
			"byteOffset":7568,
			"target":34962
		},
		{
			"buffer":0,
			"byteLength":360,
			"byteOffset":7928,
			"target":34962
		},
		{
			"buffer":0,
			"byteLength":240,
			"byteOffset":8288,
			"target":34962
		},
		{
			"buffer":0,
			"byteLength":96,
			"byteOffset":8528,
			"target":34963
		}
	],
	"buffers":[
		{
			"byteLength":8624,
			"uri":"tree_07.bin"
		}
	]
}
