{
	"asset":{
		"generator":"Khronos glTF Blender I/O v4.5.47",
		"version":"2.0"
	},
	"scene":0,
	"scenes":[
		{
			"name":"Scene",
			"nodes":[
				0,
				1
			]
		}
	],
	"nodes":[
		{
			"mesh":0,
			"name":"tree_04"
		},
		{
			"mesh":1,
			"name":"tree_04.001"
		}
	],
	"meshes":[
		{
			"name":"Plane",
			"primitives":[
				{
					"attributes":{
						"POSITION":0,
						"NORMAL":1,
						"TEXCOORD_0":2
					},
					"indices":3
				}
			]
		},
		{
			"name":"Plane.001",
			"primitives":[
				{
					"attributes":{
						"POSITION":4,
						"NORMAL":5,
						"TEXCOORD_0":6
					},
					"indices":7
				}
			]
		}
	],
	"accessors":[
		{
			"bufferView":0,
			"componentType":5126,
			"count":888,
			"max":[
				1.9009448289871216,
				6.873049259185791,
				2.446349620819092
			],
			"min":[
				-2.57944393157959,
				2.8785197734832764,
				-2.3863165378570557
			],
			"type":"VEC3"
		},
		{
			"bufferView":1,
			"componentType":5126,
			"count":888,
			"type":"VEC3"
		},
		{
			"bufferView":2,
			"componentType":5126,
			"count":888,
			"type":"VEC2"
		},
		{
			"bufferView":3,
			"componentType":5123,
			"count":918,
			"type":"SCALAR"
		},
		{
			"bufferView":4,
			"componentType":5126,
			"count":530,
			"max":[
				1.2359544038772583,
				3.900810956954956,
				1.4496464729309082
			],
			"min":[
				-1.44089937210083,
				-0.015677960589528084,
				-1.6911439895629883
			],
			"type":"VEC3"
		},
		{
			"bufferView":5,
			"componentType":5126,
			"count":530,
			"type":"VEC3"
		},
		{
			"bufferView":6,
			"componentType":5126,
			"count":530,
			"type":"VEC2"
		},
		{
			"bufferView":7,
			"componentType":5123,
			"count":828,
			"type":"SCALAR"
		}
	],
	"bufferViews":[
		{
			"buffer":0,
			"byteLength":10656,
			"byteOffset":0,
			"target":34962
		},
		{
			"buffer":0,
			"byteLength":10656,
			"byteOffset":10656,
			"target":34962
		},
		{
			"buffer":0,
			"byteLength":7104,
			"byteOffset":21312,
			"target":34962
		},
		{
			"buffer":0,
			"byteLength":1836,
			"byteOffset":28416,
			"target":34963
		},
		{
			"buffer":0,
			"byteLength":6360,
			"byteOffset":30252,
			"target":34962
		},
		{
			"buffer":0,
			"byteLength":6360,
			"byteOffset":36612,
			"target":34962
		},
		{
			"buffer":0,
			"byteLength":4240,
			"byteOffset":42972,
			"target":34962
		},
		{
			"buffer":0,
			"byteLength":1656,
			"byteOffset":47212,
			"target":34963
		}
	],
	"buffers":[
		{
			"byteLength":48868,
			"uri":"tree_04.bin"
		}
	]
}
