{
	"asset":{
		"generator":"Khronos glTF Blender I/O v4.5.47",
		"version":"2.0"
	},
	"scene":0,
	"scenes":[
		{
			"name":"Scene",
			"nodes":[
				0,
				1
			]
		}
	],
	"nodes":[
		{
			"mesh":0,
			"name":"Mball.011"
		},
		{
			"mesh":1,
			"name":"Mball.002"
		}
	],
	"meshes":[
		{
			"name":"Mesh.001",
			"primitives":[
				{
					"attributes":{
						"POSITION":0,
						"NORMAL":1
					},
					"indices":2
				}
			]
		},
		{
			"name":"Mesh.002",
			"primitives":[
				{
					"attributes":{
						"POSITION":3,
						"NORMAL":4,
						"TEXCOORD_0":5
					},
					"indices":6
				}
			]
		}
	],
	"accessors":[
		{
			"bufferView":0,
			"componentType":5126,
			"count":857,
			"max":[
				2.04166841506958,
				5.443608283996582,
				1.952192783355713
			],
			"min":[
				-2.204038143157959,
				-0.0060291290283203125,
				-2.0362257957458496
			],
			"type":"VEC3"
		},
		{
			"bufferView":1,
			"componentType":5126,
			"count":857,
			"type":"VEC3"
		},
		{
			"bufferView":2,
			"componentType":5123,
			"count":1251,
			"type":"SCALAR"
		},
		{
			"bufferView":3,
			"componentType":5126,
			"count":826,
			"max":[
				3.182044506072998,
				8.182666778564453,
				2.7820327281951904
			],
			"min":[
				-3.042386054992676,
				3.0807549953460693,
				-2.9704527854919434
			],
			"type":"VEC3"
		},
		{
			"bufferView":4,
			"componentType":5126,
			"count":826,
			"type":"VEC3"
		},
		{
			"bufferView":5,
			"componentType":5126,
			"count":826,
			"type":"VEC2"
		},
		{
			"bufferView":6,
			"componentType":5123,
			"count":882,
			"type":"SCALAR"
		}
	],
	"bufferViews":[
		{
			"buffer":0,
			"byteLength":10284,
			"byteOffset":0,
			"target":34962
		},
		{
			"buffer":0,
			"byteLength":10284,
			"byteOffset":10284,
			"target":34962
		},
		{
			"buffer":0,
			"byteLength":2502,
			"byteOffset":20568,
			"target":34963
		},
		{
			"buffer":0,
			"byteLength":9912,
			"byteOffset":23072,
			"target":34962
		},
		{
			"buffer":0,
			"byteLength":9912,
			"byteOffset":32984,
			"target":34962
		},
		{
			"buffer":0,
			"byteLength":6608,
			"byteOffset":42896,
			"target":34962
		},
		{
			"buffer":0,
			"byteLength":1764,
			"byteOffset":49504,
			"target":34963
		}
	],
	"buffers":[
		{
			"byteLength":51268,
			"uri":"tree_02.bin"
		}
	]
}
