{
	"asset":{
		"generator":"Khronos glTF Blender I/O v4.5.47",
		"version":"2.0"
	},
	"scene":0,
	"scenes":[
		{
			"name":"Scene",
			"nodes":[
				0,
				1
			]
		}
	],
	"nodes":[
		{
			"mesh":0,
			"name":"tree_06A",
			"translation":[
				0.04343577101826668,
				3.6666741371154785,
				-0.01799958199262619
			]
		},
		{
			"mesh":1,
			"name":"tree_06"
		}
	],
	"meshes":[
		{
			"name":"Cylinder.013",
			"primitives":[
				{
					"attributes":{
						"POSITION":0,
						"NORMAL":1,
						"TEXCOORD_0":2
					},
					"indices":3
				}
			]
		},
		{
			"name":"Cylinder.003",
			"primitives":[
				{
					"attributes":{
						"POSITION":4,
						"NORMAL":5,
						"TEXCOORD_0":6
					},
					"indices":7
				}
			]
		}
	],
	"accessors":[
		{
			"bufferView":0,
			"componentType":5126,
			"count":252,
			"max":[
				1.3085256814956665,
				2.280215263366699,
				1.2673996686935425
			],
			"min":[
				-1.3953973054885864,
				-2.8786964416503906,
				-1.3687299489974976
			],
			"type":"VEC3"
		},
		{
			"bufferView":1,
			"componentType":5126,
			"count":252,
			"type":"VEC3"
		},
		{
			"bufferView":2,
			"componentType":5126,
			"count":252,
			"type":"VEC2"
		},
		{
			"bufferView":3,
			"componentType":5123,
			"count":432,
			"type":"SCALAR"
		},
		{
			"bufferView":4,
			"componentType":5126,
			"count":30,
			"max":[
				0.29129454493522644,
				0.800000011920929,
				0.24778996407985687
			],
			"min":[
				-0.29129454493522644,
				0,
				-0.30628523230552673
			],
			"type":"VEC3"
		},
		{
			"bufferView":5,
			"componentType":5126,
			"count":30,
			"type":"VEC3"
		},
		{
			"bufferView":6,
			"componentType":5126,
			"count":30,
			"type":"VEC2"
		},
		{
			"bufferView":7,
			"componentType":5123,
			"count":48,
			"type":"SCALAR"
		}
	],
	"bufferViews":[
		{
			"buffer":0,
			"byteLength":3024,
			"byteOffset":0,
			"target":34962
		},
		{
			"buffer":0,
			"byteLength":3024,
			"byteOffset":3024,
			"target":34962
		},
		{
			"buffer":0,
			"byteLength":2016,
			"byteOffset":6048,
			"target":34962
		},
		{
			"buffer":0,
			"byteLength":864,
			"byteOffset":8064,
			"target":34963
		},
		{
			"buffer":0,
			"byteLength":360,
			"byteOffset":8928,
			"target":34962
		},
		{
			"buffer":0,
			"byteLength":360,
			"byteOffset":9288,
			"target":34962
		},
		{
			"buffer":0,
			"byteLength":240,
			"byteOffset":9648,
			"target":34962
		},
		{
			"buffer":0,
			"byteLength":96,
			"byteOffset":9888,
			"target":34963
		}
	],
	"buffers":[
		{
			"byteLength":9984,
			"uri":"tree_06.bin"
		}
	]
}
