{
	"asset":{
		"generator":"Khronos glTF Blender I/O v4.5.47",
		"version":"2.0"
	},
	"scene":0,
	"scenes":[
		{
			"name":"Scene",
			"nodes":[
				0,
				1
			]
		}
	],
	"nodes":[
		{
			"mesh":0,
			"name":"tree_06"
		},
		{
			"mesh":1,
			"name":"tree_05"
		}
	],
	"meshes":[
		{
			"name":"Cylinder.015",
			"primitives":[
				{
					"attributes":{
						"POSITION":0,
						"NORMAL":1,
						"TEXCOORD_0":2
					},
					"indices":3
				}
			]
		},
		{
			"name":"Cylinder.001",
			"primitives":[
				{
					"attributes":{
						"POSITION":4,
						"NORMAL":5,
						"TEXCOORD_0":6
					},
					"indices":7
				}
			]
		}
	],
	"accessors":[
		{
			"bufferView":0,
			"componentType":5126,
			"count":210,
			"max":[
				1.1499232053756714,
				5.295424938201904,
				1.0866727828979492
			],
			"min":[
				-1.1499232053756714,
				0.7717041373252869,
				-1.155511498451233
			],
			"type":"VEC3"
		},
		{
			"bufferView":1,
			"componentType":5126,
			"count":210,
			"type":"VEC3"
		},
		{
			"bufferView":2,
			"componentType":5126,
			"count":210,
			"type":"VEC2"
		},
		{
			"bufferView":3,
			"componentType":5123,
			"count":360,
			"type":"SCALAR"
		},
		{
			"bufferView":4,
			"componentType":5126,
			"count":30,
			"max":[
				0.29129454493522644,
				0.800000011920929,
				0.24778996407985687
			],
			"min":[
				-0.29129454493522644,
				0,
				-0.30628523230552673
			],
			"type":"VEC3"
		},
		{
			"bufferView":5,
			"componentType":5126,
			"count":30,
			"type":"VEC3"
		},
		{
			"bufferView":6,
			"componentType":5126,
			"count":30,
			"type":"VEC2"
		},
		{
			"bufferView":7,
			"componentType":5123,
			"count":48,
			"type":"SCALAR"
		}
	],
	"bufferViews":[
		{
			"buffer":0,
			"byteLength":2520,
			"byteOffset":0,
			"target":34962
		},
		{
			"buffer":0,
			"byteLength":2520,
			"byteOffset":2520,
			"target":34962
		},
		{
			"buffer":0,
			"byteLength":1680,
			"byteOffset":5040,
			"target":34962
		},
		{
			"buffer":0,
			"byteLength":720,
			"byteOffset":6720,
			"target":34963
		},
		{
			"buffer":0,
			"byteLength":360,
			"byteOffset":7440,
			"target":34962
		},
		{
			"buffer":0,
			"byteLength":360,
			"byteOffset":7800,
			"target":34962
		},
		{
			"buffer":0,
			"byteLength":240,
			"byteOffset":8160,
			"target":34962
		},
		{
			"buffer":0,
			"byteLength":96,
			"byteOffset":8400,
			"target":34963
		}
	],
	"buffers":[
		{
			"byteLength":8496,
			"uri":"tree_05.bin"
		}
	]
}
