{
	"asset":{
		"generator":"Khronos glTF Blender I/O v4.5.47",
		"version":"2.0"
	},
	"scene":0,
	"scenes":[
		{
			"name":"Scene",
			"nodes":[
				0,
				1,
				2
			]
		}
	],
	"nodes":[
		{
			"mesh":0,
			"name":"TallShroom1"
		},
		{
			"mesh":1,
			"name":"TallShroom1.001"
		},
		{
			"mesh":2,
			"name":"TallShroom1.002"
		}
	],
	"meshes":[
		{
			"name":"Cylinder.017",
			"primitives":[
				{
					"attributes":{
						"POSITION":0,
						"NORMAL":1,
						"TEXCOORD_0":2
					},
					"indices":3
				}
			]
		},
		{
			"name":"Cylinder.020",
			"primitives":[
				{
					"attributes":{
						"POSITION":4,
						"NORMAL":5,
						"TEXCOORD_0":6
					},
					"indices":7
				}
			]
		},
		{
			"name":"Cylinder.021",
			"primitives":[
				{
					"attributes":{
						"POSITION":8,
						"NORMAL":9,
						"TEXCOORD_0":10
					},
					"indices":11
				}
			]
		}
	],
	"accessors":[
		{
			"bufferView":0,
			"componentType":5126,
			"count":512,
			"max":[
				1.1357077360153198,
				2.9896843433380127,
				1.1357083320617676
			],
			"min":[
				-1.1357076168060303,
				2.8450300693511963,
				-1.1357066631317139
			],
			"type":"VEC3"
		},
		{
			"bufferView":1,
			"componentType":5126,
			"count":512,
			"type":"VEC3"
		},
		{
			"bufferView":2,
			"componentType":5126,
			"count":512,
			"type":"VEC2"
		},
		{
			"bufferView":3,
			"componentType":5123,
			"count":768,
			"type":"SCALAR"
		},
		{
			"bufferView":4,
			"componentType":5126,
			"count":704,
			"max":[
				1.3602577447891235,
				2.9896843433380127,
				1.3602584600448608
			],
			"min":[
				-1.3602577447891235,
				-0.06939934939146042,
				-1.3602569103240967
			],
			"type":"VEC3"
		},
		{
			"bufferView":5,
			"componentType":5126,
			"count":704,
			"type":"VEC3"
		},
		{
			"bufferView":6,
			"componentType":5126,
			"count":704,
			"type":"VEC2"
		},
		{
			"bufferView":7,
			"componentType":5123,
			"count":1200,
			"type":"SCALAR"
		},
		{
			"bufferView":8,
			"componentType":5126,
			"count":416,
			"max":[
				1.3863834142684937,
				3.6696696281433105,
				1.386384129524231
			],
			"min":[
				-1.3863834142684937,
				2.9580466747283936,
				-1.3863823413848877
			],
			"type":"VEC3"
		},
		{
			"bufferView":9,
			"componentType":5126,
			"count":416,
			"type":"VEC3"
		},
		{
			"bufferView":10,
			"componentType":5126,
			"count":416,
			"type":"VEC2"
		},
		{
			"bufferView":11,
			"componentType":5123,
			"count":624,
			"type":"SCALAR"
		}
	],
	"bufferViews":[
		{
			"buffer":0,
			"byteLength":6144,
			"byteOffset":0,
			"target":34962
		},
		{
			"buffer":0,
			"byteLength":6144,
			"byteOffset":6144,
			"target":34962
		},
		{
			"buffer":0,
			"byteLength":4096,
			"byteOffset":12288,
			"target":34962
		},
		{
			"buffer":0,
			"byteLength":1536,
			"byteOffset":16384,
			"target":34963
		},
		{
			"buffer":0,
			"byteLength":8448,
			"byteOffset":17920,
			"target":34962
		},
		{
			"buffer":0,
			"byteLength":8448,
			"byteOffset":26368,
			"target":34962
		},
		{
			"buffer":0,
			"byteLength":5632,
			"byteOffset":34816,
			"target":34962
		},
		{
			"buffer":0,
			"byteLength":2400,
			"byteOffset":40448,
			"target":34963
		},
		{
			"buffer":0,
			"byteLength":4992,
			"byteOffset":42848,
			"target":34962
		},
		{
			"buffer":0,
			"byteLength":4992,
			"byteOffset":47840,
			"target":34962
		},
		{
			"buffer":0,
			"byteLength":3328,
			"byteOffset":52832,
			"target":34962
		},
		{
			"buffer":0,
			"byteLength":1248,
			"byteOffset":56160,
			"target":34963
		}
	],
	"buffers":[
		{
			"byteLength":57408,
			"uri":"mushroom_04.bin"
		}
	]
}
