{
	"asset":{
		"generator":"Khronos glTF Blender I/O v4.5.47",
		"version":"2.0"
	},
	"scene":0,
	"scenes":[
		{
			"name":"Scene",
			"nodes":[
				0
			]
		}
	],
	"nodes":[
		{
			"mesh":0,
			"name":"tVFX_OB_FU_MuS.012",
			"rotation":[
				0.7071068286895752,
				0,
				0,
				0.7071068286895752
			]
		}
	],
	"meshes":[
		{
			"name":"tVFX_OB_FU_MuS.012",
			"primitives":[
				{
					"attributes":{
						"POSITION":0,
						"NORMAL":1,
						"TEXCOORD_0":2
					},
					"indices":3
				}
			]
		}
	],
	"accessors":[
		{
			"bufferView":0,
			"componentType":5126,
			"count":1448,
			"max":[
				0.09102900326251984,
				0.09167499840259552,
				0.0011859999503940344
			],
			"min":[
				-0.08723200112581253,
				-0.09306800365447998,
				-0.17548899352550507
			],
			"type":"VEC3"
		},
		{
			"bufferView":1,
			"componentType":5126,
			"count":1448,
			"type":"VEC3"
		},
		{
			"bufferView":2,
			"componentType":5126,
			"count":1448,
			"type":"VEC2"
		},
		{
			"bufferView":3,
			"componentType":5123,
			"count":1449,
			"type":"SCALAR"
		}
	],
	"bufferViews":[
		{
			"buffer":0,
			"byteLength":17376,
			"byteOffset":0,
			"target":34962
		},
		{
			"buffer":0,
			"byteLength":17376,
			"byteOffset":17376,
			"target":34962
		},
		{
			"buffer":0,
			"byteLength":11584,
			"byteOffset":34752,
			"target":34962
		},
		{
			"buffer":0,
			"byteLength":2898,
			"byteOffset":46336,
			"target":34963
		}
	],
	"buffers":[
		{
			"byteLength":49236,
			"uri":"mushroom_02.bin"
		}
	]
}
