{
	"asset":{
		"generator":"Khronos glTF Blender I/O v4.5.47",
		"version":"2.0"
	},
	"scene":0,
	"scenes":[
		{
			"name":"Scene",
			"nodes":[
				0,
				1
			]
		}
	],
	"nodes":[
		{
			"mesh":0,
			"name":"Cylinder.002",
			"translation":[
				0,
				0.36880919337272644,
				-0.004637932404875755
			]
		},
		{
			"mesh":1,
			"name":"Cylinder.003"
		}
	],
	"meshes":[
		{
			"name":"Cylinder.011",
			"primitives":[
				{
					"attributes":{
						"POSITION":0,
						"NORMAL":1,
						"TEXCOORD_0":2
					},
					"indices":3
				}
			]
		},
		{
			"name":"Cylinder.012",
			"primitives":[
				{
					"attributes":{
						"POSITION":4,
						"NORMAL":5,
						"TEXCOORD_0":6
					},
					"indices":7
				}
			]
		}
	],
	"accessors":[
		{
			"bufferView":0,
			"componentType":5126,
			"count":154,
			"max":[
				0.37966156005859375,
				0.22691908478736877,
				0.38429948687553406
			],
			"min":[
				-0.37966156005859375,
				-0.38049665093421936,
				-0.37502363324165344
			],
			"type":"VEC3"
		},
		{
			"bufferView":1,
			"componentType":5126,
			"count":154,
			"type":"VEC3"
		},
		{
			"bufferView":2,
			"componentType":5126,
			"count":154,
			"type":"VEC2"
		},
		{
			"bufferView":3,
			"componentType":5123,
			"count":306,
			"type":"SCALAR"
		},
		{
			"bufferView":4,
			"componentType":5126,
			"count":136,
			"max":[
				0.3836168944835663,
				0.7741546034812927,
				0.3836168944835663
			],
			"min":[
				-0.3836168944835663,
				0.5731138586997986,
				-0.3836168944835663
			],
			"type":"VEC3"
		},
		{
			"bufferView":5,
			"componentType":5126,
			"count":136,
			"type":"VEC3"
		},
		{
			"bufferView":6,
			"componentType":5126,
			"count":136,
			"type":"VEC2"
		},
		{
			"bufferView":7,
			"componentType":5123,
			"count":210,
			"type":"SCALAR"
		}
	],
	"bufferViews":[
		{
			"buffer":0,
			"byteLength":1848,
			"byteOffset":0,
			"target":34962
		},
		{
			"buffer":0,
			"byteLength":1848,
			"byteOffset":1848,
			"target":34962
		},
		{
			"buffer":0,
			"byteLength":1232,
			"byteOffset":3696,
			"target":34962
		},
		{
			"buffer":0,
			"byteLength":612,
			"byteOffset":4928,
			"target":34963
		},
		{
			"buffer":0,
			"byteLength":1632,
			"byteOffset":5540,
			"target":34962
		},
		{
			"buffer":0,
			"byteLength":1632,
			"byteOffset":7172,
			"target":34962
		},
		{
			"buffer":0,
			"byteLength":1088,
			"byteOffset":8804,
			"target":34962
		},
		{
			"buffer":0,
			"byteLength":420,
			"byteOffset":9892,
			"target":34963
		}
	],
	"buffers":[
		{
			"byteLength":10312,
			"uri":"mushroom_03.bin"
		}
	]
}
