{
	"asset":{
		"generator":"Khronos glTF Blender I/O v4.5.47",
		"version":"2.0"
	},
	"scene":0,
	"scenes":[
		{
			"name":"Scene",
			"nodes":[
				0,
				1,
				2,
				3,
				4,
				5
			]
		}
	],
	"nodes":[
		{
			"mesh":0,
			"name":"alarm_clock_01",
			"rotation":[
				0.7071068286895752,
				0,
				0,
				0.7071068286895752
			]
		},
		{
			"mesh":1,
			"name":"alarm_clock_01.001",
			"rotation":[
				0.7071068286895752,
				0,
				0,
				0.7071068286895752
			]
		},
		{
			"mesh":2,
			"name":"alarm_clock_01.002",
			"rotation":[
				0.7071068286895752,
				0,
				0,
				0.7071068286895752
			]
		},
		{
			"mesh":3,
			"name":"alarm_clock_01.003",
			"rotation":[
				0.7071068286895752,
				0,
				0,
				0.7071068286895752
			]
		},
		{
			"mesh":4,
			"name":"alarm_clock_01.004",
			"rotation":[
				0.7071068286895752,
				0,
				0,
				0.7071068286895752
			]
		},
		{
			"mesh":5,
			"name":"alarm_clock_01.005",
			"rotation":[
				0.7071068286895752,
				0,
				0,
				0.7071068286895752
			]
		}
	],
	"meshes":[
		{
			"name":"alarm_clock_01",
			"primitives":[
				{
					"attributes":{
						"POSITION":0,
						"NORMAL":1,
						"TEXCOORD_0":2
					},
					"indices":3
				}
			]
		},
		{
			"name":"alarm_clock_01.001",
			"primitives":[
				{
					"attributes":{
						"POSITION":4,
						"NORMAL":5,
						"TEXCOORD_0":6
					},
					"indices":7
				}
			]
		},
		{
			"name":"alarm_clock_01.002",
			"primitives":[
				{
					"attributes":{
						"POSITION":8,
						"NORMAL":9,
						"TEXCOORD_0":10
					},
					"indices":11
				}
			]
		},
		{
			"name":"alarm_clock_01.003",
			"primitives":[
				{
					"attributes":{
						"POSITION":12,
						"NORMAL":13,
						"TEXCOORD_0":14
					},
					"indices":15
				}
			]
		},
		{
			"name":"alarm_clock_01.004",
			"primitives":[
				{
					"attributes":{
						"POSITION":16,
						"NORMAL":17,
						"TEXCOORD_0":18
					},
					"indices":19
				}
			]
		},
		{
			"name":"alarm_clock_01.005",
			"primitives":[
				{
					"attributes":{
						"POSITION":20,
						"NORMAL":21,
						"TEXCOORD_0":22
					},
					"indices":23
				}
			]
		}
	],
	"accessors":[
		{
			"bufferView":0,
			"componentType":5126,
			"count":79,
			"max":[
				0.008564000017940998,
				0.02579900063574314,
				-0.14721299707889557
			],
			"min":[
				-0.007656000088900328,
				0.02542099915444851,
				-0.2821600139141083
			],
			"type":"VEC3"
		},
		{
			"bufferView":1,
			"componentType":5126,
			"count":79,
			"type":"VEC3"
		},
		{
			"bufferView":2,
			"componentType":5126,
			"count":79,
			"type":"VEC2"
		},
		{
			"bufferView":3,
			"componentType":5123,
			"count":93,
			"type":"SCALAR"
		},
		{
			"bufferView":4,
			"componentType":5126,
			"count":419,
			"max":[
				0.15470899641513824,
				0.04263399913907051,
				0.00267699989490211
			],
			"min":[
				-0.15884900093078613,
				-0.08833199739456177,
				-0.3106920123100281
			],
			"type":"VEC3"
		},
		{
			"bufferView":5,
			"componentType":5126,
			"count":419,
			"type":"VEC3"
		},
		{
			"bufferView":6,
			"componentType":5126,
			"count":419,
			"type":"VEC2"
		},
		{
			"bufferView":7,
			"componentType":5123,
			"count":453,
			"type":"SCALAR"
		},
		{
			"bufferView":8,
			"componentType":5126,
			"count":136,
			"max":[
				0.14138099551200867,
				0.07211899757385254,
				-0.013275000266730785
			],
			"min":[
				-0.14371100068092346,
				-0.08259999752044678,
				-0.30992698669433594
			],
			"type":"VEC3"
		},
		{
			"bufferView":9,
			"componentType":5126,
			"count":136,
			"type":"VEC3"
		},
		{
			"bufferView":10,
			"componentType":5126,
			"count":136,
			"type":"VEC2"
		},
		{
			"bufferView":11,
			"componentType":5123,
			"count":315,
			"type":"SCALAR"
		},
		{
			"bufferView":12,
			"componentType":5126,
			"count":881,
			"max":[
				0.1550299972295761,
				0.05982799828052521,
				0.0031689999159425497
			],
			"min":[
				-0.157942995429039,
				-0.07662999629974365,
				-0.4149959981441498
			],
			"type":"VEC3"
		},
		{
			"bufferView":13,
			"componentType":5126,
			"count":881,
			"type":"VEC3"
		},
		{
			"bufferView":14,
			"componentType":5126,
			"count":881,
			"type":"VEC2"
		},
		{
			"bufferView":15,
			"componentType":5123,
			"count":987,
			"type":"SCALAR"
		},
		{
			"bufferView":16,
			"componentType":5126,
			"count":714,
			"max":[
				0.15084800124168396,
				0.028852000832557678,
				-0.0004769999941345304
			],
			"min":[
				-0.15426500141620636,
				-0.09040500223636627,
				-0.30709901452064514
			],
			"type":"VEC3"
		},
		{
			"bufferView":17,
			"componentType":5126,
			"count":714,
			"type":"VEC3"
		},
		{
			"bufferView":18,
			"componentType":5126,
			"count":714,
			"type":"VEC2"
		},
		{
			"bufferView":19,
			"componentType":5123,
			"count":924,
			"type":"SCALAR"
		},
		{
			"bufferView":20,
			"componentType":5126,
			"count":160,
			"max":[
				0.139724001288414,
				0.04222799837589264,
				-0.012027000077068806
			],
			"min":[
				-0.14312000572681427,
				0.024452999234199524,
				-0.29590699076652527
			],
			"type":"VEC3"
		},
		{
			"bufferView":21,
			"componentType":5126,
			"count":160,
			"type":"VEC3"
		},
		{
			"bufferView":22,
			"componentType":5126,
			"count":160,
			"type":"VEC2"
		},
		{
			"bufferView":23,
			"componentType":5123,
			"count":198,
			"type":"SCALAR"
		}
	],
	"bufferViews":[
		{
			"buffer":0,
			"byteLength":948,
			"byteOffset":0,
			"target":34962
		},
		{
			"buffer":0,
			"byteLength":948,
			"byteOffset":948,
			"target":34962
		},
		{
			"buffer":0,
			"byteLength":632,
			"byteOffset":1896,
			"target":34962
		},
		{
			"buffer":0,
			"byteLength":186,
			"byteOffset":2528,
			"target":34963
		},
		{
			"buffer":0,
			"byteLength":5028,
			"byteOffset":2716,
			"target":34962
		},
		{
			"buffer":0,
			"byteLength":5028,
			"byteOffset":7744,
			"target":34962
		},
		{
			"buffer":0,
			"byteLength":3352,
			"byteOffset":12772,
			"target":34962
		},
		{
			"buffer":0,
			"byteLength":906,
			"byteOffset":16124,
			"target":34963
		},
		{
			"buffer":0,
			"byteLength":1632,
			"byteOffset":17032,
			"target":34962
		},
		{
			"buffer":0,
			"byteLength":1632,
			"byteOffset":18664,
			"target":34962
		},
		{
			"buffer":0,
			"byteLength":1088,
			"byteOffset":20296,
			"target":34962
		},
		{
			"buffer":0,
			"byteLength":630,
			"byteOffset":21384,
			"target":34963
		},
		{
			"buffer":0,
			"byteLength":10572,
			"byteOffset":22016,
			"target":34962
		},
		{
			"buffer":0,
			"byteLength":10572,
			"byteOffset":32588,
			"target":34962
		},
		{
			"buffer":0,
			"byteLength":7048,
			"byteOffset":43160,
			"target":34962
		},
		{
			"buffer":0,
			"byteLength":1974,
			"byteOffset":50208,
			"target":34963
		},
		{
			"buffer":0,
			"byteLength":8568,
			"byteOffset":52184,
			"target":34962
		},
		{
			"buffer":0,
			"byteLength":8568,
			"byteOffset":60752,
			"target":34962
		},
		{
			"buffer":0,
			"byteLength":5712,
			"byteOffset":69320,
			"target":34962
		},
		{
			"buffer":0,
			"byteLength":1848,
			"byteOffset":75032,
			"target":34963
		},
		{
			"buffer":0,
			"byteLength":1920,
			"byteOffset":76880,
			"target":34962
		},
		{
			"buffer":0,
			"byteLength":1920,
			"byteOffset":78800,
			"target":34962
		},
		{
			"buffer":0,
			"byteLength":1280,
			"byteOffset":80720,
			"target":34962
		},
		{
			"buffer":0,
			"byteLength":396,
			"byteOffset":82000,
			"target":34963
		}
	],
	"buffers":[
		{
			"byteLength":82396,
			"uri":"clock.bin"
		}
	]
}
