{
	"asset":{
		"generator":"Khronos glTF Blender I/O v4.5.47",
		"version":"2.0"
	},
	"scene":0,
	"scenes":[
		{
			"name":"Scene",
			"nodes":[
				0
			]
		}
	],
	"nodes":[
		{
			"mesh":0,
			"name":"water_temple"
		}
	],
	"meshes":[
		{
			"name":"Cube.021",
			"primitives":[
				{
					"attributes":{
						"POSITION":0,
						"NORMAL":1,
						"TEXCOORD_0":2
					},
					"indices":3
				}
			]
		}
	],
	"accessors":[
		{
			"bufferView":0,
			"componentType":5126,
			"count":35751,
			"max":[
				16.703018188476562,
				55.8340950012207,
				16.702199935913086
			],
			"min":[
				-16.700706481933594,
				-2.384185791015625e-07,
				-16.70123863220215
			],
			"type":"VEC3"
		},
		{
			"bufferView":1,
			"componentType":5126,
			"count":35751,
			"type":"VEC3"
		},
		{
			"bufferView":2,
			"componentType":5126,
			"count":35751,
			"type":"VEC2"
		},
		{
			"bufferView":3,
			"componentType":5123,
			"count":62748,
			"type":"SCALAR"
		}
	],
	"bufferViews":[
		{
			"buffer":0,
			"byteLength":429012,
			"byteOffset":0,
			"target":34962
		},
		{
			"buffer":0,
			"byteLength":429012,
			"byteOffset":429012,
			"target":34962
		},
		{
			"buffer":0,
			"byteLength":286008,
			"byteOffset":858024,
			"target":34962
		},
		{
			"buffer":0,
			"byteLength":125496,
			"byteOffset":1144032,
			"target":34963
		}
	],
	"buffers":[
		{
			"byteLength":1269528,
			"uri":"water_temple.bin"
		}
	]
}
