{
	"asset":{
		"generator":"Khronos glTF Blender I/O v4.5.47",
		"version":"2.0"
	},
	"scene":0,
	"scenes":[
		{
			"name":"Scene",
			"nodes":[
				0
			]
		}
	],
	"nodes":[
		{
			"mesh":0,
			"name":"Bonfire",
			"translation":[
				0.001678143860772252,
				0.025463594123721123,
				0.013059652410447598
			]
		}
	],
	"meshes":[
		{
			"name":"Cube.006",
			"primitives":[
				{
					"attributes":{
						"POSITION":0,
						"NORMAL":1,
						"TEXCOORD_0":2
					},
					"indices":3
				}
			]
		}
	],
	"accessors":[
		{
			"bufferView":0,
			"componentType":5126,
			"count":2412,
			"max":[
				0.8024477958679199,
				0.27593982219696045,
				0.8484140634536743
			],
			"min":[
				-0.8052946329116821,
				-0.24366861581802368,
				-0.8646039962768555
			],
			"type":"VEC3"
		},
		{
			"bufferView":1,
			"componentType":5126,
			"count":2412,
			"type":"VEC3"
		},
		{
			"bufferView":2,
			"componentType":5126,
			"count":2412,
			"type":"VEC2"
		},
		{
			"bufferView":3,
			"componentType":5123,
			"count":2754,
			"type":"SCALAR"
		}
	],
	"bufferViews":[
		{
			"buffer":0,
			"byteLength":28944,
			"byteOffset":0,
			"target":34962
		},
		{
			"buffer":0,
			"byteLength":28944,
			"byteOffset":28944,
			"target":34962
		},
		{
			"buffer":0,
			"byteLength":19296,
			"byteOffset":57888,
			"target":34962
		},
		{
			"buffer":0,
			"byteLength":5508,
			"byteOffset":77184,
			"target":34963
		}
	],
	"buffers":[
		{
			"byteLength":82692,
			"uri":"bonfire_01_m.bin"
		}
	]
}
