{
	"asset":{
		"generator":"Khronos glTF Blender I/O v4.5.47",
		"version":"2.0"
	},
	"scene":0,
	"scenes":[
		{
			"name":"Scene",
			"nodes":[
				0
			]
		}
	],
	"nodes":[
		{
			"mesh":0,
			"name":"deco_01",
			"rotation":[
				0.7071068286895752,
				0,
				0,
				0.7071068286895752
			]
		}
	],
	"meshes":[
		{
			"name":"deco_01",
			"primitives":[
				{
					"attributes":{
						"POSITION":0,
						"NORMAL":1,
						"TEXCOORD_0":2
					},
					"indices":3
				}
			]
		}
	],
	"accessors":[
		{
			"bufferView":0,
			"componentType":5126,
			"count":834,
			"max":[
				0.07700400054454803,
				0.05030599981546402,
				0.0005179999861866236
			],
			"min":[
				-0.07728300243616104,
				-0.05904199928045273,
				-0.3984389901161194
			],
			"type":"VEC3"
		},
		{
			"bufferView":1,
			"componentType":5126,
			"count":834,
			"type":"VEC3"
		},
		{
			"bufferView":2,
			"componentType":5126,
			"count":834,
			"type":"VEC2"
		},
		{
			"bufferView":3,
			"componentType":5123,
			"count":888,
			"type":"SCALAR"
		}
	],
	"bufferViews":[
		{
			"buffer":0,
			"byteLength":10008,
			"byteOffset":0,
			"target":34962
		},
		{
			"buffer":0,
			"byteLength":10008,
			"byteOffset":10008,
			"target":34962
		},
		{
			"buffer":0,
			"byteLength":6672,
			"byteOffset":20016,
			"target":34962
		},
		{
			"buffer":0,
			"byteLength":1776,
			"byteOffset":26688,
			"target":34963
		}
	],
	"buffers":[
		{
			"byteLength":28464,
			"uri":"deco_01.bin"
		}
	]
}
