{
	"asset":{
		"generator":"Khronos glTF Blender I/O v4.5.47",
		"version":"2.0"
	},
	"scene":0,
	"scenes":[
		{
			"name":"Scene",
			"nodes":[
				0
			]
		}
	],
	"nodes":[
		{
			"mesh":0,
			"name":"middle_part_02",
			"rotation":[
				0,
				-0.7867140173912048,
				0,
				0.6173176765441895
			],
			"scale":[
				0.4499998092651367,
				0.44999998807907104,
				0.4499998092651367
			],
			"translation":[
				0.4952844977378845,
				0.2739032208919525,
				-9.538036346435547
			]
		}
	],
	"meshes":[
		{
			"name":"Mesh_45",
			"primitives":[
				{
					"attributes":{
						"POSITION":0,
						"NORMAL":1,
						"TEXCOORD_0":2
					},
					"indices":3
				}
			]
		}
	],
	"accessors":[
		{
			"bufferView":0,
			"componentType":5126,
			"count":506,
			"max":[
				41.69102478027344,
				2.381991635047598e-06,
				14.255908966064453
			],
			"min":[
				-57.92974853515625,
				-1.1966342299274402e-06,
				-21.925281524658203
			],
			"type":"VEC3"
		},
		{
			"bufferView":1,
			"componentType":5126,
			"count":506,
			"type":"VEC3"
		},
		{
			"bufferView":2,
			"componentType":5126,
			"count":506,
			"type":"VEC2"
		},
		{
			"bufferView":3,
			"componentType":5123,
			"count":1224,
			"type":"SCALAR"
		}
	],
	"bufferViews":[
		{
			"buffer":0,
			"byteLength":6072,
			"byteOffset":0,
			"target":34962
		},
		{
			"buffer":0,
			"byteLength":6072,
			"byteOffset":6072,
			"target":34962
		},
		{
			"buffer":0,
			"byteLength":4048,
			"byteOffset":12144,
			"target":34962
		},
		{
			"buffer":0,
			"byteLength":2448,
			"byteOffset":16192,
			"target":34963
		}
	],
	"buffers":[
		{
			"byteLength":18640,
			"uri":"path_baked_01.bin"
		}
	]
}
