{
	"asset":{
		"generator":"Khronos glTF Blender I/O v4.5.47",
		"version":"2.0"
	},
	"scene":0,
	"scenes":[
		{
			"name":"Scene",
			"nodes":[
				0
			]
		}
	],
	"nodes":[
		{
			"mesh":0,
			"name":"Modular_Pillar.004",
			"rotation":[
				0.7071068286895752,
				0,
				0,
				0.7071068286895752
			]
		}
	],
	"meshes":[
		{
			"name":"Modular_Pillar.004",
			"primitives":[
				{
					"attributes":{
						"POSITION":0,
						"NORMAL":1,
						"TEXCOORD_0":2
					},
					"indices":3
				}
			]
		}
	],
	"accessors":[
		{
			"bufferView":0,
			"componentType":5126,
			"count":7657,
			"max":[
				0.6151390075683594,
				0.6237159967422485,
				0.005200000014156103
			],
			"min":[
				-0.6390789747238159,
				-0.6283479928970337,
				-6.335787773132324
			],
			"type":"VEC3"
		},
		{
			"bufferView":1,
			"componentType":5126,
			"count":7657,
			"type":"VEC3"
		},
		{
			"bufferView":2,
			"componentType":5126,
			"count":7657,
			"type":"VEC2"
		},
		{
			"bufferView":3,
			"componentType":5123,
			"count":8082,
			"type":"SCALAR"
		}
	],
	"bufferViews":[
		{
			"buffer":0,
			"byteLength":91884,
			"byteOffset":0,
			"target":34962
		},
		{
			"buffer":0,
			"byteLength":91884,
			"byteOffset":91884,
			"target":34962
		},
		{
			"buffer":0,
			"byteLength":61256,
			"byteOffset":183768,
			"target":34962
		},
		{
			"buffer":0,
			"byteLength":16164,
			"byteOffset":245024,
			"target":34963
		}
	],
	"buffers":[
		{
			"byteLength":261188,
			"uri":"pillar_01.bin"
		}
	]
}
