{
	"asset":{
		"generator":"Khronos glTF Blender I/O v4.5.47",
		"version":"2.0"
	},
	"scene":0,
	"scenes":[
		{
			"name":"Scene",
			"nodes":[
				0
			]
		}
	],
	"nodes":[
		{
			"mesh":0,
			"name":"long_hanging_ribbon",
			"rotation":[
				0.7071068286895752,
				0,
				0,
				0.7071068286895752
			]
		}
	],
	"meshes":[
		{
			"name":"Mesh",
			"primitives":[
				{
					"attributes":{
						"POSITION":0,
						"NORMAL":1,
						"TEXCOORD_0":2
					},
					"indices":3
				}
			]
		}
	],
	"accessors":[
		{
			"bufferView":0,
			"componentType":5126,
			"count":2660,
			"max":[
				0.027723338454961777,
				1.7443716526031494,
				0.729569673538208
			],
			"min":[
				-0.15526807308197021,
				-3.0831029415130615,
				-2.901277780532837
			],
			"type":"VEC3"
		},
		{
			"bufferView":1,
			"componentType":5126,
			"count":2660,
			"type":"VEC3"
		},
		{
			"bufferView":2,
			"componentType":5126,
			"count":2660,
			"type":"VEC2"
		},
		{
			"bufferView":3,
			"componentType":5123,
			"count":3990,
			"type":"SCALAR"
		}
	],
	"bufferViews":[
		{
			"buffer":0,
			"byteLength":31920,
			"byteOffset":0,
			"target":34962
		},
		{
			"buffer":0,
			"byteLength":31920,
			"byteOffset":31920,
			"target":34962
		},
		{
			"buffer":0,
			"byteLength":21280,
			"byteOffset":63840,
			"target":34962
		},
		{
			"buffer":0,
			"byteLength":7980,
			"byteOffset":85120,
			"target":34963
		}
	],
	"buffers":[
		{
			"byteLength":93100,
			"uri":"long_hanging_ribbon_sub_d.bin"
		}
	]
}
