{
	"asset":{
		"generator":"Khronos glTF Blender I/O v4.5.47",
		"version":"2.0"
	},
	"scene":0,
	"scenes":[
		{
			"name":"Scene",
			"nodes":[
				0
			]
		}
	],
	"nodes":[
		{
			"mesh":0,
			"name":"wrapping_01",
			"rotation":[
				0.7071068286895752,
				0,
				0,
				0.7071068286895752
			]
		}
	],
	"meshes":[
		{
			"name":"B\u00e9zierCircle",
			"primitives":[
				{
					"attributes":{
						"POSITION":0,
						"NORMAL":1,
						"TEXCOORD_0":2
					},
					"indices":3
				}
			]
		}
	],
	"accessors":[
		{
			"bufferView":0,
			"componentType":5126,
			"count":2188,
			"max":[
				0.43430399894714355,
				0.4319489896297455,
				0.11233100295066833
			],
			"min":[
				-0.43435800075531006,
				-0.4234730005264282,
				-0.1135300025343895
			],
			"type":"VEC3"
		},
		{
			"bufferView":1,
			"componentType":5126,
			"count":2188,
			"type":"VEC3"
		},
		{
			"bufferView":2,
			"componentType":5126,
			"count":2188,
			"type":"VEC2"
		},
		{
			"bufferView":3,
			"componentType":5123,
			"count":2532,
			"type":"SCALAR"
		}
	],
	"bufferViews":[
		{
			"buffer":0,
			"byteLength":26256,
			"byteOffset":0,
			"target":34962
		},
		{
			"buffer":0,
			"byteLength":26256,
			"byteOffset":26256,
			"target":34962
		},
		{
			"buffer":0,
			"byteLength":17504,
			"byteOffset":52512,
			"target":34962
		},
		{
			"buffer":0,
			"byteLength":5064,
			"byteOffset":70016,
			"target":34963
		}
	],
	"buffers":[
		{
			"byteLength":75080,
			"uri":"wrapping_01.bin"
		}
	]
}
