{
	"asset":{
		"generator":"Khronos glTF Blender I/O v4.5.47",
		"version":"2.0"
	},
	"scene":0,
	"scenes":[
		{
			"name":"Scene",
			"nodes":[
				0
			]
		}
	],
	"nodes":[
		{
			"mesh":0,
			"name":"Antique_Ceramic_Vase_01",
			"rotation":[
				0.7071068286895752,
				0,
				0,
				0.7071068286895752
			]
		}
	],
	"meshes":[
		{
			"name":"Antique_Ceramic_Vase_01",
			"primitives":[
				{
					"attributes":{
						"POSITION":0,
						"NORMAL":1,
						"TEXCOORD_0":2
					},
					"indices":3
				}
			]
		}
	],
	"accessors":[
		{
			"bufferView":0,
			"componentType":5126,
			"count":1224,
			"max":[
				0.15796400606632233,
				0.15782999992370605,
				-0.0004900000058114529
			],
			"min":[
				-0.15675599873065948,
				-0.15796400606632233,
				-0.4882349967956543
			],
			"type":"VEC3"
		},
		{
			"bufferView":1,
			"componentType":5126,
			"count":1224,
			"type":"VEC3"
		},
		{
			"bufferView":2,
			"componentType":5126,
			"count":1224,
			"type":"VEC2"
		},
		{
			"bufferView":3,
			"componentType":5123,
			"count":1266,
			"type":"SCALAR"
		}
	],
	"bufferViews":[
		{
			"buffer":0,
			"byteLength":14688,
			"byteOffset":0,
			"target":34962
		},
		{
			"buffer":0,
			"byteLength":14688,
			"byteOffset":14688,
			"target":34962
		},
		{
			"buffer":0,
			"byteLength":9792,
			"byteOffset":29376,
			"target":34962
		},
		{
			"buffer":0,
			"byteLength":2532,
			"byteOffset":39168,
			"target":34963
		}
	],
	"buffers":[
		{
			"byteLength":41700,
			"uri":"vase_01.bin"
		}
	]
}
