{
	"asset":{
		"generator":"Khronos glTF Blender I/O v4.5.47",
		"version":"2.0"
	},
	"scene":0,
	"scenes":[
		{
			"name":"Scene",
			"nodes":[
				0
			]
		}
	],
	"nodes":[
		{
			"mesh":0,
			"name":"straw_house",
			"translation":[
				0.06067599356174469,
				4.911742687225342,
				0.0015259254723787308
			]
		}
	],
	"meshes":[
		{
			"name":"Cylinder.034",
			"primitives":[
				{
					"attributes":{
						"POSITION":0,
						"NORMAL":1,
						"TEXCOORD_0":2
					},
					"indices":3
				}
			]
		}
	],
	"accessors":[
		{
			"bufferView":0,
			"componentType":5126,
			"count":12534,
			"max":[
				2.5922396183013916,
				3.4285988807678223,
				2.6422922611236572
			],
			"min":[
				-2.963876724243164,
				-4.911742687225342,
				-2.641721487045288
			],
			"type":"VEC3"
		},
		{
			"bufferView":1,
			"componentType":5126,
			"count":12534,
			"type":"VEC3"
		},
		{
			"bufferView":2,
			"componentType":5126,
			"count":12534,
			"type":"VEC2"
		},
		{
			"bufferView":3,
			"componentType":5123,
			"count":19674,
			"type":"SCALAR"
		}
	],
	"bufferViews":[
		{
			"buffer":0,
			"byteLength":150408,
			"byteOffset":0,
			"target":34962
		},
		{
			"buffer":0,
			"byteLength":150408,
			"byteOffset":150408,
			"target":34962
		},
		{
			"buffer":0,
			"byteLength":100272,
			"byteOffset":300816,
			"target":34962
		},
		{
			"buffer":0,
			"byteLength":39348,
			"byteOffset":401088,
			"target":34963
		}
	],
	"buffers":[
		{
			"byteLength":440436,
			"uri":"straw_house.bin"
		}
	]
}
