{
	"asset":{
		"generator":"Khronos glTF Blender I/O v4.5.47",
		"version":"2.0"
	},
	"scene":0,
	"scenes":[
		{
			"name":"Scene",
			"nodes":[
				0
			]
		}
	],
	"nodes":[
		{
			"mesh":0,
			"name":"windmill.004"
		}
	],
	"meshes":[
		{
			"name":"Cylinder.033",
			"primitives":[
				{
					"attributes":{
						"POSITION":0,
						"NORMAL":1,
						"TEXCOORD_0":2
					},
					"indices":3
				}
			]
		}
	],
	"accessors":[
		{
			"bufferView":0,
			"componentType":5126,
			"count":3816,
			"max":[
				0.2006588578224182,
				6.829444885253906,
				6.82944393157959
			],
			"min":[
				-0.19934147596359253,
				-6.829437255859375,
				-6.829443454742432
			],
			"type":"VEC3"
		},
		{
			"bufferView":1,
			"componentType":5126,
			"count":3816,
			"type":"VEC3"
		},
		{
			"bufferView":2,
			"componentType":5126,
			"count":3816,
			"type":"VEC2"
		},
		{
			"bufferView":3,
			"componentType":5123,
			"count":5748,
			"type":"SCALAR"
		}
	],
	"bufferViews":[
		{
			"buffer":0,
			"byteLength":45792,
			"byteOffset":0,
			"target":34962
		},
		{
			"buffer":0,
			"byteLength":45792,
			"byteOffset":45792,
			"target":34962
		},
		{
			"buffer":0,
			"byteLength":30528,
			"byteOffset":91584,
			"target":34962
		},
		{
			"buffer":0,
			"byteLength":11496,
			"byteOffset":122112,
			"target":34963
		}
	],
	"buffers":[
		{
			"byteLength":133608,
			"uri":"windmill_02_m.bin"
		}
	]
}
