{
	"asset":{
		"generator":"Khronos glTF Blender I/O v4.5.47",
		"version":"2.0"
	},
	"scene":0,
	"scenes":[
		{
			"name":"Scene",
			"nodes":[
				0
			]
		}
	],
	"nodes":[
		{
			"mesh":0,
			"name":"windmill"
		}
	],
	"meshes":[
		{
			"name":"Cylinder.048",
			"primitives":[
				{
					"attributes":{
						"POSITION":0,
						"NORMAL":1,
						"TEXCOORD_0":2
					},
					"indices":3
				}
			]
		}
	],
	"accessors":[
		{
			"bufferView":0,
			"componentType":5126,
			"count":5685,
			"max":[
				3.84493088722229,
				16.725004196166992,
				3.84493088722229
			],
			"min":[
				-3.84493088722229,
				-0.1280364990234375,
				-3.84493088722229
			],
			"type":"VEC3"
		},
		{
			"bufferView":1,
			"componentType":5126,
			"count":5685,
			"type":"VEC3"
		},
		{
			"bufferView":2,
			"componentType":5126,
			"count":5685,
			"type":"VEC2"
		},
		{
			"bufferView":3,
			"componentType":5123,
			"count":9360,
			"type":"SCALAR"
		}
	],
	"bufferViews":[
		{
			"buffer":0,
			"byteLength":68220,
			"byteOffset":0,
			"target":34962
		},
		{
			"buffer":0,
			"byteLength":68220,
			"byteOffset":68220,
			"target":34962
		},
		{
			"buffer":0,
			"byteLength":45480,
			"byteOffset":136440,
			"target":34962
		},
		{
			"buffer":0,
			"byteLength":18720,
			"byteOffset":181920,
			"target":34963
		}
	],
	"buffers":[
		{
			"byteLength":200640,
			"uri":"windmill_01_m.bin"
		}
	]
}
