{
	"asset":{
		"generator":"Khronos glTF Blender I/O v4.5.47",
		"version":"2.0"
	},
	"scene":0,
	"scenes":[
		{
			"name":"Scene",
			"nodes":[
				0
			]
		}
	],
	"nodes":[
		{
			"mesh":0,
			"name":"bell_01",
			"rotation":[
				0.7071068286895752,
				0,
				0,
				0.7071068286895752
			]
		}
	],
	"meshes":[
		{
			"name":"Bronze_Bell",
			"primitives":[
				{
					"attributes":{
						"POSITION":0,
						"NORMAL":1,
						"TEXCOORD_0":2
					},
					"indices":3
				}
			]
		}
	],
	"accessors":[
		{
			"bufferView":0,
			"componentType":5126,
			"count":1544,
			"max":[
				0.16783000528812408,
				0.16767600178718567,
				0.0006380000268109143
			],
			"min":[
				-0.16753700375556946,
				-0.1676899939775467,
				-0.7130380272865295
			],
			"type":"VEC3"
		},
		{
			"bufferView":1,
			"componentType":5126,
			"count":1544,
			"type":"VEC3"
		},
		{
			"bufferView":2,
			"componentType":5126,
			"count":1544,
			"type":"VEC2"
		},
		{
			"bufferView":3,
			"componentType":5123,
			"count":1665,
			"type":"SCALAR"
		}
	],
	"bufferViews":[
		{
			"buffer":0,
			"byteLength":18528,
			"byteOffset":0,
			"target":34962
		},
		{
			"buffer":0,
			"byteLength":18528,
			"byteOffset":18528,
			"target":34962
		},
		{
			"buffer":0,
			"byteLength":12352,
			"byteOffset":37056,
			"target":34962
		},
		{
			"buffer":0,
			"byteLength":3330,
			"byteOffset":49408,
			"target":34963
		}
	],
	"buffers":[
		{
			"byteLength":52740,
			"uri":"bell_01.bin"
		}
	]
}
