{
	"asset":{
		"generator":"Khronos glTF Blender I/O v4.5.47",
		"version":"2.0"
	},
	"scene":0,
	"scenes":[
		{
			"name":"Scene",
			"nodes":[
				0,
				1,
				2,
				3,
				4,
				5,
				6,
				7,
				8
			]
		}
	],
	"nodes":[
		{
			"mesh":0,
			"name":"tombstone_small.012_tombstones_0",
			"scale":[
				1.350000023841858,
				1.350000023841858,
				1.350000023841858
			]
		},
		{
			"mesh":1,
			"name":"tombstone_cross.006_tombstones_0",
			"scale":[
				1.350000023841858,
				1.350000023841858,
				1.350000023841858
			]
		},
		{
			"mesh":2,
			"name":"tonbstone_large.006_tombstones_0",
			"scale":[
				1.350000023841858,
				1.350000023841858,
				1.350000023841858
			]
		},
		{
			"mesh":3,
			"name":"ghost.007_characters_0",
			"scale":[
				1.350000023841858,
				1.350000023841858,
				1.350000023841858
			]
		},
		{
			"mesh":4,
			"name":"gate_R.006_fence_0",
			"scale":[
				1.350000023841858,
				1.350000023841858,
				1.350000023841858
			]
		},
		{
			"mesh":5,
			"name":"gate_L.006_fence_0",
			"scale":[
				1.350000023841858,
				1.350000023841858,
				1.350000023841858
			]
		},
		{
			"mesh":6,
			"name":"fence_post.016_fence_0",
			"scale":[
				1.350000023841858,
				1.350000023841858,
				1.350000023841858
			]
		},
		{
			"mesh":7,
			"name":"fence.040_fence_0",
			"scale":[
				1.350000023841858,
				1.350000023841858,
				1.350000023841858
			]
		},
		{
			"mesh":8,
			"name":"fence.041_fence_0",
			"scale":[
				1.350000023841858,
				1.350000023841858,
				1.350000023841858
			]
		}
	],
	"meshes":[
		{
			"name":"tombstone_small.012_tombstones_0",
			"primitives":[
				{
					"attributes":{
						"POSITION":0,
						"NORMAL":1,
						"TEXCOORD_0":2
					},
					"indices":3
				}
			]
		},
		{
			"name":"tombstone_cross.006_tombstones_0",
			"primitives":[
				{
					"attributes":{
						"POSITION":4,
						"NORMAL":5,
						"TEXCOORD_0":6
					},
					"indices":7
				}
			]
		},
		{
			"name":"tonbstone_large.006_tombstones_0",
			"primitives":[
				{
					"attributes":{
						"POSITION":8,
						"NORMAL":9,
						"TEXCOORD_0":10
					},
					"indices":11
				}
			]
		},
		{
			"name":"ghost.007_characters_0",
			"primitives":[
				{
					"attributes":{
						"POSITION":12,
						"NORMAL":13,
						"TEXCOORD_0":14
					},
					"indices":15
				}
			]
		},
		{
			"name":"gate_R.006_fence_0",
			"primitives":[
				{
					"attributes":{
						"POSITION":16,
						"NORMAL":17,
						"TEXCOORD_0":18
					},
					"indices":19
				}
			]
		},
		{
			"name":"gate_L.006_fence_0",
			"primitives":[
				{
					"attributes":{
						"POSITION":20,
						"NORMAL":21,
						"TEXCOORD_0":22
					},
					"indices":23
				}
			]
		},
		{
			"name":"fence_post.016_fence_0",
			"primitives":[
				{
					"attributes":{
						"POSITION":24,
						"NORMAL":25,
						"TEXCOORD_0":26
					},
					"indices":27
				}
			]
		},
		{
			"name":"fence.040_fence_0",
			"primitives":[
				{
					"attributes":{
						"POSITION":28,
						"NORMAL":29,
						"TEXCOORD_0":30
					},
					"indices":31
				}
			]
		},
		{
			"name":"fence.041_fence_0",
			"primitives":[
				{
					"attributes":{
						"POSITION":32,
						"NORMAL":33,
						"TEXCOORD_0":34
					},
					"indices":35
				}
			]
		}
	],
	"accessors":[
		{
			"bufferView":0,
			"componentType":5126,
			"count":86,
			"max":[
				-0.49552643299102783,
				0.20250093936920166,
				0.8758636713027954
			],
			"min":[
				-0.6532571911811829,
				0.024507347494363785,
				0.8138943910598755
			],
			"type":"VEC3"
		},
		{
			"bufferView":1,
			"componentType":5126,
			"count":86,
			"type":"VEC3"
		},
		{
			"bufferView":2,
			"componentType":5126,
			"count":86,
			"type":"VEC2"
		},
		{
			"bufferView":3,
			"componentType":5123,
			"count":120,
			"type":"SCALAR"
		},
		{
			"bufferView":4,
			"componentType":5126,
			"count":740,
			"max":[
				-0.39135557413101196,
				0.4005413055419922,
				0.2342585027217865
			],
			"min":[
				-0.6969465017318726,
				-0.02043457329273224,
				0.1080099493265152
			],
			"type":"VEC3"
		},
		{
			"bufferView":5,
			"componentType":5126,
			"count":740,
			"type":"VEC3"
		},
		{
			"bufferView":6,
			"componentType":5126,
			"count":740,
			"type":"VEC2"
		},
		{
			"bufferView":7,
			"componentType":5123,
			"count":1008,
			"type":"SCALAR"
		},
		{
			"bufferView":8,
			"componentType":5126,
			"count":439,
			"max":[
				0.5764328241348267,
				0.3855687975883484,
				0.5297413468360901
			],
			"min":[
				0.30477455258369446,
				-0.037374816834926605,
				0.3768594563007355
			],
			"type":"VEC3"
		},
		{
			"bufferView":9,
			"componentType":5126,
			"count":439,
			"type":"VEC3"
		},
		{
			"bufferView":10,
			"componentType":5126,
			"count":439,
			"type":"VEC2"
		},
		{
			"bufferView":11,
			"componentType":5123,
			"count":588,
			"type":"SCALAR"
		},
		{
			"bufferView":12,
			"componentType":5126,
			"count":1791,
			"max":[
				-0.6613835096359253,
				0.2637275457382202,
				0.0390704870223999
			],
			"min":[
				-0.8172592520713806,
				-0.007085032761096954,
				-0.12982642650604248
			],
			"type":"VEC3"
		},
		{
			"bufferView":13,
			"componentType":5126,
			"count":1791,
			"type":"VEC3"
		},
		{
			"bufferView":14,
			"componentType":5126,
			"count":1791,
			"type":"VEC2"
		},
		{
			"bufferView":15,
			"componentType":5123,
			"count":1791,
			"type":"SCALAR"
		},
		{
			"bufferView":16,
			"componentType":5126,
			"count":1142,
			"max":[
				0.2214369773864746,
				0.38501983880996704,
				-0.7261983156204224
			],
			"min":[
				-0.015075534582138062,
				-0.02668727934360504,
				-0.7887303233146667
			],
			"type":"VEC3"
		},
		{
			"bufferView":17,
			"componentType":5126,
			"count":1142,
			"type":"VEC3"
		},
		{
			"bufferView":18,
			"componentType":5126,
			"count":1142,
			"type":"VEC2"
		},
		{
			"bufferView":19,
			"componentType":5123,
			"count":1638,
			"type":"SCALAR"
		},
		{
			"bufferView":20,
			"componentType":5126,
			"count":884,
			"max":[
				0.012210741639137268,
				0.38644230365753174,
				-0.7486537098884583
			],
			"min":[
				-0.1984296590089798,
				-0.025264807045459747,
				-0.7786938548088074
			],
			"type":"VEC3"
		},
		{
			"bufferView":21,
			"componentType":5126,
			"count":884,
			"type":"VEC3"
		},
		{
			"bufferView":22,
			"componentType":5126,
			"count":884,
			"type":"VEC2"
		},
		{
			"bufferView":23,
			"componentType":5123,
			"count":1308,
			"type":"SCALAR"
		},
		{
			"bufferView":24,
			"componentType":5126,
			"count":6496,
			"max":[
				0.9220076203346252,
				0.45489704608917236,
				1.0702319145202637
			],
			"min":[
				-0.9627208113670349,
				-0.06881701946258545,
				-0.7983852028846741
			],
			"type":"VEC3"
		},
		{
			"bufferView":25,
			"componentType":5126,
			"count":6496,
			"type":"VEC3"
		},
		{
			"bufferView":26,
			"componentType":5126,
			"count":6496,
			"type":"VEC2"
		},
		{
			"bufferView":27,
			"componentType":5123,
			"count":8736,
			"type":"SCALAR"
		},
		{
			"bufferView":28,
			"componentType":5126,
			"count":9262,
			"max":[
				0.8997201323509216,
				0.3709968328475952,
				1.0616137981414795
			],
			"min":[
				-0.9413095116615295,
				-0.01269589364528656,
				-0.7812905311584473
			],
			"type":"VEC3"
		},
		{
			"bufferView":29,
			"componentType":5126,
			"count":9262,
			"type":"VEC3"
		},
		{
			"bufferView":30,
			"componentType":5126,
			"count":9262,
			"type":"VEC2"
		},
		{
			"bufferView":31,
			"componentType":5123,
			"count":12546,
			"type":"SCALAR"
		},
		{
			"bufferView":32,
			"componentType":5126,
			"count":490,
			"max":[
				0.8945026993751526,
				0.33603435754776,
				-0.5341436862945557
			],
			"min":[
				0.7923387289047241,
				0.0323372557759285,
				-0.7666512727737427
			],
			"type":"VEC3"
		},
		{
			"bufferView":33,
			"componentType":5126,
			"count":490,
			"type":"VEC3"
		},
		{
			"bufferView":34,
			"componentType":5126,
			"count":490,
			"type":"VEC2"
		},
		{
			"bufferView":35,
			"componentType":5123,
			"count":510,
			"type":"SCALAR"
		}
	],
	"bufferViews":[
		{
			"buffer":0,
			"byteLength":1032,
			"byteOffset":0,
			"target":34962
		},
		{
			"buffer":0,
			"byteLength":1032,
			"byteOffset":1032,
			"target":34962
		},
		{
			"buffer":0,
			"byteLength":688,
			"byteOffset":2064,
			"target":34962
		},
		{
			"buffer":0,
			"byteLength":240,
			"byteOffset":2752,
			"target":34963
		},
		{
			"buffer":0,
			"byteLength":8880,
			"byteOffset":2992,
			"target":34962
		},
		{
			"buffer":0,
			"byteLength":8880,
			"byteOffset":11872,
			"target":34962
		},
		{
			"buffer":0,
			"byteLength":5920,
			"byteOffset":20752,
			"target":34962
		},
		{
			"buffer":0,
			"byteLength":2016,
			"byteOffset":26672,
			"target":34963
		},
		{
			"buffer":0,
			"byteLength":5268,
			"byteOffset":28688,
			"target":34962
		},
		{
			"buffer":0,
			"byteLength":5268,
			"byteOffset":33956,
			"target":34962
		},
		{
			"buffer":0,
			"byteLength":3512,
			"byteOffset":39224,
			"target":34962
		},
		{
			"buffer":0,
			"byteLength":1176,
			"byteOffset":42736,
			"target":34963
		},
		{
			"buffer":0,
			"byteLength":21492,
			"byteOffset":43912,
			"target":34962
		},
		{
			"buffer":0,
			"byteLength":21492,
			"byteOffset":65404,
			"target":34962
		},
		{
			"buffer":0,
			"byteLength":14328,
			"byteOffset":86896,
			"target":34962
		},
		{
			"buffer":0,
			"byteLength":3582,
			"byteOffset":101224,
			"target":34963
		},
		{
			"buffer":0,
			"byteLength":13704,
			"byteOffset":104808,
			"target":34962
		},
		{
			"buffer":0,
			"byteLength":13704,
			"byteOffset":118512,
			"target":34962
		},
		{
			"buffer":0,
			"byteLength":9136,
			"byteOffset":132216,
			"target":34962
		},
		{
			"buffer":0,
			"byteLength":3276,
			"byteOffset":141352,
			"target":34963
		},
		{
			"buffer":0,
			"byteLength":10608,
			"byteOffset":144628,
			"target":34962
		},
		{
			"buffer":0,
			"byteLength":10608,
			"byteOffset":155236,
			"target":34962
		},
		{
			"buffer":0,
			"byteLength":7072,
			"byteOffset":165844,
			"target":34962
		},
		{
			"buffer":0,
			"byteLength":2616,
			"byteOffset":172916,
			"target":34963
		},
		{
			"buffer":0,
			"byteLength":77952,
			"byteOffset":175532,
			"target":34962
		},
		{
			"buffer":0,
			"byteLength":77952,
			"byteOffset":253484,
			"target":34962
		},
		{
			"buffer":0,
			"byteLength":51968,
			"byteOffset":331436,
			"target":34962
		},
		{
			"buffer":0,
			"byteLength":17472,
			"byteOffset":383404,
			"target":34963
		},
		{
			"buffer":0,
			"byteLength":111144,
			"byteOffset":400876,
			"target":34962
		},
		{
			"buffer":0,
			"byteLength":111144,
			"byteOffset":512020,
			"target":34962
		},
		{
			"buffer":0,
			"byteLength":74096,
			"byteOffset":623164,
			"target":34962
		},
		{
			"buffer":0,
			"byteLength":25092,
			"byteOffset":697260,
			"target":34963
		},
		{
			"buffer":0,
			"byteLength":5880,
			"byteOffset":722352,
			"target":34962
		},
		{
			"buffer":0,
			"byteLength":5880,
			"byteOffset":728232,
			"target":34962
		},
		{
			"buffer":0,
			"byteLength":3920,
			"byteOffset":734112,
			"target":34962
		},
		{
			"buffer":0,
			"byteLength":1020,
			"byteOffset":738032,
			"target":34963
		}
	],
	"buffers":[
		{
			"byteLength":739052,
			"uri":"graveyard.bin"
		}
	]
}
