{
	"asset":{
		"generator":"Khronos glTF Blender I/O v4.5.47",
		"version":"2.0"
	},
	"scene":0,
	"scenes":[
		{
			"name":"Scene",
			"nodes":[
				0,
				1,
				2
			]
		}
	],
	"nodes":[
		{
			"mesh":0,
			"name":"graveyard"
		},
		{
			"mesh":1,
			"name":"gate_R",
			"scale":[
				1.350000023841858,
				1.350000023841858,
				1.350000023841858
			],
			"translation":[
				0.2799844443798065,
				0.09383706003427505,
				-0.9993351101875305
			]
		},
		{
			"mesh":2,
			"name":"gate_L",
			"scale":[
				1.350000023841858,
				1.350000023841858,
				1.350000023841858
			],
			"translation":[
				-0.2487090528011322,
				0.09388866275548935,
				-1.0287386178970337
			]
		}
	],
	"meshes":[
		{
			"name":"tombstone_cross.006_tombstones_0",
			"primitives":[
				{
					"attributes":{
						"POSITION":0,
						"NORMAL":1,
						"TEXCOORD_0":2
					},
					"indices":3
				}
			]
		},
		{
			"name":"gate_R.006_fence_0",
			"primitives":[
				{
					"attributes":{
						"POSITION":4,
						"NORMAL":5,
						"TEXCOORD_0":6
					},
					"indices":7
				}
			]
		},
		{
			"name":"gate_L.006_fence_0",
			"primitives":[
				{
					"attributes":{
						"POSITION":8,
						"NORMAL":9,
						"TEXCOORD_0":10
					},
					"indices":11
				}
			]
		}
	],
	"accessors":[
		{
			"bufferView":0,
			"componentType":5126,
			"count":17391,
			"max":[
				1.244710087776184,
				0.6141109466552734,
				1.4448128938674927
			],
			"min":[
				-1.2996729612350464,
				-0.09290292859077454,
				-1.0778199434280396
			],
			"type":"VEC3"
		},
		{
			"bufferView":1,
			"componentType":5126,
			"count":17391,
			"type":"VEC3"
		},
		{
			"bufferView":2,
			"componentType":5126,
			"count":17391,
			"type":"VEC2"
		},
		{
			"bufferView":3,
			"componentType":5123,
			"count":23628,
			"type":"SCALAR"
		},
		{
			"bufferView":4,
			"componentType":5126,
			"count":1142,
			"max":[
				0.014041095972061157,
				0.31551089882850647,
				0.014049887657165527
			],
			"min":[
				-0.2224714159965515,
				-0.09619621187448502,
				-0.04848212003707886
			],
			"type":"VEC3"
		},
		{
			"bufferView":5,
			"componentType":5126,
			"count":1142,
			"type":"VEC3"
		},
		{
			"bufferView":6,
			"componentType":5126,
			"count":1142,
			"type":"VEC2"
		},
		{
			"bufferView":7,
			"componentType":5123,
			"count":1638,
			"type":"SCALAR"
		},
		{
			"bufferView":8,
			"componentType":5126,
			"count":884,
			"max":[
				0.19643966853618622,
				0.31689515709877014,
				0.013374924659729004
			],
			"min":[
				-0.014200732111930847,
				-0.09481196105480194,
				-0.016665220260620117
			],
			"type":"VEC3"
		},
		{
			"bufferView":9,
			"componentType":5126,
			"count":884,
			"type":"VEC3"
		},
		{
			"bufferView":10,
			"componentType":5126,
			"count":884,
			"type":"VEC2"
		},
		{
			"bufferView":11,
			"componentType":5123,
			"count":1308,
			"type":"SCALAR"
		}
	],
	"bufferViews":[
		{
			"buffer":0,
			"byteLength":208692,
			"byteOffset":0,
			"target":34962
		},
		{
			"buffer":0,
			"byteLength":208692,
			"byteOffset":208692,
			"target":34962
		},
		{
			"buffer":0,
			"byteLength":139128,
			"byteOffset":417384,
			"target":34962
		},
		{
			"buffer":0,
			"byteLength":47256,
			"byteOffset":556512,
			"target":34963
		},
		{
			"buffer":0,
			"byteLength":13704,
			"byteOffset":603768,
			"target":34962
		},
		{
			"buffer":0,
			"byteLength":13704,
			"byteOffset":617472,
			"target":34962
		},
		{
			"buffer":0,
			"byteLength":9136,
			"byteOffset":631176,
			"target":34962
		},
		{
			"buffer":0,
			"byteLength":3276,
			"byteOffset":640312,
			"target":34963
		},
		{
			"buffer":0,
			"byteLength":10608,
			"byteOffset":643588,
			"target":34962
		},
		{
			"buffer":0,
			"byteLength":10608,
			"byteOffset":654196,
			"target":34962
		},
		{
			"buffer":0,
			"byteLength":7072,
			"byteOffset":664804,
			"target":34962
		},
		{
			"buffer":0,
			"byteLength":2616,
			"byteOffset":671876,
			"target":34963
		}
	],
	"buffers":[
		{
			"byteLength":674492,
			"uri":"graveyard.bin"
		}
	]
}
