{
	"asset":{
		"generator":"Khronos glTF Blender I/O v4.5.47",
		"version":"2.0"
	},
	"scene":0,
	"scenes":[
		{
			"name":"Scene",
			"nodes":[
				0
			]
		}
	],
	"nodes":[
		{
			"mesh":0,
			"name":"stair_case_01"
		}
	],
	"meshes":[
		{
			"name":"LargeJ_PillarsMd.003",
			"primitives":[
				{
					"attributes":{
						"POSITION":0,
						"NORMAL":1,
						"TEXCOORD_0":2
					},
					"indices":3
				}
			]
		}
	],
	"accessors":[
		{
			"bufferView":0,
			"componentType":5126,
			"count":1769,
			"max":[
				4.050475120544434,
				2.3507909774780273,
				1.4441879987716675
			],
			"min":[
				-3.701582908630371,
				0.002650022506713867,
				-1.597337007522583
			],
			"type":"VEC3"
		},
		{
			"bufferView":1,
			"componentType":5126,
			"count":1769,
			"type":"VEC3"
		},
		{
			"bufferView":2,
			"componentType":5126,
			"count":1769,
			"type":"VEC2"
		},
		{
			"bufferView":3,
			"componentType":5123,
			"count":4134,
			"type":"SCALAR"
		}
	],
	"bufferViews":[
		{
			"buffer":0,
			"byteLength":21228,
			"byteOffset":0,
			"target":34962
		},
		{
			"buffer":0,
			"byteLength":21228,
			"byteOffset":21228,
			"target":34962
		},
		{
			"buffer":0,
			"byteLength":14152,
			"byteOffset":42456,
			"target":34962
		},
		{
			"buffer":0,
			"byteLength":8268,
			"byteOffset":56608,
			"target":34963
		}
	],
	"buffers":[
		{
			"byteLength":64876,
			"uri":"stair_case_01.bin"
		}
	]
}
