{
	"asset":{
		"generator":"Khronos glTF Blender I/O v4.5.47",
		"version":"2.0"
	},
	"scene":0,
	"scenes":[
		{
			"name":"Scene",
			"nodes":[
				0,
				1
			]
		}
	],
	"nodes":[
		{
			"mesh":0,
			"name":"Bonfire"
		},
		{
			"mesh":1,
			"name":"Bonfire.001"
		}
	],
	"meshes":[
		{
			"name":"Cube.006",
			"primitives":[
				{
					"attributes":{
						"POSITION":0,
						"NORMAL":1,
						"TEXCOORD_0":2
					},
					"indices":3
				}
			]
		},
		{
			"name":"Cube.001",
			"primitives":[
				{
					"attributes":{
						"POSITION":4,
						"NORMAL":5,
						"TEXCOORD_0":6
					},
					"indices":7
				}
			]
		}
	],
	"accessors":[
		{
			"bufferView":0,
			"componentType":5126,
			"count":462,
			"max":[
				0.6160287857055664,
				0.3014034032821655,
				0.582168459892273
			],
			"min":[
				-0.5939663648605347,
				-0.15383943915367126,
				-0.6384368538856506
			],
			"type":"VEC3"
		},
		{
			"bufferView":1,
			"componentType":5126,
			"count":462,
			"type":"VEC3"
		},
		{
			"bufferView":2,
			"componentType":5126,
			"count":462,
			"type":"VEC2"
		},
		{
			"bufferView":3,
			"componentType":5123,
			"count":588,
			"type":"SCALAR"
		},
		{
			"bufferView":4,
			"componentType":5126,
			"count":1950,
			"max":[
				0.804125964641571,
				0.2146712839603424,
				0.8614737391471863
			],
			"min":[
				-0.803616464138031,
				-0.2182050198316574,
				-0.8515443205833435
			],
			"type":"VEC3"
		},
		{
			"bufferView":5,
			"componentType":5126,
			"count":1950,
			"type":"VEC3"
		},
		{
			"bufferView":6,
			"componentType":5126,
			"count":1950,
			"type":"VEC2"
		},
		{
			"bufferView":7,
			"componentType":5123,
			"count":2166,
			"type":"SCALAR"
		}
	],
	"bufferViews":[
		{
			"buffer":0,
			"byteLength":5544,
			"byteOffset":0,
			"target":34962
		},
		{
			"buffer":0,
			"byteLength":5544,
			"byteOffset":5544,
			"target":34962
		},
		{
			"buffer":0,
			"byteLength":3696,
			"byteOffset":11088,
			"target":34962
		},
		{
			"buffer":0,
			"byteLength":1176,
			"byteOffset":14784,
			"target":34963
		},
		{
			"buffer":0,
			"byteLength":23400,
			"byteOffset":15960,
			"target":34962
		},
		{
			"buffer":0,
			"byteLength":23400,
			"byteOffset":39360,
			"target":34962
		},
		{
			"buffer":0,
			"byteLength":15600,
			"byteOffset":62760,
			"target":34962
		},
		{
			"buffer":0,
			"byteLength":4332,
			"byteOffset":78360,
			"target":34963
		}
	],
	"buffers":[
		{
			"byteLength":82692,
			"uri":"bonfire.bin"
		}
	]
}
