{
	"asset":{
		"generator":"Khronos glTF Blender I/O v4.5.47",
		"version":"2.0"
	},
	"scene":0,
	"scenes":[
		{
			"name":"Scene",
			"nodes":[
				0
			]
		}
	],
	"nodes":[
		{
			"mesh":0,
			"name":"tVFX_OB_TR_Lg.001",
			"rotation":[
				0.7071067690849304,
				0,
				0,
				0.7071068286895752
			],
			"scale":[
				0.7320687770843506,
				0.7320687770843506,
				0.7320687770843506
			]
		}
	],
	"meshes":[
		{
			"name":"tVFX_OB_TR_Lg.001",
			"primitives":[
				{
					"attributes":{
						"POSITION":0,
						"NORMAL":1,
						"TEXCOORD_0":2
					},
					"indices":3
				}
			]
		}
	],
	"accessors":[
		{
			"bufferView":0,
			"componentType":5126,
			"count":739,
			"max":[
				0.1704770028591156,
				0.44041699171066284,
				0.026683999225497246
			],
			"min":[
				-0.20657899975776672,
				-0.4023340046405792,
				-0.35552799701690674
			],
			"type":"VEC3"
		},
		{
			"bufferView":1,
			"componentType":5126,
			"count":739,
			"type":"VEC3"
		},
		{
			"bufferView":2,
			"componentType":5126,
			"count":739,
			"type":"VEC2"
		},
		{
			"bufferView":3,
			"componentType":5123,
			"count":741,
			"type":"SCALAR"
		}
	],
	"bufferViews":[
		{
			"buffer":0,
			"byteLength":8868,
			"byteOffset":0,
			"target":34962
		},
		{
			"buffer":0,
			"byteLength":8868,
			"byteOffset":8868,
			"target":34962
		},
		{
			"buffer":0,
			"byteLength":5912,
			"byteOffset":17736,
			"target":34962
		},
		{
			"buffer":0,
			"byteLength":1482,
			"byteOffset":23648,
			"target":34963
		}
	],
	"buffers":[
		{
			"byteLength":25132,
			"uri":"wood_log_01.bin"
		}
	]
}
