{
	"asset":{
		"generator":"Khronos glTF Blender I/O v4.5.47",
		"version":"2.0"
	},
	"scene":0,
	"scenes":[
		{
			"name":"Scene",
			"nodes":[
				0
			]
		}
	],
	"nodes":[
		{
			"mesh":0,
			"name":"wood_log_03"
		}
	],
	"meshes":[
		{
			"name":"Cube",
			"primitives":[
				{
					"attributes":{
						"POSITION":0,
						"NORMAL":1,
						"TEXCOORD_0":2
					},
					"indices":3
				}
			]
		}
	],
	"accessors":[
		{
			"bufferView":0,
			"componentType":5126,
			"count":90,
			"max":[
				0.2396196722984314,
				0.4802984595298767,
				1.5835802555084229
			],
			"min":[
				-0.2396196722984314,
				0.0010591000318527222,
				-1.5835802555084229
			],
			"type":"VEC3"
		},
		{
			"bufferView":1,
			"componentType":5126,
			"count":90,
			"type":"VEC3"
		},
		{
			"bufferView":2,
			"componentType":5126,
			"count":90,
			"type":"VEC2"
		},
		{
			"bufferView":3,
			"componentType":5123,
			"count":168,
			"type":"SCALAR"
		}
	],
	"bufferViews":[
		{
			"buffer":0,
			"byteLength":1080,
			"byteOffset":0,
			"target":34962
		},
		{
			"buffer":0,
			"byteLength":1080,
			"byteOffset":1080,
			"target":34962
		},
		{
			"buffer":0,
			"byteLength":720,
			"byteOffset":2160,
			"target":34962
		},
		{
			"buffer":0,
			"byteLength":336,
			"byteOffset":2880,
			"target":34963
		}
	],
	"buffers":[
		{
			"byteLength":3216,
			"uri":"wood_log_03.bin"
		}
	]
}
