{
	"asset":{
		"generator":"Khronos glTF Blender I/O v4.5.47",
		"version":"2.0"
	},
	"scene":0,
	"scenes":[
		{
			"name":"Scene",
			"nodes":[
				0,
				1,
				2,
				3
			]
		}
	],
	"nodes":[
		{
			"mesh":0,
			"name":"FireWindTemple"
		},
		{
			"mesh":1,
			"name":"FireWindTemple.001"
		},
		{
			"mesh":2,
			"name":"FireWindTemple.002"
		},
		{
			"mesh":3,
			"name":"FireWindTemple.003",
			"translation":[
				-0.001851155306212604,
				17.7543888092041,
				-0.00739836972206831
			]
		}
	],
	"meshes":[
		{
			"name":"Cube.007",
			"primitives":[
				{
					"attributes":{
						"POSITION":0,
						"NORMAL":1,
						"TEXCOORD_0":2
					},
					"indices":3
				}
			]
		},
		{
			"name":"Cube.008",
			"primitives":[
				{
					"attributes":{
						"POSITION":4,
						"NORMAL":5,
						"TEXCOORD_0":6
					},
					"indices":7
				}
			]
		},
		{
			"name":"Cube.009",
			"primitives":[
				{
					"attributes":{
						"POSITION":8,
						"NORMAL":9,
						"TEXCOORD_0":10
					},
					"indices":11
				}
			]
		},
		{
			"name":"Cube.011",
			"primitives":[
				{
					"attributes":{
						"POSITION":12,
						"NORMAL":13,
						"TEXCOORD_0":14
					},
					"indices":15
				}
			]
		}
	],
	"accessors":[
		{
			"bufferView":0,
			"componentType":5126,
			"count":128,
			"max":[
				12.448878288269043,
				27.064027786254883,
				12.367450714111328
			],
			"min":[
				-12.286032676696777,
				11.212852478027344,
				-12.367460250854492
			],
			"type":"VEC3"
		},
		{
			"bufferView":1,
			"componentType":5126,
			"count":128,
			"type":"VEC3"
		},
		{
			"bufferView":2,
			"componentType":5126,
			"count":128,
			"type":"VEC2"
		},
		{
			"bufferView":3,
			"componentType":5123,
			"count":354,
			"type":"SCALAR"
		},
		{
			"bufferView":4,
			"componentType":5126,
			"count":8222,
			"max":[
				16.25025177001953,
				54.67607116699219,
				16.249433517456055
			],
			"min":[
				-16.247940063476562,
				0.8970916271209717,
				-16.248472213745117
			],
			"type":"VEC3"
		},
		{
			"bufferView":5,
			"componentType":5126,
			"count":8222,
			"type":"VEC3"
		},
		{
			"bufferView":6,
			"componentType":5126,
			"count":8222,
			"type":"VEC2"
		},
		{
			"bufferView":7,
			"componentType":5123,
			"count":13794,
			"type":"SCALAR"
		},
		{
			"bufferView":8,
			"componentType":5126,
			"count":11780,
			"max":[
				16.703018188476562,
				55.4362678527832,
				16.702199935913086
			],
			"min":[
				-16.700706481933594,
				-2.384185791015625e-07,
				-16.70123863220215
			],
			"type":"VEC3"
		},
		{
			"bufferView":9,
			"componentType":5126,
			"count":11780,
			"type":"VEC3"
		},
		{
			"bufferView":10,
			"componentType":5126,
			"count":11780,
			"type":"VEC2"
		},
		{
			"bufferView":11,
			"componentType":5123,
			"count":23364,
			"type":"SCALAR"
		},
		{
			"bufferView":12,
			"componentType":5126,
			"count":8626,
			"max":[
				16.224489212036133,
				27.764307022094727,
				16.229217529296875
			],
			"min":[
				-16.218473434448242,
				-16.857297897338867,
				-16.213459014892578
			],
			"type":"VEC3"
		},
		{
			"bufferView":13,
			"componentType":5126,
			"count":8626,
			"type":"VEC3"
		},
		{
			"bufferView":14,
			"componentType":5126,
			"count":8626,
			"type":"VEC2"
		},
		{
			"bufferView":15,
			"componentType":5123,
			"count":13632,
			"type":"SCALAR"
		}
	],
	"bufferViews":[
		{
			"buffer":0,
			"byteLength":1536,
			"byteOffset":0,
			"target":34962
		},
		{
			"buffer":0,
			"byteLength":1536,
			"byteOffset":1536,
			"target":34962
		},
		{
			"buffer":0,
			"byteLength":1024,
			"byteOffset":3072,
			"target":34962
		},
		{
			"buffer":0,
			"byteLength":708,
			"byteOffset":4096,
			"target":34963
		},
		{
			"buffer":0,
			"byteLength":98664,
			"byteOffset":4804,
			"target":34962
		},
		{
			"buffer":0,
			"byteLength":98664,
			"byteOffset":103468,
			"target":34962
		},
		{
			"buffer":0,
			"byteLength":65776,
			"byteOffset":202132,
			"target":34962
		},
		{
			"buffer":0,
			"byteLength":27588,
			"byteOffset":267908,
			"target":34963
		},
		{
			"buffer":0,
			"byteLength":141360,
			"byteOffset":295496,
			"target":34962
		},
		{
			"buffer":0,
			"byteLength":141360,
			"byteOffset":436856,
			"target":34962
		},
		{
			"buffer":0,
			"byteLength":94240,
			"byteOffset":578216,
			"target":34962
		},
		{
			"buffer":0,
			"byteLength":46728,
			"byteOffset":672456,
			"target":34963
		},
		{
			"buffer":0,
			"byteLength":103512,
			"byteOffset":719184,
			"target":34962
		},
		{
			"buffer":0,
			"byteLength":103512,
			"byteOffset":822696,
			"target":34962
		},
		{
			"buffer":0,
			"byteLength":69008,
			"byteOffset":926208,
			"target":34962
		},
		{
			"buffer":0,
			"byteLength":27264,
			"byteOffset":995216,
			"target":34963
		}
	],
	"buffers":[
		{
			"byteLength":1022480,
			"uri":"fire_temple.bin"
		}
	]
}
