{
	"asset":{
		"generator":"Khronos glTF Blender I/O v4.5.47",
		"version":"2.0"
	},
	"scene":0,
	"scenes":[
		{
			"name":"Scene",
			"nodes":[
				0,
				1,
				2
			]
		}
	],
	"nodes":[
		{
			"mesh":0,
			"name":"wth"
		},
		{
			"mesh":1,
			"name":"wth.001"
		},
		{
			"mesh":2,
			"name":"wth.002"
		}
	],
	"meshes":[
		{
			"name":"Cube.009",
			"primitives":[
				{
					"attributes":{
						"POSITION":0,
						"NORMAL":1,
						"TEXCOORD_0":2
					},
					"indices":3
				}
			]
		},
		{
			"name":"Cube.012",
			"primitives":[
				{
					"attributes":{
						"POSITION":4,
						"NORMAL":5,
						"TEXCOORD_0":6
					},
					"indices":7
				}
			]
		},
		{
			"name":"Cube.013",
			"primitives":[
				{
					"attributes":{
						"POSITION":8,
						"NORMAL":9,
						"TEXCOORD_0":10
					},
					"indices":11
				}
			]
		}
	],
	"accessors":[
		{
			"bufferView":0,
			"componentType":5126,
			"count":3709,
			"max":[
				16.70301628112793,
				12.475610733032227,
				0.0003360318951308727
			],
			"min":[
				-16.700708389282227,
				0,
				-16.70123863220215
			],
			"type":"VEC3"
		},
		{
			"bufferView":1,
			"componentType":5126,
			"count":3709,
			"type":"VEC3"
		},
		{
			"bufferView":2,
			"componentType":5126,
			"count":3709,
			"type":"VEC2"
		},
		{
			"bufferView":3,
			"componentType":5123,
			"count":7740,
			"type":"SCALAR"
		},
		{
			"bufferView":4,
			"componentType":5126,
			"count":3052,
			"max":[
				16.2502498626709,
				12.052776336669922,
				0.00033589918166399
			],
			"min":[
				-16.247941970825195,
				0.897092342376709,
				-16.248472213745117
			],
			"type":"VEC3"
		},
		{
			"bufferView":5,
			"componentType":5126,
			"count":3052,
			"type":"VEC3"
		},
		{
			"bufferView":6,
			"componentType":5126,
			"count":3052,
			"type":"VEC2"
		},
		{
			"bufferView":7,
			"componentType":5123,
			"count":5232,
			"type":"SCALAR"
		},
		{
			"bufferView":8,
			"componentType":5126,
			"count":2678,
			"max":[
				16.35918617248535,
				11.793342590332031,
				0.0003358912654221058
			],
			"min":[
				-16.35689353942871,
				0.897092342376709,
				-16.35831069946289
			],
			"type":"VEC3"
		},
		{
			"bufferView":9,
			"componentType":5126,
			"count":2678,
			"type":"VEC3"
		},
		{
			"bufferView":10,
			"componentType":5126,
			"count":2678,
			"type":"VEC2"
		},
		{
			"bufferView":11,
			"componentType":5123,
			"count":3972,
			"type":"SCALAR"
		}
	],
	"bufferViews":[
		{
			"buffer":0,
			"byteLength":44508,
			"byteOffset":0,
			"target":34962
		},
		{
			"buffer":0,
			"byteLength":44508,
			"byteOffset":44508,
			"target":34962
		},
		{
			"buffer":0,
			"byteLength":29672,
			"byteOffset":89016,
			"target":34962
		},
		{
			"buffer":0,
			"byteLength":15480,
			"byteOffset":118688,
			"target":34963
		},
		{
			"buffer":0,
			"byteLength":36624,
			"byteOffset":134168,
			"target":34962
		},
		{
			"buffer":0,
			"byteLength":36624,
			"byteOffset":170792,
			"target":34962
		},
		{
			"buffer":0,
			"byteLength":24416,
			"byteOffset":207416,
			"target":34962
		},
		{
			"buffer":0,
			"byteLength":10464,
			"byteOffset":231832,
			"target":34963
		},
		{
			"buffer":0,
			"byteLength":32136,
			"byteOffset":242296,
			"target":34962
		},
		{
			"buffer":0,
			"byteLength":32136,
			"byteOffset":274432,
			"target":34962
		},
		{
			"buffer":0,
			"byteLength":21424,
			"byteOffset":306568,
			"target":34962
		},
		{
			"buffer":0,
			"byteLength":7944,
			"byteOffset":327992,
			"target":34963
		}
	],
	"buffers":[
		{
			"byteLength":335936,
			"uri":"water_temple_bottom_half.bin"
		}
	]
}
