{
	"asset":{
		"generator":"Khronos glTF Blender I/O v4.5.47",
		"version":"2.0"
	},
	"scene":0,
	"scenes":[
		{
			"name":"Scene",
			"nodes":[
				0
			]
		}
	],
	"nodes":[
		{
			"mesh":0,
			"name":"Cube.004"
		}
	],
	"meshes":[
		{
			"name":"Cube.009",
			"primitives":[
				{
					"attributes":{
						"POSITION":0,
						"NORMAL":1,
						"TEXCOORD_0":2
					},
					"indices":3
				}
			]
		}
	],
	"accessors":[
		{
			"bufferView":0,
			"componentType":5126,
			"count":18909,
			"max":[
				16.70301628112793,
				12.475610733032227,
				16.702199935913086
			],
			"min":[
				-16.700708389282227,
				0,
				-16.70123863220215
			],
			"type":"VEC3"
		},
		{
			"bufferView":1,
			"componentType":5126,
			"count":18909,
			"type":"VEC3"
		},
		{
			"bufferView":2,
			"componentType":5126,
			"count":18909,
			"type":"VEC2"
		},
		{
			"bufferView":3,
			"componentType":5123,
			"count":33888,
			"type":"SCALAR"
		}
	],
	"bufferViews":[
		{
			"buffer":0,
			"byteLength":226908,
			"byteOffset":0,
			"target":34962
		},
		{
			"buffer":0,
			"byteLength":226908,
			"byteOffset":226908,
			"target":34962
		},
		{
			"buffer":0,
			"byteLength":151272,
			"byteOffset":453816,
			"target":34962
		},
		{
			"buffer":0,
			"byteLength":67776,
			"byteOffset":605088,
			"target":34963
		}
	],
	"buffers":[
		{
			"byteLength":672864,
			"uri":"water_temple_bottom.bin"
		}
	]
}
