{
	"asset":{
		"generator":"Khronos glTF Blender I/O v4.5.47",
		"version":"2.0"
	},
	"scene":0,
	"scenes":[
		{
			"name":"Scene",
			"nodes":[
				0,
				1,
				2
			]
		}
	],
	"nodes":[
		{
			"mesh":0,
			"name":"Cube.002"
		},
		{
			"mesh":1,
			"name":"Cube.004"
		},
		{
			"mesh":2,
			"name":"Cube.005"
		}
	],
	"meshes":[
		{
			"name":"Cube.021",
			"primitives":[
				{
					"attributes":{
						"POSITION":0,
						"NORMAL":1,
						"TEXCOORD_0":2
					},
					"indices":3
				}
			]
		},
		{
			"name":"Cube.002",
			"primitives":[
				{
					"attributes":{
						"POSITION":4,
						"NORMAL":5,
						"TEXCOORD_0":6
					},
					"indices":7
				}
			]
		},
		{
			"name":"Cube.004",
			"primitives":[
				{
					"attributes":{
						"POSITION":8,
						"NORMAL":9,
						"TEXCOORD_0":10
					},
					"indices":11
				}
			]
		}
	],
	"accessors":[
		{
			"bufferView":0,
			"componentType":5126,
			"count":10741,
			"max":[
				16.35979461669922,
				54.07481002807617,
				16.358680725097656
			],
			"min":[
				-16.356891632080078,
				0.8970916271209717,
				-16.35831069946289
			],
			"type":"VEC3"
		},
		{
			"bufferView":1,
			"componentType":5126,
			"count":10741,
			"type":"VEC3"
		},
		{
			"bufferView":2,
			"componentType":5126,
			"count":10741,
			"type":"VEC2"
		},
		{
			"bufferView":3,
			"componentType":5123,
			"count":15690,
			"type":"SCALAR"
		},
		{
			"bufferView":4,
			"componentType":5126,
			"count":12056,
			"max":[
				16.25025177001953,
				54.90485382080078,
				16.249433517456055
			],
			"min":[
				-16.247940063476562,
				0.8970916271209717,
				-16.248472213745117
			],
			"type":"VEC3"
		},
		{
			"bufferView":5,
			"componentType":5126,
			"count":12056,
			"type":"VEC3"
		},
		{
			"bufferView":6,
			"componentType":5126,
			"count":12056,
			"type":"VEC2"
		},
		{
			"bufferView":7,
			"componentType":5123,
			"count":20136,
			"type":"SCALAR"
		},
		{
			"bufferView":8,
			"componentType":5126,
			"count":12954,
			"max":[
				16.703018188476562,
				55.8340950012207,
				16.702199935913086
			],
			"min":[
				-16.700706481933594,
				-2.384185791015625e-07,
				-16.70123863220215
			],
			"type":"VEC3"
		},
		{
			"bufferView":9,
			"componentType":5126,
			"count":12954,
			"type":"VEC3"
		},
		{
			"bufferView":10,
			"componentType":5126,
			"count":12954,
			"type":"VEC2"
		},
		{
			"bufferView":11,
			"componentType":5123,
			"count":26922,
			"type":"SCALAR"
		}
	],
	"bufferViews":[
		{
			"buffer":0,
			"byteLength":128892,
			"byteOffset":0,
			"target":34962
		},
		{
			"buffer":0,
			"byteLength":128892,
			"byteOffset":128892,
			"target":34962
		},
		{
			"buffer":0,
			"byteLength":85928,
			"byteOffset":257784,
			"target":34962
		},
		{
			"buffer":0,
			"byteLength":31380,
			"byteOffset":343712,
			"target":34963
		},
		{
			"buffer":0,
			"byteLength":144672,
			"byteOffset":375092,
			"target":34962
		},
		{
			"buffer":0,
			"byteLength":144672,
			"byteOffset":519764,
			"target":34962
		},
		{
			"buffer":0,
			"byteLength":96448,
			"byteOffset":664436,
			"target":34962
		},
		{
			"buffer":0,
			"byteLength":40272,
			"byteOffset":760884,
			"target":34963
		},
		{
			"buffer":0,
			"byteLength":155448,
			"byteOffset":801156,
			"target":34962
		},
		{
			"buffer":0,
			"byteLength":155448,
			"byteOffset":956604,
			"target":34962
		},
		{
			"buffer":0,
			"byteLength":103632,
			"byteOffset":1112052,
			"target":34962
		},
		{
			"buffer":0,
			"byteLength":53844,
			"byteOffset":1215684,
			"target":34963
		}
	],
	"buffers":[
		{
			"byteLength":1269528,
			"uri":"water_temple.bin"
		}
	]
}
