{
	"asset":{
		"generator":"Khronos glTF Blender I/O v4.5.47",
		"version":"2.0"
	},
	"scene":0,
	"scenes":[
		{
			"name":"Scene",
			"nodes":[
				0
			]
		}
	],
	"nodes":[
		{
			"mesh":0,
			"name":"rock_01_mmi3d.001",
			"scale":[
				50.93536376953125,
				33.51322555541992,
				75.05464172363281
			]
		}
	],
	"materials":[
		{
			"name":"Material_18",
			"pbrMetallicRoughness":{
				"metallicFactor":0
			}
		}
	],
	"meshes":[
		{
			"name":"Mesh_39.021",
			"primitives":[
				{
					"attributes":{
						"POSITION":0,
						"NORMAL":1,
						"TEXCOORD_0":2
					},
					"indices":3,
					"material":0
				},
				{
					"attributes":{
						"POSITION":4,
						"NORMAL":5,
						"TEXCOORD_0":6
					},
					"indices":7
				}
			]
		}
	],
	"accessors":[
		{
			"bufferView":0,
			"componentType":5126,
			"count":2284,
			"max":[
				0.4321264624595642,
				0.11638534814119339,
				0.10159851610660553
			],
			"min":[
				-0.10650096833705902,
				-0.22981175780296326,
				-0.19388824701309204
			],
			"type":"VEC3"
		},
		{
			"bufferView":1,
			"componentType":5126,
			"count":2284,
			"type":"VEC3"
		},
		{
			"bufferView":2,
			"componentType":5126,
			"count":2284,
			"type":"VEC2"
		},
		{
			"bufferView":3,
			"componentType":5123,
			"count":2448,
			"type":"SCALAR"
		},
		{
			"bufferView":4,
			"componentType":5126,
			"count":741,
			"max":[
				0.005475126206874847,
				0.024348903447389603,
				0.12445331364870071
			],
			"min":[
				-0.24605995416641235,
				-0.23300588130950928,
				-0.08099844306707382
			],
			"type":"VEC3"
		},
		{
			"bufferView":5,
			"componentType":5126,
			"count":741,
			"type":"VEC3"
		},
		{
			"bufferView":6,
			"componentType":5126,
			"count":741,
			"type":"VEC2"
		},
		{
			"bufferView":7,
			"componentType":5123,
			"count":741,
			"type":"SCALAR"
		}
	],
	"bufferViews":[
		{
			"buffer":0,
			"byteLength":27408,
			"byteOffset":0,
			"target":34962
		},
		{
			"buffer":0,
			"byteLength":27408,
			"byteOffset":27408,
			"target":34962
		},
		{
			"buffer":0,
			"byteLength":18272,
			"byteOffset":54816,
			"target":34962
		},
		{
			"buffer":0,
			"byteLength":4896,
			"byteOffset":73088,
			"target":34963
		},
		{
			"buffer":0,
			"byteLength":8892,
			"byteOffset":77984,
			"target":34962
		},
		{
			"buffer":0,
			"byteLength":8892,
			"byteOffset":86876,
			"target":34962
		},
		{
			"buffer":0,
			"byteLength":5928,
			"byteOffset":95768,
			"target":34962
		},
		{
			"buffer":0,
			"byteLength":1482,
			"byteOffset":101696,
			"target":34963
		}
	],
	"buffers":[
		{
			"byteLength":103180,
			"uri":"cascade_rocks.bin"
		}
	]
}
