{
	"asset":{
		"generator":"Khronos glTF Blender I/O v4.5.47",
		"version":"2.0"
	},
	"scene":0,
	"scenes":[
		{
			"name":"Scene",
			"nodes":[
				0
			]
		}
	],
	"nodes":[
		{
			"mesh":0,
			"name":"compost_bags_floorstacked",
			"rotation":[
				0.7071068286895752,
				0,
				0,
				0.7071068286895752
			]
		}
	],
	"meshes":[
		{
			"name":"compost_bags_floorstacked",
			"primitives":[
				{
					"attributes":{
						"POSITION":0,
						"NORMAL":1,
						"TEXCOORD_0":2
					},
					"indices":3
				}
			]
		}
	],
	"accessors":[
		{
			"bufferView":0,
			"componentType":5126,
			"count":308,
			"max":[
				0.4353890120983124,
				0.3321239948272705,
				0.0762069970369339
			],
			"min":[
				-0.4349519908428192,
				-0.31655600666999817,
				-0.10159199684858322
			],
			"type":"VEC3"
		},
		{
			"bufferView":1,
			"componentType":5126,
			"count":308,
			"type":"VEC3"
		},
		{
			"bufferView":2,
			"componentType":5126,
			"count":308,
			"type":"VEC2"
		},
		{
			"bufferView":3,
			"componentType":5123,
			"count":318,
			"type":"SCALAR"
		}
	],
	"bufferViews":[
		{
			"buffer":0,
			"byteLength":3696,
			"byteOffset":0,
			"target":34962
		},
		{
			"buffer":0,
			"byteLength":3696,
			"byteOffset":3696,
			"target":34962
		},
		{
			"buffer":0,
			"byteLength":2464,
			"byteOffset":7392,
			"target":34962
		},
		{
			"buffer":0,
			"byteLength":636,
			"byteOffset":9856,
			"target":34963
		}
	],
	"buffers":[
		{
			"byteLength":10492,
			"uri":"bag_01.bin"
		}
	]
}
