{
	"asset":{
		"generator":"Khronos glTF Blender I/O v4.5.47",
		"version":"2.0"
	},
	"scene":0,
	"scenes":[
		{
			"name":"Scene",
			"nodes":[
				0
			]
		}
	],
	"nodes":[
		{
			"mesh":0,
			"name":"platform_01"
		}
	],
	"meshes":[
		{
			"name":"Platform_02_Base",
			"primitives":[
				{
					"attributes":{
						"POSITION":0,
						"NORMAL":1,
						"TEXCOORD_0":2,
						"TEXCOORD_1":3,
						"TEXCOORD_2":4
					},
					"indices":5
				}
			]
		}
	],
	"accessors":[
		{
			"bufferView":0,
			"componentType":5126,
			"count":3931,
			"max":[
				4.9662299156188965,
				7.388519287109375,
				2.3952720165252686
			],
			"min":[
				-5.193194389343262,
				-0.013547897338867188,
				-2.1704180240631104
			],
			"type":"VEC3"
		},
		{
			"bufferView":1,
			"componentType":5126,
			"count":3931,
			"type":"VEC3"
		},
		{
			"bufferView":2,
			"componentType":5126,
			"count":3931,
			"type":"VEC2"
		},
		{
			"bufferView":3,
			"componentType":5126,
			"count":3931,
			"type":"VEC2"
		},
		{
			"bufferView":4,
			"componentType":5126,
			"count":3931,
			"type":"VEC2"
		},
		{
			"bufferView":5,
			"componentType":5123,
			"count":4647,
			"type":"SCALAR"
		}
	],
	"bufferViews":[
		{
			"buffer":0,
			"byteLength":47172,
			"byteOffset":0,
			"target":34962
		},
		{
			"buffer":0,
			"byteLength":47172,
			"byteOffset":47172,
			"target":34962
		},
		{
			"buffer":0,
			"byteLength":31448,
			"byteOffset":94344,
			"target":34962
		},
		{
			"buffer":0,
			"byteLength":31448,
			"byteOffset":125792,
			"target":34962
		},
		{
			"buffer":0,
			"byteLength":31448,
			"byteOffset":157240,
			"target":34962
		},
		{
			"buffer":0,
			"byteLength":9294,
			"byteOffset":188688,
			"target":34963
		}
	],
	"buffers":[
		{
			"byteLength":197984,
			"uri":"platform_01.bin"
		}
	]
}
