{
	"asset":{
		"generator":"Khronos glTF Blender I/O v4.5.47",
		"version":"2.0"
	},
	"scene":0,
	"scenes":[
		{
			"name":"Scene",
			"nodes":[
				0,
				1,
				2
			]
		}
	],
	"nodes":[
		{
			"mesh":0,
			"name":"Platform_02_Base",
			"rotation":[
				0,
				-0.7116955518722534,
				0,
				0.7024880647659302
			],
			"scale":[
				0.8999999761581421,
				0.8999999761581421,
				0.8999999761581421
			],
			"translation":[
				0.02266620844602585,
				5.139683246612549,
				0.021127820014953613
			]
		},
		{
			"mesh":1,
			"name":"Platform_02_Fence_02",
			"rotation":[
				0,
				0.0007234493386931717,
				0,
				1
			],
			"scale":[
				0.49483609199523926,
				0.393602579832077,
				0.39362409710884094
			],
			"translation":[
				-0.05787689611315727,
				6.963401794433594,
				0.017476677894592285
			]
		},
		{
			"mesh":2,
			"name":"Platform_02_Floor",
			"rotation":[
				0,
				-0.7116955518722534,
				0,
				0.7024880647659302
			],
			"scale":[
				0.8999999761581421,
				0.8999999761581421,
				0.8999999761581421
			],
			"translation":[
				0.4599650502204895,
				6.652842044830322,
				0.047902584075927734
			]
		}
	],
	"meshes":[
		{
			"name":"Platform_02_Base",
			"primitives":[
				{
					"attributes":{
						"POSITION":0,
						"NORMAL":1,
						"TEXCOORD_0":2,
						"TEXCOORD_1":3,
						"TEXCOORD_2":4
					},
					"indices":5
				}
			]
		},
		{
			"name":"Platform_02_Fence_02",
			"primitives":[
				{
					"attributes":{
						"POSITION":6,
						"NORMAL":7,
						"TEXCOORD_0":8,
						"TEXCOORD_1":9
					},
					"indices":10
				}
			]
		},
		{
			"name":"Platform_02_Floor",
			"primitives":[
				{
					"attributes":{
						"POSITION":11,
						"NORMAL":12,
						"TEXCOORD_0":13,
						"TEXCOORD_1":14,
						"TEXCOORD_2":15
					},
					"indices":16
				}
			]
		}
	],
	"accessors":[
		{
			"bufferView":0,
			"componentType":5126,
			"count":713,
			"max":[
				2.705232858657837,
				2.408374786376953,
				5.766085147857666
			],
			"min":[
				-2.4991209506988525,
				-5.725812911987305,
				-5.463461875915527
			],
			"type":"VEC3"
		},
		{
			"bufferView":1,
			"componentType":5126,
			"count":713,
			"type":"VEC3"
		},
		{
			"bufferView":2,
			"componentType":5126,
			"count":713,
			"type":"VEC2"
		},
		{
			"bufferView":3,
			"componentType":5126,
			"count":713,
			"type":"VEC2"
		},
		{
			"bufferView":4,
			"componentType":5126,
			"count":713,
			"type":"VEC2"
		},
		{
			"bufferView":5,
			"componentType":5123,
			"count":879,
			"type":"SCALAR"
		},
		{
			"bufferView":6,
			"componentType":5126,
			"count":2458,
			"max":[
				8.844472885131836,
				1.0800666809082031,
				4.985675811767578
			],
			"min":[
				-8.844472885131836,
				-2.349492073059082,
				-4.985675811767578
			],
			"type":"VEC3"
		},
		{
			"bufferView":7,
			"componentType":5126,
			"count":2458,
			"type":"VEC3"
		},
		{
			"bufferView":8,
			"componentType":5126,
			"count":2458,
			"type":"VEC2"
		},
		{
			"bufferView":9,
			"componentType":5126,
			"count":2458,
			"type":"VEC2"
		},
		{
			"bufferView":10,
			"componentType":5123,
			"count":2820,
			"type":"SCALAR"
		},
		{
			"bufferView":11,
			"componentType":5126,
			"count":748,
			"max":[
				2.072028875350952,
				0.07592082023620605,
				5.538146018981934
			],
			"min":[
				-2.140984058380127,
				-0.09265020489692688,
				-4.460161209106445
			],
			"type":"VEC3"
		},
		{
			"bufferView":12,
			"componentType":5126,
			"count":748,
			"type":"VEC3"
		},
		{
			"bufferView":13,
			"componentType":5126,
			"count":748,
			"type":"VEC2"
		},
		{
			"bufferView":14,
			"componentType":5126,
			"count":748,
			"type":"VEC2"
		},
		{
			"bufferView":15,
			"componentType":5126,
			"count":748,
			"type":"VEC2"
		},
		{
			"bufferView":16,
			"componentType":5123,
			"count":948,
			"type":"SCALAR"
		}
	],
	"bufferViews":[
		{
			"buffer":0,
			"byteLength":8556,
			"byteOffset":0,
			"target":34962
		},
		{
			"buffer":0,
			"byteLength":8556,
			"byteOffset":8556,
			"target":34962
		},
		{
			"buffer":0,
			"byteLength":5704,
			"byteOffset":17112,
			"target":34962
		},
		{
			"buffer":0,
			"byteLength":5704,
			"byteOffset":22816,
			"target":34962
		},
		{
			"buffer":0,
			"byteLength":5704,
			"byteOffset":28520,
			"target":34962
		},
		{
			"buffer":0,
			"byteLength":1758,
			"byteOffset":34224,
			"target":34963
		},
		{
			"buffer":0,
			"byteLength":29496,
			"byteOffset":35984,
			"target":34962
		},
		{
			"buffer":0,
			"byteLength":29496,
			"byteOffset":65480,
			"target":34962
		},
		{
			"buffer":0,
			"byteLength":19664,
			"byteOffset":94976,
			"target":34962
		},
		{
			"buffer":0,
			"byteLength":19664,
			"byteOffset":114640,
			"target":34962
		},
		{
			"buffer":0,
			"byteLength":5640,
			"byteOffset":134304,
			"target":34963
		},
		{
			"buffer":0,
			"byteLength":8976,
			"byteOffset":139944,
			"target":34962
		},
		{
			"buffer":0,
			"byteLength":8976,
			"byteOffset":148920,
			"target":34962
		},
		{
			"buffer":0,
			"byteLength":5984,
			"byteOffset":157896,
			"target":34962
		},
		{
			"buffer":0,
			"byteLength":5984,
			"byteOffset":163880,
			"target":34962
		},
		{
			"buffer":0,
			"byteLength":5984,
			"byteOffset":169864,
			"target":34962
		},
		{
			"buffer":0,
			"byteLength":1896,
			"byteOffset":175848,
			"target":34963
		}
	],
	"buffers":[
		{
			"byteLength":177744,
			"uri":"platform_01.bin"
		}
	]
}
