{
	"asset":{
		"generator":"Khronos glTF Blender I/O v4.5.47",
		"version":"2.0"
	},
	"scene":0,
	"scenes":[
		{
			"name":"Scene",
			"nodes":[
				0
			]
		}
	],
	"nodes":[
		{
			"mesh":0,
			"name":"stall"
		}
	],
	"meshes":[
		{
			"name":"Scene.003",
			"primitives":[
				{
					"attributes":{
						"POSITION":0,
						"NORMAL":1,
						"TEXCOORD_0":2
					},
					"indices":3
				}
			]
		}
	],
	"accessors":[
		{
			"bufferView":0,
			"componentType":5126,
			"count":837,
			"max":[
				0.9891668558120728,
				2.4363625049591064,
				0.9674941301345825
			],
			"min":[
				-0.9891668558120728,
				0.013937115669250488,
				-0.9977618455886841
			],
			"type":"VEC3"
		},
		{
			"bufferView":1,
			"componentType":5126,
			"count":837,
			"type":"VEC3"
		},
		{
			"bufferView":2,
			"componentType":5126,
			"count":837,
			"type":"VEC2"
		},
		{
			"bufferView":3,
			"componentType":5123,
			"count":1206,
			"type":"SCALAR"
		}
	],
	"bufferViews":[
		{
			"buffer":0,
			"byteLength":10044,
			"byteOffset":0,
			"target":34962
		},
		{
			"buffer":0,
			"byteLength":10044,
			"byteOffset":10044,
			"target":34962
		},
		{
			"buffer":0,
			"byteLength":6696,
			"byteOffset":20088,
			"target":34962
		},
		{
			"buffer":0,
			"byteLength":2412,
			"byteOffset":26784,
			"target":34963
		}
	],
	"buffers":[
		{
			"byteLength":29196,
			"uri":"stall.bin"
		}
	]
}
