{
	"asset":{
		"generator":"Khronos glTF Blender I/O v4.5.47",
		"version":"2.0"
	},
	"scene":0,
	"scenes":[
		{
			"name":"Scene",
			"nodes":[
				0,
				1
			]
		}
	],
	"nodes":[
		{
			"mesh":0,
			"name":"bench.006_fence_0",
			"scale":[
				0.6527162790298462,
				0.6527162790298462,
				0.6527162790298462
			]
		},
		{
			"mesh":1,
			"name":"bench.006_fence_0.001",
			"scale":[
				0.6527162790298462,
				0.6527162790298462,
				0.6527162790298462
			]
		}
	],
	"meshes":[
		{
			"name":"bench.006_fence_0",
			"primitives":[
				{
					"attributes":{
						"POSITION":0,
						"NORMAL":1,
						"TEXCOORD_0":2
					},
					"indices":3
				}
			]
		},
		{
			"name":"bench.006_fence_0.001",
			"primitives":[
				{
					"attributes":{
						"POSITION":4,
						"NORMAL":5,
						"TEXCOORD_0":6
					},
					"indices":7
				}
			]
		}
	],
	"accessors":[
		{
			"bufferView":0,
			"componentType":5126,
			"count":672,
			"max":[
				1.7420177459716797,
				2.510282039642334,
				1.0338281393051147
			],
			"min":[
				-1.7214372158050537,
				-0.008632898330688477,
				-1.0871692895889282
			],
			"type":"VEC3"
		},
		{
			"bufferView":1,
			"componentType":5126,
			"count":672,
			"type":"VEC3"
		},
		{
			"bufferView":2,
			"componentType":5126,
			"count":672,
			"type":"VEC2"
		},
		{
			"bufferView":3,
			"componentType":5123,
			"count":960,
			"type":"SCALAR"
		},
		{
			"bufferView":4,
			"componentType":5126,
			"count":224,
			"max":[
				1.8876017332077026,
				2.379845142364502,
				0.8501830101013184
			],
			"min":[
				-1.8915637731552124,
				0.9991791844367981,
				-0.5537319183349609
			],
			"type":"VEC3"
		},
		{
			"bufferView":5,
			"componentType":5126,
			"count":224,
			"type":"VEC3"
		},
		{
			"bufferView":6,
			"componentType":5126,
			"count":224,
			"type":"VEC2"
		},
		{
			"bufferView":7,
			"componentType":5123,
			"count":336,
			"type":"SCALAR"
		}
	],
	"bufferViews":[
		{
			"buffer":0,
			"byteLength":8064,
			"byteOffset":0,
			"target":34962
		},
		{
			"buffer":0,
			"byteLength":8064,
			"byteOffset":8064,
			"target":34962
		},
		{
			"buffer":0,
			"byteLength":5376,
			"byteOffset":16128,
			"target":34962
		},
		{
			"buffer":0,
			"byteLength":1920,
			"byteOffset":21504,
			"target":34963
		},
		{
			"buffer":0,
			"byteLength":2688,
			"byteOffset":23424,
			"target":34962
		},
		{
			"buffer":0,
			"byteLength":2688,
			"byteOffset":26112,
			"target":34962
		},
		{
			"buffer":0,
			"byteLength":1792,
			"byteOffset":28800,
			"target":34962
		},
		{
			"buffer":0,
			"byteLength":672,
			"byteOffset":30592,
			"target":34963
		}
	],
	"buffers":[
		{
			"byteLength":31264,
			"uri":"bench.bin"
		}
	]
}
