{
	"asset":{
		"generator":"Khronos glTF Blender I/O v4.5.47",
		"version":"2.0"
	},
	"scene":0,
	"scenes":[
		{
			"name":"Scene",
			"nodes":[
				0
			]
		}
	],
	"nodes":[
		{
			"mesh":0,
			"name":"FireWindTemple"
		}
	],
	"meshes":[
		{
			"name":"Cube.007",
			"primitives":[
				{
					"attributes":{
						"POSITION":0,
						"NORMAL":1,
						"TEXCOORD_0":2
					},
					"indices":3
				}
			]
		}
	],
	"accessors":[
		{
			"bufferView":0,
			"componentType":5126,
			"count":28758,
			"max":[
				16.703018188476562,
				55.4362678527832,
				16.702199935913086
			],
			"min":[
				-16.700706481933594,
				0,
				-16.70123863220215
			],
			"type":"VEC3"
		},
		{
			"bufferView":1,
			"componentType":5126,
			"count":28758,
			"type":"VEC3"
		},
		{
			"bufferView":2,
			"componentType":5126,
			"count":28758,
			"type":"VEC2"
		},
		{
			"bufferView":3,
			"componentType":5123,
			"count":51144,
			"type":"SCALAR"
		}
	],
	"bufferViews":[
		{
			"buffer":0,
			"byteLength":345096,
			"byteOffset":0,
			"target":34962
		},
		{
			"buffer":0,
			"byteLength":345096,
			"byteOffset":345096,
			"target":34962
		},
		{
			"buffer":0,
			"byteLength":230064,
			"byteOffset":690192,
			"target":34962
		},
		{
			"buffer":0,
			"byteLength":102288,
			"byteOffset":920256,
			"target":34963
		}
	],
	"buffers":[
		{
			"byteLength":1022544,
			"uri":"fire_wind_temple_m.bin"
		}
	]
}
