{
	"asset":{
		"generator":"Khronos glTF Blender I/O v4.5.47",
		"version":"2.0"
	},
	"scene":0,
	"scenes":[
		{
			"name":"Scene",
			"nodes":[
				0
			]
		}
	],
	"nodes":[
		{
			"mesh":0,
			"name":"table_01",
			"rotation":[
				0,
				-0.7071068286895752,
				0,
				0.7071068286895752
			],
			"scale":[
				0.5005396008491516,
				0.6802631616592407,
				0.809999942779541
			],
			"translation":[
				0,
				0.5234813094139099,
				0
			]
		}
	],
	"meshes":[
		{
			"name":"Table_02.003",
			"primitives":[
				{
					"attributes":{
						"POSITION":0,
						"NORMAL":1,
						"TEXCOORD_0":2,
						"TEXCOORD_1":3
					},
					"indices":4
				}
			]
		}
	],
	"accessors":[
		{
			"bufferView":0,
			"componentType":5126,
			"count":828,
			"max":[
				1.702885627746582,
				0.3232463002204895,
				0.5027797222137451
			],
			"min":[
				-1.5505820512771606,
				-0.7615063786506653,
				-0.553612232208252
			],
			"type":"VEC3"
		},
		{
			"bufferView":1,
			"componentType":5126,
			"count":828,
			"type":"VEC3"
		},
		{
			"bufferView":2,
			"componentType":5126,
			"count":828,
			"type":"VEC2"
		},
		{
			"bufferView":3,
			"componentType":5126,
			"count":828,
			"type":"VEC2"
		},
		{
			"bufferView":4,
			"componentType":5123,
			"count":858,
			"type":"SCALAR"
		}
	],
	"bufferViews":[
		{
			"buffer":0,
			"byteLength":9936,
			"byteOffset":0,
			"target":34962
		},
		{
			"buffer":0,
			"byteLength":9936,
			"byteOffset":9936,
			"target":34962
		},
		{
			"buffer":0,
			"byteLength":6624,
			"byteOffset":19872,
			"target":34962
		},
		{
			"buffer":0,
			"byteLength":6624,
			"byteOffset":26496,
			"target":34962
		},
		{
			"buffer":0,
			"byteLength":1716,
			"byteOffset":33120,
			"target":34963
		}
	],
	"buffers":[
		{
			"byteLength":34836,
			"uri":"table_01.bin"
		}
	]
}
