{
	"asset":{
		"generator":"Khronos glTF Blender I/O v4.5.47",
		"version":"2.0"
	},
	"scene":0,
	"scenes":[
		{
			"name":"Scene",
			"nodes":[
				0
			]
		}
	],
	"nodes":[
		{
			"mesh":0,
			"name":"Cube.005"
		}
	],
	"meshes":[
		{
			"name":"Cube.004",
			"primitives":[
				{
					"attributes":{
						"POSITION":0,
						"NORMAL":1,
						"TEXCOORD_0":2
					},
					"indices":3
				}
			]
		}
	],
	"accessors":[
		{
			"bufferView":0,
			"componentType":5126,
			"count":1912,
			"max":[
				7,
				19.691741943359375,
				1.2841962575912476
			],
			"min":[
				-7.023360252380371,
				-0.0546126589179039,
				-1.2841962575912476
			],
			"type":"VEC3"
		},
		{
			"bufferView":1,
			"componentType":5126,
			"count":1912,
			"type":"VEC3"
		},
		{
			"bufferView":2,
			"componentType":5126,
			"count":1912,
			"type":"VEC2"
		},
		{
			"bufferView":3,
			"componentType":5123,
			"count":3852,
			"type":"SCALAR"
		}
	],
	"bufferViews":[
		{
			"buffer":0,
			"byteLength":22944,
			"byteOffset":0,
			"target":34962
		},
		{
			"buffer":0,
			"byteLength":22944,
			"byteOffset":22944,
			"target":34962
		},
		{
			"buffer":0,
			"byteLength":15296,
			"byteOffset":45888,
			"target":34962
		},
		{
			"buffer":0,
			"byteLength":7704,
			"byteOffset":61184,
			"target":34963
		}
	],
	"buffers":[
		{
			"byteLength":68888,
			"uri":"wall_01.bin"
		}
	]
}
