{
	"asset":{
		"generator":"Khronos glTF Blender I/O v4.5.47",
		"version":"2.0"
	},
	"scene":0,
	"scenes":[
		{
			"name":"Scene",
			"nodes":[
				0
			]
		}
	],
	"nodes":[
		{
			"mesh":0,
			"name":"Cube_005",
			"rotation":[
				0,
				-0.28761133551597595,
				0,
				0.957747220993042
			],
			"translation":[
				-62.55084228515625,
				19.639217376708984,
				-33.26559829711914
			]
		}
	],
	"meshes":[
		{
			"name":"Mesh_42",
			"primitives":[
				{
					"attributes":{
						"POSITION":0,
						"NORMAL":1,
						"TEXCOORD_0":2
					},
					"indices":3
				}
			]
		}
	],
	"accessors":[
		{
			"bufferView":0,
			"componentType":5126,
			"count":34006,
			"max":[
				82.50498962402344,
				6.981412887573242,
				55.80363464355469
			],
			"min":[
				-40.73149490356445,
				-21.374183654785156,
				-57.16502380371094
			],
			"type":"VEC3"
		},
		{
			"bufferView":1,
			"componentType":5126,
			"count":34006,
			"type":"VEC3"
		},
		{
			"bufferView":2,
			"componentType":5126,
			"count":34006,
			"type":"VEC2"
		},
		{
			"bufferView":3,
			"componentType":5123,
			"count":62100,
			"type":"SCALAR"
		}
	],
	"bufferViews":[
		{
			"buffer":0,
			"byteLength":408072,
			"byteOffset":0,
			"target":34962
		},
		{
			"buffer":0,
			"byteLength":408072,
			"byteOffset":408072,
			"target":34962
		},
		{
			"buffer":0,
			"byteLength":272048,
			"byteOffset":816144,
			"target":34962
		},
		{
			"buffer":0,
			"byteLength":124200,
			"byteOffset":1088192,
			"target":34963
		}
	],
	"buffers":[
		{
			"byteLength":1212392,
			"uri":"wall_baked.bin"
		}
	]
}
