{
	"asset":{
		"generator":"Khronos glTF Blender I/O v4.5.47",
		"version":"2.0"
	},
	"scene":0,
	"scenes":[
		{
			"name":"Scene",
			"nodes":[
				0,
				1,
				2,
				3,
				4
			]
		}
	],
	"nodes":[
		{
			"mesh":0,
			"name":"_gltfNode_0.026",
			"rotation":[
				0.7071068286895752,
				0,
				0,
				0.7071068286895752
			]
		},
		{
			"mesh":1,
			"name":"_gltfNode_0.001",
			"rotation":[
				0.7071068286895752,
				0,
				0,
				0.7071068286895752
			]
		},
		{
			"mesh":2,
			"name":"_gltfNode_0.002",
			"rotation":[
				0.7071068286895752,
				0,
				0,
				0.7071068286895752
			]
		},
		{
			"mesh":3,
			"name":"_gltfNode_0.003",
			"rotation":[
				0.7071068286895752,
				0,
				0,
				0.7071068286895752
			]
		},
		{
			"mesh":4,
			"name":"_gltfNode_0.004",
			"rotation":[
				0.7071068286895752,
				0,
				0,
				0.7071068286895752
			]
		}
	],
	"meshes":[
		{
			"name":"_gltfNode_0.026",
			"primitives":[
				{
					"attributes":{
						"POSITION":0,
						"NORMAL":1,
						"TEXCOORD_0":2
					},
					"indices":3
				}
			]
		},
		{
			"name":"_gltfNode_0.001",
			"primitives":[
				{
					"attributes":{
						"POSITION":4,
						"NORMAL":5,
						"TEXCOORD_0":6
					},
					"indices":7
				}
			]
		},
		{
			"name":"_gltfNode_0.002",
			"primitives":[
				{
					"attributes":{
						"POSITION":8,
						"NORMAL":9,
						"TEXCOORD_0":10
					},
					"indices":11
				}
			]
		},
		{
			"name":"_gltfNode_0.003",
			"primitives":[
				{
					"attributes":{
						"POSITION":12,
						"NORMAL":13,
						"TEXCOORD_0":14
					},
					"indices":15
				}
			]
		},
		{
			"name":"_gltfNode_0.004",
			"primitives":[
				{
					"attributes":{
						"POSITION":16,
						"NORMAL":17,
						"TEXCOORD_0":18
					},
					"indices":19
				}
			]
		}
	],
	"accessors":[
		{
			"bufferView":0,
			"componentType":5126,
			"count":426,
			"max":[
				0.09435799717903137,
				-0.396369993686676,
				3.899999865097925e-05
			],
			"min":[
				-0.01559900026768446,
				-1.0730830430984497,
				-0.020090000703930855
			],
			"type":"VEC3"
		},
		{
			"bufferView":1,
			"componentType":5126,
			"count":426,
			"type":"VEC3"
		},
		{
			"bufferView":2,
			"componentType":5126,
			"count":426,
			"type":"VEC2"
		},
		{
			"bufferView":3,
			"componentType":5123,
			"count":426,
			"type":"SCALAR"
		},
		{
			"bufferView":4,
			"componentType":5126,
			"count":240,
			"max":[
				0.08331800252199173,
				0.02850000001490116,
				0.01372699998319149
			],
			"min":[
				-0.03476100042462349,
				-1.0777020454406738,
				-0.021114999428391457
			],
			"type":"VEC3"
		},
		{
			"bufferView":5,
			"componentType":5126,
			"count":240,
			"type":"VEC3"
		},
		{
			"bufferView":6,
			"componentType":5126,
			"count":240,
			"type":"VEC2"
		},
		{
			"bufferView":7,
			"componentType":5123,
			"count":240,
			"type":"SCALAR"
		},
		{
			"bufferView":8,
			"componentType":5126,
			"count":1358,
			"max":[
				0.08201300352811813,
				-0.244378000497818,
				0.04827899858355522
			],
			"min":[
				-0.03051000088453293,
				-0.2730650007724762,
				-0.028981000185012817
			],
			"type":"VEC3"
		},
		{
			"bufferView":9,
			"componentType":5126,
			"count":1358,
			"type":"VEC3"
		},
		{
			"bufferView":10,
			"componentType":5126,
			"count":1358,
			"type":"VEC2"
		},
		{
			"bufferView":11,
			"componentType":5123,
			"count":1893,
			"type":"SCALAR"
		},
		{
			"bufferView":12,
			"componentType":5126,
			"count":51,
			"max":[
				0.036906998604536057,
				-0.24962100386619568,
				0.018029000610113144
			],
			"min":[
				-0.018823999911546707,
				-0.2664799988269806,
				-0.028767000883817673
			],
			"type":"VEC3"
		},
		{
			"bufferView":13,
			"componentType":5126,
			"count":51,
			"type":"VEC3"
		},
		{
			"bufferView":14,
			"componentType":5126,
			"count":51,
			"type":"VEC2"
		},
		{
			"bufferView":15,
			"componentType":5123,
			"count":147,
			"type":"SCALAR"
		},
		{
			"bufferView":16,
			"componentType":5126,
			"count":1078,
			"max":[
				0.052237000316381454,
				-0.23352199792861938,
				0.020269999280571938
			],
			"min":[
				0.00686000008136034,
				-0.27896198630332947,
				-0.02586900070309639
			],
			"type":"VEC3"
		},
		{
			"bufferView":17,
			"componentType":5126,
			"count":1078,
			"type":"VEC3"
		},
		{
			"bufferView":18,
			"componentType":5126,
			"count":1078,
			"type":"VEC2"
		},
		{
			"bufferView":19,
			"componentType":5123,
			"count":1092,
			"type":"SCALAR"
		}
	],
	"bufferViews":[
		{
			"buffer":0,
			"byteLength":5112,
			"byteOffset":0,
			"target":34962
		},
		{
			"buffer":0,
			"byteLength":5112,
			"byteOffset":5112,
			"target":34962
		},
		{
			"buffer":0,
			"byteLength":3408,
			"byteOffset":10224,
			"target":34962
		},
		{
			"buffer":0,
			"byteLength":852,
			"byteOffset":13632,
			"target":34963
		},
		{
			"buffer":0,
			"byteLength":2880,
			"byteOffset":14484,
			"target":34962
		},
		{
			"buffer":0,
			"byteLength":2880,
			"byteOffset":17364,
			"target":34962
		},
		{
			"buffer":0,
			"byteLength":1920,
			"byteOffset":20244,
			"target":34962
		},
		{
			"buffer":0,
			"byteLength":480,
			"byteOffset":22164,
			"target":34963
		},
		{
			"buffer":0,
			"byteLength":16296,
			"byteOffset":22644,
			"target":34962
		},
		{
			"buffer":0,
			"byteLength":16296,
			"byteOffset":38940,
			"target":34962
		},
		{
			"buffer":0,
			"byteLength":10864,
			"byteOffset":55236,
			"target":34962
		},
		{
			"buffer":0,
			"byteLength":3786,
			"byteOffset":66100,
			"target":34963
		},
		{
			"buffer":0,
			"byteLength":612,
			"byteOffset":69888,
			"target":34962
		},
		{
			"buffer":0,
			"byteLength":612,
			"byteOffset":70500,
			"target":34962
		},
		{
			"buffer":0,
			"byteLength":408,
			"byteOffset":71112,
			"target":34962
		},
		{
			"buffer":0,
			"byteLength":294,
			"byteOffset":71520,
			"target":34963
		},
		{
			"buffer":0,
			"byteLength":12936,
			"byteOffset":71816,
			"target":34962
		},
		{
			"buffer":0,
			"byteLength":12936,
			"byteOffset":84752,
			"target":34962
		},
		{
			"buffer":0,
			"byteLength":8624,
			"byteOffset":97688,
			"target":34962
		},
		{
			"buffer":0,
			"byteLength":2184,
			"byteOffset":106312,
			"target":34963
		}
	],
	"buffers":[
		{
			"byteLength":108496,
			"uri":"fishing_rod.bin"
		}
	]
}
