{
	"asset":{
		"generator":"Khronos glTF Blender I/O v4.5.47",
		"version":"2.0"
	},
	"scene":0,
	"scenes":[
		{
			"name":"Scene",
			"nodes":[
				0
			]
		}
	],
	"nodes":[
		{
			"mesh":0,
			"name":"anthurium_botany_01_c",
			"rotation":[
				0.7071068286895752,
				0,
				0,
				0.7071068286895752
			]
		}
	],
	"meshes":[
		{
			"name":"anthurium_botany_01_c",
			"primitives":[
				{
					"attributes":{
						"POSITION":0,
						"NORMAL":1,
						"TEXCOORD_0":2
					},
					"indices":3
				}
			]
		}
	],
	"accessors":[
		{
			"bufferView":0,
			"componentType":5126,
			"count":660,
			"max":[
				0.1841209977865219,
				0.15512500703334808,
				0.001838000025600195
			],
			"min":[
				-0.10942500084638596,
				-0.16527800261974335,
				-0.17315900325775146
			],
			"type":"VEC3"
		},
		{
			"bufferView":1,
			"componentType":5126,
			"count":660,
			"type":"VEC3"
		},
		{
			"bufferView":2,
			"componentType":5126,
			"count":660,
			"type":"VEC2"
		},
		{
			"bufferView":3,
			"componentType":5123,
			"count":678,
			"type":"SCALAR"
		}
	],
	"bufferViews":[
		{
			"buffer":0,
			"byteLength":7920,
			"byteOffset":0,
			"target":34962
		},
		{
			"buffer":0,
			"byteLength":7920,
			"byteOffset":7920,
			"target":34962
		},
		{
			"buffer":0,
			"byteLength":5280,
			"byteOffset":15840,
			"target":34962
		},
		{
			"buffer":0,
			"byteLength":1356,
			"byteOffset":21120,
			"target":34963
		}
	],
	"buffers":[
		{
			"byteLength":22476,
			"uri":"fern_03.bin"
		}
	]
}
