{
	"asset":{
		"generator":"Khronos glTF Blender I/O v4.5.47",
		"version":"2.0"
	},
	"scene":0,
	"scenes":[
		{
			"name":"Scene",
			"nodes":[
				0,
				1,
				2
			]
		}
	],
	"nodes":[
		{
			"mesh":0,
			"name":"altar_01_baked_diamond",
			"translation":[
				3.73796938220039e-05,
				2.080029249191284,
				-2.391469206486363e-05
			]
		},
		{
			"mesh":1,
			"name":"altar_01_baked_base"
		},
		{
			"mesh":2,
			"name":"altar_01_baked_chains"
		}
	],
	"meshes":[
		{
			"name":"chain_altar_0.002",
			"primitives":[
				{
					"attributes":{
						"POSITION":0,
						"NORMAL":1,
						"TEXCOORD_0":2
					},
					"indices":3
				}
			]
		},
		{
			"name":"chain_altar_0.003",
			"primitives":[
				{
					"attributes":{
						"POSITION":4,
						"NORMAL":5,
						"TEXCOORD_0":6
					},
					"indices":7
				}
			]
		},
		{
			"name":"chain_altar_0.001",
			"primitives":[
				{
					"attributes":{
						"POSITION":8,
						"NORMAL":9,
						"TEXCOORD_0":10
					},
					"indices":11
				}
			]
		}
	],
	"accessors":[
		{
			"bufferView":0,
			"componentType":5126,
			"count":160,
			"max":[
				0.20171861350536346,
				0.886115312576294,
				0.23188818991184235
			],
			"min":[
				-0.20171859860420227,
				-0.8420529365539551,
				-0.2318403422832489
			],
			"type":"VEC3"
		},
		{
			"bufferView":1,
			"componentType":5126,
			"count":160,
			"type":"VEC3"
		},
		{
			"bufferView":2,
			"componentType":5126,
			"count":160,
			"type":"VEC2"
		},
		{
			"bufferView":3,
			"componentType":5123,
			"count":222,
			"type":"SCALAR"
		},
		{
			"bufferView":4,
			"componentType":5126,
			"count":1728,
			"max":[
				1.1342458724975586,
				1.1009217500686646,
				1.1342599391937256
			],
			"min":[
				-1.1342600584030151,
				-2.384185791015625e-07,
				-1.1342456340789795
			],
			"type":"VEC3"
		},
		{
			"bufferView":5,
			"componentType":5126,
			"count":1728,
			"type":"VEC3"
		},
		{
			"bufferView":6,
			"componentType":5126,
			"count":1728,
			"type":"VEC2"
		},
		{
			"bufferView":7,
			"componentType":5123,
			"count":3252,
			"type":"SCALAR"
		},
		{
			"bufferView":8,
			"componentType":5126,
			"count":3808,
			"max":[
				0.9081259369850159,
				1.6237990856170654,
				0.9300032258033752
			],
			"min":[
				-0.9364694952964783,
				1.0903514623641968,
				-0.9564257860183716
			],
			"type":"VEC3"
		},
		{
			"bufferView":9,
			"componentType":5126,
			"count":3808,
			"type":"VEC3"
		},
		{
			"bufferView":10,
			"componentType":5126,
			"count":3808,
			"type":"VEC2"
		},
		{
			"bufferView":11,
			"componentType":5123,
			"count":3816,
			"type":"SCALAR"
		}
	],
	"bufferViews":[
		{
			"buffer":0,
			"byteLength":1920,
			"byteOffset":0,
			"target":34962
		},
		{
			"buffer":0,
			"byteLength":1920,
			"byteOffset":1920,
			"target":34962
		},
		{
			"buffer":0,
			"byteLength":1280,
			"byteOffset":3840,
			"target":34962
		},
		{
			"buffer":0,
			"byteLength":444,
			"byteOffset":5120,
			"target":34963
		},
		{
			"buffer":0,
			"byteLength":20736,
			"byteOffset":5564,
			"target":34962
		},
		{
			"buffer":0,
			"byteLength":20736,
			"byteOffset":26300,
			"target":34962
		},
		{
			"buffer":0,
			"byteLength":13824,
			"byteOffset":47036,
			"target":34962
		},
		{
			"buffer":0,
			"byteLength":6504,
			"byteOffset":60860,
			"target":34963
		},
		{
			"buffer":0,
			"byteLength":45696,
			"byteOffset":67364,
			"target":34962
		},
		{
			"buffer":0,
			"byteLength":45696,
			"byteOffset":113060,
			"target":34962
		},
		{
			"buffer":0,
			"byteLength":30464,
			"byteOffset":158756,
			"target":34962
		},
		{
			"buffer":0,
			"byteLength":7632,
			"byteOffset":189220,
			"target":34963
		}
	],
	"buffers":[
		{
			"byteLength":196852,
			"uri":"altar_01.bin"
		}
	]
}
