{
	"asset":{
		"generator":"Khronos glTF Blender I/O v4.5.47",
		"version":"2.0"
	},
	"scene":0,
	"scenes":[
		{
			"name":"Scene",
			"nodes":[
				0,
				1,
				2,
				3
			]
		}
	],
	"nodes":[
		{
			"mesh":0,
			"name":"ArcBridge.118",
			"scale":[
				1.100000023841858,
				1.100000023841858,
				1.100000023841858
			],
			"translation":[
				-0.05465758591890335,
				1.0189692974090576,
				-0.015814948827028275
			]
		},
		{
			"mesh":1,
			"name":"ArcBridge.114",
			"scale":[
				1.100000023841858,
				1.100000023841858,
				1.100000023841858
			],
			"translation":[
				0.03387574106454849,
				1.5522716045379639,
				-0.18845607340335846
			]
		},
		{
			"mesh":2,
			"name":"ArcBridge.009",
			"scale":[
				1.100000023841858,
				1.100000023841858,
				1.100000023841858
			],
			"translation":[
				-0.006445605773478746,
				2.156989812850952,
				0.029263783246278763
			]
		},
		{
			"mesh":3,
			"name":"ArcBridge.003",
			"scale":[
				1.100000023841858,
				1.100000023841858,
				1.100000023841858
			],
			"translation":[
				0.11441881954669952,
				1.371785283088684,
				0.0571678951382637
			]
		}
	],
	"meshes":[
		{
			"name":"ArcBridge.118",
			"primitives":[
				{
					"attributes":{
						"POSITION":0,
						"NORMAL":1,
						"TEXCOORD_0":2,
						"TEXCOORD_1":3
					},
					"indices":4
				}
			]
		},
		{
			"name":"ArcBridge.114",
			"primitives":[
				{
					"attributes":{
						"POSITION":5,
						"NORMAL":6,
						"TEXCOORD_0":7,
						"TEXCOORD_1":8
					},
					"indices":9
				}
			]
		},
		{
			"name":"ArcBridge.009",
			"primitives":[
				{
					"attributes":{
						"POSITION":10,
						"NORMAL":11,
						"TEXCOORD_0":12,
						"TEXCOORD_1":13
					},
					"indices":14
				}
			]
		},
		{
			"name":"ArcBridge.003",
			"primitives":[
				{
					"attributes":{
						"POSITION":15,
						"NORMAL":16,
						"TEXCOORD_0":17,
						"TEXCOORD_1":18
					},
					"indices":19
				}
			]
		}
	],
	"accessors":[
		{
			"bufferView":0,
			"componentType":5126,
			"count":772,
			"max":[
				1.2014596462249756,
				0.5367602109909058,
				3.7100958824157715
			],
			"min":[
				-1.0661847591400146,
				-0.6627262234687805,
				-3.680914878845215
			],
			"type":"VEC3"
		},
		{
			"bufferView":1,
			"componentType":5126,
			"count":772,
			"type":"VEC3"
		},
		{
			"bufferView":2,
			"componentType":5126,
			"count":772,
			"type":"VEC2"
		},
		{
			"bufferView":3,
			"componentType":5126,
			"count":772,
			"type":"VEC2"
		},
		{
			"bufferView":4,
			"componentType":5123,
			"count":834,
			"type":"SCALAR"
		},
		{
			"bufferView":5,
			"componentType":5126,
			"count":2096,
			"max":[
				1.0828235149383545,
				0.4624631702899933,
				3.7775940895080566
			],
			"min":[
				-1.0656797885894775,
				-0.6967565417289734,
				-3.462047576904297
			],
			"type":"VEC3"
		},
		{
			"bufferView":6,
			"componentType":5126,
			"count":2096,
			"type":"VEC3"
		},
		{
			"bufferView":7,
			"componentType":5126,
			"count":2096,
			"type":"VEC2"
		},
		{
			"bufferView":8,
			"componentType":5126,
			"count":2096,
			"type":"VEC2"
		},
		{
			"bufferView":9,
			"componentType":5123,
			"count":2166,
			"type":"SCALAR"
		},
		{
			"bufferView":10,
			"componentType":5126,
			"count":2536,
			"max":[
				1.1153708696365356,
				0.7756352424621582,
				3.778491973876953
			],
			"min":[
				-1.089705467224121,
				-1.4252532720565796,
				-3.830148696899414
			],
			"type":"VEC3"
		},
		{
			"bufferView":11,
			"componentType":5126,
			"count":2536,
			"type":"VEC3"
		},
		{
			"bufferView":12,
			"componentType":5126,
			"count":2536,
			"type":"VEC2"
		},
		{
			"bufferView":13,
			"componentType":5126,
			"count":2536,
			"type":"VEC2"
		},
		{
			"bufferView":14,
			"componentType":5123,
			"count":2646,
			"type":"SCALAR"
		},
		{
			"bufferView":15,
			"componentType":5126,
			"count":3828,
			"max":[
				1.006654977798462,
				0.6216534972190857,
				3.3359804153442383
			],
			"min":[
				-1.1768542528152466,
				-0.8643547296524048,
				-3.419518232345581
			],
			"type":"VEC3"
		},
		{
			"bufferView":16,
			"componentType":5126,
			"count":3828,
			"type":"VEC3"
		},
		{
			"bufferView":17,
			"componentType":5126,
			"count":3828,
			"type":"VEC2"
		},
		{
			"bufferView":18,
			"componentType":5126,
			"count":3828,
			"type":"VEC2"
		},
		{
			"bufferView":19,
			"componentType":5123,
			"count":4074,
			"type":"SCALAR"
		}
	],
	"bufferViews":[
		{
			"buffer":0,
			"byteLength":9264,
			"byteOffset":0,
			"target":34962
		},
		{
			"buffer":0,
			"byteLength":9264,
			"byteOffset":9264,
			"target":34962
		},
		{
			"buffer":0,
			"byteLength":6176,
			"byteOffset":18528,
			"target":34962
		},
		{
			"buffer":0,
			"byteLength":6176,
			"byteOffset":24704,
			"target":34962
		},
		{
			"buffer":0,
			"byteLength":1668,
			"byteOffset":30880,
			"target":34963
		},
		{
			"buffer":0,
			"byteLength":25152,
			"byteOffset":32548,
			"target":34962
		},
		{
			"buffer":0,
			"byteLength":25152,
			"byteOffset":57700,
			"target":34962
		},
		{
			"buffer":0,
			"byteLength":16768,
			"byteOffset":82852,
			"target":34962
		},
		{
			"buffer":0,
			"byteLength":16768,
			"byteOffset":99620,
			"target":34962
		},
		{
			"buffer":0,
			"byteLength":4332,
			"byteOffset":116388,
			"target":34963
		},
		{
			"buffer":0,
			"byteLength":30432,
			"byteOffset":120720,
			"target":34962
		},
		{
			"buffer":0,
			"byteLength":30432,
			"byteOffset":151152,
			"target":34962
		},
		{
			"buffer":0,
			"byteLength":20288,
			"byteOffset":181584,
			"target":34962
		},
		{
			"buffer":0,
			"byteLength":20288,
			"byteOffset":201872,
			"target":34962
		},
		{
			"buffer":0,
			"byteLength":5292,
			"byteOffset":222160,
			"target":34963
		},
		{
			"buffer":0,
			"byteLength":45936,
			"byteOffset":227452,
			"target":34962
		},
		{
			"buffer":0,
			"byteLength":45936,
			"byteOffset":273388,
			"target":34962
		},
		{
			"buffer":0,
			"byteLength":30624,
			"byteOffset":319324,
			"target":34962
		},
		{
			"buffer":0,
			"byteLength":30624,
			"byteOffset":349948,
			"target":34962
		},
		{
			"buffer":0,
			"byteLength":8148,
			"byteOffset":380572,
			"target":34963
		}
	],
	"buffers":[
		{
			"byteLength":388720,
			"uri":"bridge_01.bin"
		}
	]
}
