{
	"asset":{
		"generator":"Khronos glTF Blender I/O v4.5.47",
		"version":"2.0"
	},
	"scene":0,
	"scenes":[
		{
			"name":"Scene",
			"nodes":[
				0
			]
		}
	],
	"nodes":[
		{
			"mesh":0,
			"name":"ArcBridge.114",
			"scale":[
				1.100000023841858,
				1.100000023841858,
				1.100000023841858
			],
			"translation":[
				0.0195126011967659,
				1.5933749675750732,
				0.017774149775505066
			]
		}
	],
	"meshes":[
		{
			"name":"ArcBridge.114",
			"primitives":[
				{
					"attributes":{
						"POSITION":0,
						"NORMAL":1,
						"TEXCOORD_0":2,
						"TEXCOORD_1":3
					},
					"indices":4
				}
			]
		}
	],
	"accessors":[
		{
			"bufferView":0,
			"componentType":5126,
			"count":9232,
			"max":[
				1.134032130241394,
				1.2880123853683472,
				3.7889370918273926
			],
			"min":[
				-1.1336122751235962,
				-1.184913158416748,
				-3.8197035789489746
			],
			"type":"VEC3"
		},
		{
			"bufferView":1,
			"componentType":5126,
			"count":9232,
			"type":"VEC3"
		},
		{
			"bufferView":2,
			"componentType":5126,
			"count":9232,
			"type":"VEC2"
		},
		{
			"bufferView":3,
			"componentType":5126,
			"count":9232,
			"type":"VEC2"
		},
		{
			"bufferView":4,
			"componentType":5123,
			"count":9720,
			"type":"SCALAR"
		}
	],
	"bufferViews":[
		{
			"buffer":0,
			"byteLength":110784,
			"byteOffset":0,
			"target":34962
		},
		{
			"buffer":0,
			"byteLength":110784,
			"byteOffset":110784,
			"target":34962
		},
		{
			"buffer":0,
			"byteLength":73856,
			"byteOffset":221568,
			"target":34962
		},
		{
			"buffer":0,
			"byteLength":73856,
			"byteOffset":295424,
			"target":34962
		},
		{
			"buffer":0,
			"byteLength":19440,
			"byteOffset":369280,
			"target":34963
		}
	],
	"buffers":[
		{
			"byteLength":388720,
			"uri":"bridge_01_m.bin"
		}
	]
}
