{
	"asset":{
		"generator":"Khronos glTF Blender I/O v4.5.47",
		"version":"2.0"
	},
	"scene":0,
	"scenes":[
		{
			"name":"Scene",
			"nodes":[
				0,
				1,
				2
			]
		}
	],
	"nodes":[
		{
			"mesh":0,
			"name":"BambooBridge.045",
			"translation":[
				0.007618650794029236,
				1.5438668727874756,
				1.0762548446655273
			]
		},
		{
			"mesh":1,
			"name":"BambooBridge.038",
			"translation":[
				-0.08234630525112152,
				1.5655455589294434,
				1.1176106929779053
			]
		},
		{
			"mesh":2,
			"name":"BambooBridge.034",
			"translation":[
				-0.09774456918239594,
				1.826758623123169,
				1.0545693635940552
			]
		}
	],
	"meshes":[
		{
			"name":"BambooBridge.045",
			"primitives":[
				{
					"attributes":{
						"POSITION":0,
						"NORMAL":1,
						"TEXCOORD_0":2,
						"TEXCOORD_1":3
					},
					"indices":4
				}
			]
		},
		{
			"name":"BambooBridge.038",
			"primitives":[
				{
					"attributes":{
						"POSITION":5,
						"NORMAL":6,
						"TEXCOORD_0":7,
						"TEXCOORD_1":8
					},
					"indices":9
				}
			]
		},
		{
			"name":"BambooBridge.034",
			"primitives":[
				{
					"attributes":{
						"POSITION":10,
						"NORMAL":11,
						"TEXCOORD_0":12,
						"TEXCOORD_1":13
					},
					"indices":14
				}
			]
		}
	],
	"accessors":[
		{
			"bufferView":0,
			"componentType":5126,
			"count":620,
			"max":[
				0.4596967101097107,
				0.08347080647945404,
				3.8441264629364014
			],
			"min":[
				-0.6123659610748291,
				-0.08716179430484772,
				-3.996046304702759
			],
			"type":"VEC3"
		},
		{
			"bufferView":1,
			"componentType":5126,
			"count":620,
			"type":"VEC3"
		},
		{
			"bufferView":2,
			"componentType":5126,
			"count":620,
			"type":"VEC2"
		},
		{
			"bufferView":3,
			"componentType":5126,
			"count":620,
			"type":"VEC2"
		},
		{
			"bufferView":4,
			"componentType":5123,
			"count":666,
			"type":"SCALAR"
		},
		{
			"bufferView":5,
			"componentType":5126,
			"count":5456,
			"max":[
				0.45621174573898315,
				0.19061632454395294,
				4.493644714355469
			],
			"min":[
				-0.4878140389919281,
				-0.34840479493141174,
				-4.422598361968994
			],
			"type":"VEC3"
		},
		{
			"bufferView":6,
			"componentType":5126,
			"count":5456,
			"type":"VEC3"
		},
		{
			"bufferView":7,
			"componentType":5126,
			"count":5456,
			"type":"VEC2"
		},
		{
			"bufferView":8,
			"componentType":5126,
			"count":5456,
			"type":"VEC2"
		},
		{
			"bufferView":9,
			"componentType":5123,
			"count":6702,
			"type":"SCALAR"
		},
		{
			"bufferView":10,
			"componentType":5126,
			"count":4348,
			"max":[
				0.60709547996521,
				1.1741914749145508,
				4.5953803062438965
			],
			"min":[
				-0.5778335332870483,
				-1.9010775089263916,
				-4.319438457489014
			],
			"type":"VEC3"
		},
		{
			"bufferView":11,
			"componentType":5126,
			"count":4348,
			"type":"VEC3"
		},
		{
			"bufferView":12,
			"componentType":5126,
			"count":4348,
			"type":"VEC2"
		},
		{
			"bufferView":13,
			"componentType":5126,
			"count":4348,
			"type":"VEC2"
		},
		{
			"bufferView":14,
			"componentType":5123,
			"count":4653,
			"type":"SCALAR"
		}
	],
	"bufferViews":[
		{
			"buffer":0,
			"byteLength":7440,
			"byteOffset":0,
			"target":34962
		},
		{
			"buffer":0,
			"byteLength":7440,
			"byteOffset":7440,
			"target":34962
		},
		{
			"buffer":0,
			"byteLength":4960,
			"byteOffset":14880,
			"target":34962
		},
		{
			"buffer":0,
			"byteLength":4960,
			"byteOffset":19840,
			"target":34962
		},
		{
			"buffer":0,
			"byteLength":1332,
			"byteOffset":24800,
			"target":34963
		},
		{
			"buffer":0,
			"byteLength":65472,
			"byteOffset":26132,
			"target":34962
		},
		{
			"buffer":0,
			"byteLength":65472,
			"byteOffset":91604,
			"target":34962
		},
		{
			"buffer":0,
			"byteLength":43648,
			"byteOffset":157076,
			"target":34962
		},
		{
			"buffer":0,
			"byteLength":43648,
			"byteOffset":200724,
			"target":34962
		},
		{
			"buffer":0,
			"byteLength":13404,
			"byteOffset":244372,
			"target":34963
		},
		{
			"buffer":0,
			"byteLength":52176,
			"byteOffset":257776,
			"target":34962
		},
		{
			"buffer":0,
			"byteLength":52176,
			"byteOffset":309952,
			"target":34962
		},
		{
			"buffer":0,
			"byteLength":34784,
			"byteOffset":362128,
			"target":34962
		},
		{
			"buffer":0,
			"byteLength":34784,
			"byteOffset":396912,
			"target":34962
		},
		{
			"buffer":0,
			"byteLength":9306,
			"byteOffset":431696,
			"target":34963
		}
	],
	"buffers":[
		{
			"byteLength":441004,
			"uri":"bridge_02.bin"
		}
	]
}
