{
	"asset":{
		"generator":"Khronos glTF Blender I/O v4.5.47",
		"version":"2.0"
	},
	"scene":0,
	"scenes":[
		{
			"name":"Scene",
			"nodes":[
				0,
				1
			]
		}
	],
	"nodes":[
		{
			"mesh":0,
			"name":"Shovel_01",
			"rotation":[
				0.7071068286895752,
				0,
				0,
				0.7071068286895752
			]
		},
		{
			"mesh":1,
			"name":"Shovel_01.001",
			"rotation":[
				0.7071068286895752,
				0,
				0,
				0.7071068286895752
			]
		}
	],
	"meshes":[
		{
			"name":"Shovel_01",
			"primitives":[
				{
					"attributes":{
						"POSITION":0,
						"NORMAL":1,
						"TEXCOORD_0":2
					},
					"indices":3
				}
			]
		},
		{
			"name":"Shovel_01.001",
			"primitives":[
				{
					"attributes":{
						"POSITION":4,
						"NORMAL":5,
						"TEXCOORD_0":6
					},
					"indices":7
				}
			]
		}
	],
	"accessors":[
		{
			"bufferView":0,
			"componentType":5126,
			"count":144,
			"max":[
				0.015915999189019203,
				0.7503370046615601,
				0.032722000032663345
			],
			"min":[
				-0.01622300036251545,
				-0.005266999825835228,
				-0.005905000027269125
			],
			"type":"VEC3"
		},
		{
			"bufferView":1,
			"componentType":5126,
			"count":144,
			"type":"VEC3"
		},
		{
			"bufferView":2,
			"componentType":5126,
			"count":144,
			"type":"VEC2"
		},
		{
			"bufferView":3,
			"componentType":5123,
			"count":168,
			"type":"SCALAR"
		},
		{
			"bufferView":4,
			"componentType":5126,
			"count":243,
			"max":[
				0.135453999042511,
				1.1472599506378174,
				0.03421799838542938
			],
			"min":[
				-0.135453999042511,
				0.7475200295448303,
				-0.025224000215530396
			],
			"type":"VEC3"
		},
		{
			"bufferView":5,
			"componentType":5126,
			"count":243,
			"type":"VEC3"
		},
		{
			"bufferView":6,
			"componentType":5126,
			"count":243,
			"type":"VEC2"
		},
		{
			"bufferView":7,
			"componentType":5123,
			"count":294,
			"type":"SCALAR"
		}
	],
	"bufferViews":[
		{
			"buffer":0,
			"byteLength":1728,
			"byteOffset":0,
			"target":34962
		},
		{
			"buffer":0,
			"byteLength":1728,
			"byteOffset":1728,
			"target":34962
		},
		{
			"buffer":0,
			"byteLength":1152,
			"byteOffset":3456,
			"target":34962
		},
		{
			"buffer":0,
			"byteLength":336,
			"byteOffset":4608,
			"target":34963
		},
		{
			"buffer":0,
			"byteLength":2916,
			"byteOffset":4944,
			"target":34962
		},
		{
			"buffer":0,
			"byteLength":2916,
			"byteOffset":7860,
			"target":34962
		},
		{
			"buffer":0,
			"byteLength":1944,
			"byteOffset":10776,
			"target":34962
		},
		{
			"buffer":0,
			"byteLength":588,
			"byteOffset":12720,
			"target":34963
		}
	],
	"buffers":[
		{
			"byteLength":13308,
			"uri":"shovel.bin"
		}
	]
}
