{
	"asset":{
		"generator":"Khronos glTF Blender I/O v4.5.47",
		"version":"2.0"
	},
	"scene":0,
	"scenes":[
		{
			"name":"Scene",
			"nodes":[
				0
			]
		}
	],
	"nodes":[
		{
			"mesh":0,
			"name":"teapot",
			"rotation":[
				0.7071068286895752,
				0,
				0,
				0.7071068286895752
			]
		}
	],
	"meshes":[
		{
			"name":"teapot",
			"primitives":[
				{
					"attributes":{
						"POSITION":0,
						"NORMAL":1,
						"TEXCOORD_0":2
					},
					"indices":3
				}
			]
		}
	],
	"accessors":[
		{
			"bufferView":0,
			"componentType":5126,
			"count":1262,
			"max":[
				0.0913740023970604,
				0.13464799523353577,
				-0.0010789999505504966
			],
			"min":[
				-0.09234800189733505,
				-0.15552400052547455,
				-0.16975900530815125
			],
			"type":"VEC3"
		},
		{
			"bufferView":1,
			"componentType":5126,
			"count":1262,
			"type":"VEC3"
		},
		{
			"bufferView":2,
			"componentType":5126,
			"count":1262,
			"type":"VEC2"
		},
		{
			"bufferView":3,
			"componentType":5123,
			"count":1272,
			"type":"SCALAR"
		}
	],
	"bufferViews":[
		{
			"buffer":0,
			"byteLength":15144,
			"byteOffset":0,
			"target":34962
		},
		{
			"buffer":0,
			"byteLength":15144,
			"byteOffset":15144,
			"target":34962
		},
		{
			"buffer":0,
			"byteLength":10096,
			"byteOffset":30288,
			"target":34962
		},
		{
			"buffer":0,
			"byteLength":2544,
			"byteOffset":40384,
			"target":34963
		}
	],
	"buffers":[
		{
			"byteLength":42928,
			"uri":"teapot.bin"
		}
	]
}
