{
	"asset":{
		"generator":"Khronos glTF Blender I/O v4.5.47",
		"version":"2.0"
	},
	"scene":0,
	"scenes":[
		{
			"name":"Scene",
			"nodes":[
				0,
				1,
				2,
				3
			]
		}
	],
	"nodes":[
		{
			"mesh":0,
			"name":"Flower.010_Base_Material_0"
		},
		{
			"mesh":1,
			"name":"Flower.010_Base_Material_0.001"
		},
		{
			"mesh":2,
			"name":"Flower.010_Base_Material_0.002"
		},
		{
			"mesh":3,
			"name":"Flower.010_Base_Material_0.003"
		}
	],
	"meshes":[
		{
			"name":"Flower.010_Base_Material_0",
			"primitives":[
				{
					"attributes":{
						"POSITION":0,
						"NORMAL":1,
						"TEXCOORD_0":2
					},
					"indices":3
				}
			]
		},
		{
			"name":"Flower.010_Base_Material_0.001",
			"primitives":[
				{
					"attributes":{
						"POSITION":4,
						"NORMAL":5,
						"TEXCOORD_0":6
					},
					"indices":7
				}
			]
		},
		{
			"name":"Flower.010_Base_Material_0.002",
			"primitives":[
				{
					"attributes":{
						"POSITION":8,
						"NORMAL":9,
						"TEXCOORD_0":10
					},
					"indices":11
				}
			]
		},
		{
			"name":"Flower.010_Base_Material_0.003",
			"primitives":[
				{
					"attributes":{
						"POSITION":12,
						"NORMAL":13,
						"TEXCOORD_0":14
					},
					"indices":15
				}
			]
		}
	],
	"accessors":[
		{
			"bufferView":0,
			"componentType":5126,
			"count":102,
			"max":[
				0.5872881412506104,
				0.7633101940155029,
				0.7490771412849426
			],
			"min":[
				-0.8882063031196594,
				-0.02093982696533203,
				-0.512478768825531
			],
			"type":"VEC3"
		},
		{
			"bufferView":1,
			"componentType":5126,
			"count":102,
			"type":"VEC3"
		},
		{
			"bufferView":2,
			"componentType":5126,
			"count":102,
			"type":"VEC2"
		},
		{
			"bufferView":3,
			"componentType":5123,
			"count":126,
			"type":"SCALAR"
		},
		{
			"bufferView":4,
			"componentType":5126,
			"count":259,
			"max":[
				0.776002049446106,
				2.426114320755005,
				1.010690689086914
			],
			"min":[
				-0.8427065014839172,
				1.0760681629180908,
				-0.2530086636543274
			],
			"type":"VEC3"
		},
		{
			"bufferView":5,
			"componentType":5126,
			"count":259,
			"type":"VEC3"
		},
		{
			"bufferView":6,
			"componentType":5126,
			"count":259,
			"type":"VEC2"
		},
		{
			"bufferView":7,
			"componentType":5123,
			"count":339,
			"type":"SCALAR"
		},
		{
			"bufferView":8,
			"componentType":5126,
			"count":144,
			"max":[
				0.1054774671792984,
				1.8406771421432495,
				0.4069620370864868
			],
			"min":[
				-0.4072081446647644,
				-0.0069724321365356445,
				-0.03858606517314911
			],
			"type":"VEC3"
		},
		{
			"bufferView":9,
			"componentType":5126,
			"count":144,
			"type":"VEC3"
		},
		{
			"bufferView":10,
			"componentType":5126,
			"count":144,
			"type":"VEC2"
		},
		{
			"bufferView":11,
			"componentType":5123,
			"count":216,
			"type":"SCALAR"
		},
		{
			"bufferView":12,
			"componentType":5126,
			"count":50,
			"max":[
				0.2026015818119049,
				1.9797838926315308,
				0.48819130659103394
			],
			"min":[
				-0.47058284282684326,
				1.1104135513305664,
				0.09593421220779419
			],
			"type":"VEC3"
		},
		{
			"bufferView":13,
			"componentType":5126,
			"count":50,
			"type":"VEC3"
		},
		{
			"bufferView":14,
			"componentType":5126,
			"count":50,
			"type":"VEC2"
		},
		{
			"bufferView":15,
			"componentType":5123,
			"count":66,
			"type":"SCALAR"
		}
	],
	"bufferViews":[
		{
			"buffer":0,
			"byteLength":1224,
			"byteOffset":0,
			"target":34962
		},
		{
			"buffer":0,
			"byteLength":1224,
			"byteOffset":1224,
			"target":34962
		},
		{
			"buffer":0,
			"byteLength":816,
			"byteOffset":2448,
			"target":34962
		},
		{
			"buffer":0,
			"byteLength":252,
			"byteOffset":3264,
			"target":34963
		},
		{
			"buffer":0,
			"byteLength":3108,
			"byteOffset":3516,
			"target":34962
		},
		{
			"buffer":0,
			"byteLength":3108,
			"byteOffset":6624,
			"target":34962
		},
		{
			"buffer":0,
			"byteLength":2072,
			"byteOffset":9732,
			"target":34962
		},
		{
			"buffer":0,
			"byteLength":678,
			"byteOffset":11804,
			"target":34963
		},
		{
			"buffer":0,
			"byteLength":1728,
			"byteOffset":12484,
			"target":34962
		},
		{
			"buffer":0,
			"byteLength":1728,
			"byteOffset":14212,
			"target":34962
		},
		{
			"buffer":0,
			"byteLength":1152,
			"byteOffset":15940,
			"target":34962
		},
		{
			"buffer":0,
			"byteLength":432,
			"byteOffset":17092,
			"target":34963
		},
		{
			"buffer":0,
			"byteLength":600,
			"byteOffset":17524,
			"target":34962
		},
		{
			"buffer":0,
			"byteLength":600,
			"byteOffset":18124,
			"target":34962
		},
		{
			"buffer":0,
			"byteLength":400,
			"byteOffset":18724,
			"target":34962
		},
		{
			"buffer":0,
			"byteLength":132,
			"byteOffset":19124,
			"target":34963
		}
	],
	"buffers":[
		{
			"byteLength":19256,
			"uri":"flower_01.bin"
		}
	]
}
