{
	"asset":{
		"generator":"Khronos glTF Blender I/O v4.5.47",
		"version":"2.0"
	},
	"scene":0,
	"scenes":[
		{
			"name":"Scene",
			"nodes":[
				0,
				1,
				2,
				3
			]
		}
	],
	"nodes":[
		{
			"mesh":0,
			"name":"Flower.024_Base_Material_0",
			"rotation":[
				-0.7071068286895752,
				0,
				0,
				0.7071068286895752
			],
			"scale":[
				5.96702766418457,
				5.96702766418457,
				5.967030048370361
			],
			"translation":[
				-0.05457218736410141,
				1.6904568672180176,
				0.09897524118423462
			]
		},
		{
			"mesh":1,
			"name":"Flower.024_Base_Material_0.001",
			"rotation":[
				-0.7071068286895752,
				0,
				0,
				0.7071068286895752
			],
			"scale":[
				5.96702766418457,
				5.96702766418457,
				5.967030048370361
			]
		},
		{
			"mesh":2,
			"name":"Flower.024_Base_Material_0.002",
			"rotation":[
				-0.7071068286895752,
				0,
				0,
				0.7071068286895752
			],
			"scale":[
				5.96702766418457,
				5.96702766418457,
				5.967030048370361
			],
			"translation":[
				-0.07889360189437866,
				2.111862897872925,
				0.09804970771074295
			]
		},
		{
			"mesh":3,
			"name":"Flower.024_Base_Material_0.003",
			"rotation":[
				-0.7071068286895752,
				0,
				0,
				0.7071068286895752
			],
			"scale":[
				5.96702766418457,
				5.96702766418457,
				5.967030048370361
			],
			"translation":[
				-0.06991089880466461,
				2.1448934078216553,
				0.09985984116792679
			]
		}
	],
	"meshes":[
		{
			"name":"Flower.024_Base_Material_0",
			"primitives":[
				{
					"attributes":{
						"POSITION":0,
						"NORMAL":1,
						"TEXCOORD_0":2
					},
					"indices":3
				}
			]
		},
		{
			"name":"Flower.024_Base_Material_0.001",
			"primitives":[
				{
					"attributes":{
						"POSITION":4,
						"NORMAL":5,
						"TEXCOORD_0":6
					},
					"indices":7
				}
			]
		},
		{
			"name":"Flower.024_Base_Material_0.002",
			"primitives":[
				{
					"attributes":{
						"POSITION":8,
						"NORMAL":9,
						"TEXCOORD_0":10
					},
					"indices":11
				}
			]
		},
		{
			"name":"Flower.024_Base_Material_0.003",
			"primitives":[
				{
					"attributes":{
						"POSITION":12,
						"NORMAL":13,
						"TEXCOORD_0":14
					},
					"indices":15
				}
			]
		}
	],
	"accessors":[
		{
			"bufferView":0,
			"componentType":5126,
			"count":254,
			"max":[
				0.08346723020076752,
				0.06720514595508575,
				0.1558685600757599
			],
			"min":[
				-0.1220782920718193,
				-0.09138354659080505,
				-0.2835887372493744
			],
			"type":"VEC3"
		},
		{
			"bufferView":1,
			"componentType":5126,
			"count":254,
			"type":"VEC3"
		},
		{
			"bufferView":2,
			"componentType":5126,
			"count":254,
			"type":"VEC2"
		},
		{
			"bufferView":3,
			"componentType":5123,
			"count":354,
			"type":"SCALAR"
		},
		{
			"bufferView":4,
			"componentType":5126,
			"count":84,
			"max":[
				0.24691900610923767,
				0.21927593648433685,
				0.26430338621139526
			],
			"min":[
				-0.27188700437545776,
				-0.17709900438785553,
				-0.014607399702072144
			],
			"type":"VEC3"
		},
		{
			"bufferView":5,
			"componentType":5126,
			"count":84,
			"type":"VEC3"
		},
		{
			"bufferView":6,
			"componentType":5126,
			"count":84,
			"type":"VEC2"
		},
		{
			"bufferView":7,
			"componentType":5123,
			"count":108,
			"type":"SCALAR"
		},
		{
			"bufferView":8,
			"componentType":5126,
			"count":458,
			"max":[
				0.18968233466148376,
				0.19446317851543427,
				0.1868504285812378
			],
			"min":[
				-0.18635299801826477,
				-0.14827430248260498,
				-0.14361004531383514
			],
			"type":"VEC3"
		},
		{
			"bufferView":9,
			"componentType":5126,
			"count":458,
			"type":"VEC3"
		},
		{
			"bufferView":10,
			"componentType":5126,
			"count":458,
			"type":"VEC2"
		},
		{
			"bufferView":11,
			"componentType":5123,
			"count":522,
			"type":"SCALAR"
		},
		{
			"bufferView":12,
			"componentType":5126,
			"count":432,
			"max":[
				0.1116359531879425,
				0.10433806478977203,
				0.10616091638803482
			],
			"min":[
				-0.14257138967514038,
				-0.11079263687133789,
				-0.09135567396879196
			],
			"type":"VEC3"
		},
		{
			"bufferView":13,
			"componentType":5126,
			"count":432,
			"type":"VEC3"
		},
		{
			"bufferView":14,
			"componentType":5126,
			"count":432,
			"type":"VEC2"
		},
		{
			"bufferView":15,
			"componentType":5123,
			"count":576,
			"type":"SCALAR"
		}
	],
	"bufferViews":[
		{
			"buffer":0,
			"byteLength":3048,
			"byteOffset":0,
			"target":34962
		},
		{
			"buffer":0,
			"byteLength":3048,
			"byteOffset":3048,
			"target":34962
		},
		{
			"buffer":0,
			"byteLength":2032,
			"byteOffset":6096,
			"target":34962
		},
		{
			"buffer":0,
			"byteLength":708,
			"byteOffset":8128,
			"target":34963
		},
		{
			"buffer":0,
			"byteLength":1008,
			"byteOffset":8836,
			"target":34962
		},
		{
			"buffer":0,
			"byteLength":1008,
			"byteOffset":9844,
			"target":34962
		},
		{
			"buffer":0,
			"byteLength":672,
			"byteOffset":10852,
			"target":34962
		},
		{
			"buffer":0,
			"byteLength":216,
			"byteOffset":11524,
			"target":34963
		},
		{
			"buffer":0,
			"byteLength":5496,
			"byteOffset":11740,
			"target":34962
		},
		{
			"buffer":0,
			"byteLength":5496,
			"byteOffset":17236,
			"target":34962
		},
		{
			"buffer":0,
			"byteLength":3664,
			"byteOffset":22732,
			"target":34962
		},
		{
			"buffer":0,
			"byteLength":1044,
			"byteOffset":26396,
			"target":34963
		},
		{
			"buffer":0,
			"byteLength":5184,
			"byteOffset":27440,
			"target":34962
		},
		{
			"buffer":0,
			"byteLength":5184,
			"byteOffset":32624,
			"target":34962
		},
		{
			"buffer":0,
			"byteLength":3456,
			"byteOffset":37808,
			"target":34962
		},
		{
			"buffer":0,
			"byteLength":1152,
			"byteOffset":41264,
			"target":34963
		}
	],
	"buffers":[
		{
			"byteLength":42416,
			"uri":"flower_03.bin"
		}
	]
}
