{
	"asset":{
		"generator":"Khronos glTF Blender I/O v4.5.47",
		"version":"2.0"
	},
	"scene":0,
	"scenes":[
		{
			"name":"Scene",
			"nodes":[
				0,
				1,
				2,
				3
			]
		}
	],
	"nodes":[
		{
			"mesh":0,
			"name":"Flower.009_Base_Material_0",
			"rotation":[
				-0.6636227369308472,
				-0.24414096772670746,
				-0.24414096772670746,
				0.6636227965354919
			],
			"scale":[
				0.38064253330230713,
				0.38064253330230713,
				0.38064301013946533
			]
		},
		{
			"mesh":1,
			"name":"Flower.009_Base_Material_0.001",
			"rotation":[
				-0.6636227369308472,
				-0.24414096772670746,
				-0.24414096772670746,
				0.6636227965354919
			],
			"scale":[
				0.38064253330230713,
				0.38064253330230713,
				0.38064301013946533
			],
			"translation":[
				0.08141609281301498,
				1.1771326065063477,
				0.06940818578004837
			]
		},
		{
			"mesh":2,
			"name":"Flower.009_Base_Material_0.002",
			"rotation":[
				-0.6636227369308472,
				-0.24414096772670746,
				-0.24414096772670746,
				0.6636227965354919
			],
			"scale":[
				0.38064253330230713,
				0.38064253330230713,
				0.38064301013946533
			],
			"translation":[
				0.06476972997188568,
				1.1086769104003906,
				0.07016724348068237
			]
		},
		{
			"mesh":3,
			"name":"Flower.009_Base_Material_0.003"
		}
	],
	"meshes":[
		{
			"name":"Flower.009_Base_Material_0",
			"primitives":[
				{
					"attributes":{
						"POSITION":0,
						"NORMAL":1,
						"TEXCOORD_0":2
					},
					"indices":3
				}
			]
		},
		{
			"name":"Flower.009_Base_Material_0.001",
			"primitives":[
				{
					"attributes":{
						"POSITION":4,
						"NORMAL":5,
						"TEXCOORD_0":6
					},
					"indices":7
				}
			]
		},
		{
			"name":"Flower.009_Base_Material_0.002",
			"primitives":[
				{
					"attributes":{
						"POSITION":8,
						"NORMAL":9,
						"TEXCOORD_0":10
					},
					"indices":11
				}
			]
		},
		{
			"name":"Flower.009_Base_Material_0.003",
			"primitives":[
				{
					"attributes":{
						"POSITION":12,
						"NORMAL":13,
						"TEXCOORD_0":14
					},
					"indices":15
				}
			]
		}
	],
	"accessors":[
		{
			"bufferView":0,
			"componentType":5126,
			"count":164,
			"max":[
				1.1269035339355469,
				0.2212727963924408,
				3.0560390949249268
			],
			"min":[
				-0.7330192923545837,
				-0.2107810080051422,
				0.21082967519760132
			],
			"type":"VEC3"
		},
		{
			"bufferView":1,
			"componentType":5126,
			"count":164,
			"type":"VEC3"
		},
		{
			"bufferView":2,
			"componentType":5126,
			"count":164,
			"type":"VEC2"
		},
		{
			"bufferView":3,
			"componentType":5123,
			"count":240,
			"type":"SCALAR"
		},
		{
			"bufferView":4,
			"componentType":5126,
			"count":540,
			"max":[
				2.8153798580169678,
				1.9294441938400269,
				1.6596485376358032
			],
			"min":[
				-2.4947781562805176,
				-2.014878749847412,
				-0.8608334064483643
			],
			"type":"VEC3"
		},
		{
			"bufferView":5,
			"componentType":5126,
			"count":540,
			"type":"VEC3"
		},
		{
			"bufferView":6,
			"componentType":5126,
			"count":540,
			"type":"VEC2"
		},
		{
			"bufferView":7,
			"componentType":5123,
			"count":606,
			"type":"SCALAR"
		},
		{
			"bufferView":8,
			"componentType":5126,
			"count":116,
			"max":[
				1.127356767654419,
				0.2629857659339905,
				0.30130791664123535
			],
			"min":[
				-1.0927814245224,
				-0.3372500538825989,
				-0.33962488174438477
			],
			"type":"VEC3"
		},
		{
			"bufferView":9,
			"componentType":5126,
			"count":116,
			"type":"VEC3"
		},
		{
			"bufferView":10,
			"componentType":5126,
			"count":116,
			"type":"VEC2"
		},
		{
			"bufferView":11,
			"componentType":5123,
			"count":168,
			"type":"SCALAR"
		},
		{
			"bufferView":12,
			"componentType":5126,
			"count":246,
			"max":[
				1.1814014911651611,
				0.44992294907569885,
				0.9870285391807556
			],
			"min":[
				-0.9734776020050049,
				-9.267582186112122e-07,
				-1.0641090869903564
			],
			"type":"VEC3"
		},
		{
			"bufferView":13,
			"componentType":5126,
			"count":246,
			"type":"VEC3"
		},
		{
			"bufferView":14,
			"componentType":5126,
			"count":246,
			"type":"VEC2"
		},
		{
			"bufferView":15,
			"componentType":5123,
			"count":282,
			"type":"SCALAR"
		}
	],
	"bufferViews":[
		{
			"buffer":0,
			"byteLength":1968,
			"byteOffset":0,
			"target":34962
		},
		{
			"buffer":0,
			"byteLength":1968,
			"byteOffset":1968,
			"target":34962
		},
		{
			"buffer":0,
			"byteLength":1312,
			"byteOffset":3936,
			"target":34962
		},
		{
			"buffer":0,
			"byteLength":480,
			"byteOffset":5248,
			"target":34963
		},
		{
			"buffer":0,
			"byteLength":6480,
			"byteOffset":5728,
			"target":34962
		},
		{
			"buffer":0,
			"byteLength":6480,
			"byteOffset":12208,
			"target":34962
		},
		{
			"buffer":0,
			"byteLength":4320,
			"byteOffset":18688,
			"target":34962
		},
		{
			"buffer":0,
			"byteLength":1212,
			"byteOffset":23008,
			"target":34963
		},
		{
			"buffer":0,
			"byteLength":1392,
			"byteOffset":24220,
			"target":34962
		},
		{
			"buffer":0,
			"byteLength":1392,
			"byteOffset":25612,
			"target":34962
		},
		{
			"buffer":0,
			"byteLength":928,
			"byteOffset":27004,
			"target":34962
		},
		{
			"buffer":0,
			"byteLength":336,
			"byteOffset":27932,
			"target":34963
		},
		{
			"buffer":0,
			"byteLength":2952,
			"byteOffset":28268,
			"target":34962
		},
		{
			"buffer":0,
			"byteLength":2952,
			"byteOffset":31220,
			"target":34962
		},
		{
			"buffer":0,
			"byteLength":1968,
			"byteOffset":34172,
			"target":34962
		},
		{
			"buffer":0,
			"byteLength":564,
			"byteOffset":36140,
			"target":34963
		}
	],
	"buffers":[
		{
			"byteLength":36704,
			"uri":"flower_02.bin"
		}
	]
}
