{
	"asset":{
		"generator":"Khronos glTF Blender I/O v4.5.47",
		"version":"2.0"
	},
	"scene":0,
	"scenes":[
		{
			"name":"Scene",
			"nodes":[
				0,
				1
			]
		}
	],
	"nodes":[
		{
			"mesh":0,
			"name":"1",
			"rotation":[
				0.7071068286895752,
				0,
				0,
				0.7071068286895752
			]
		},
		{
			"mesh":1,
			"name":"1.001",
			"rotation":[
				0.7071068286895752,
				0,
				0,
				0.7071068286895752
			]
		}
	],
	"meshes":[
		{
			"name":"1",
			"primitives":[
				{
					"attributes":{
						"POSITION":0,
						"NORMAL":1,
						"TEXCOORD_0":2
					},
					"indices":3
				}
			]
		},
		{
			"name":"1.001",
			"primitives":[
				{
					"attributes":{
						"POSITION":4,
						"NORMAL":5,
						"TEXCOORD_0":6
					},
					"indices":7
				}
			]
		}
	],
	"accessors":[
		{
			"bufferView":0,
			"componentType":5126,
			"count":98,
			"max":[
				0.02231599949300289,
				0.020944999530911446,
				-0.04587800055742264
			],
			"min":[
				-0.02166000008583069,
				-0.02130099944770336,
				-0.08080600202083588
			],
			"type":"VEC3"
		},
		{
			"bufferView":1,
			"componentType":5126,
			"count":98,
			"type":"VEC3"
		},
		{
			"bufferView":2,
			"componentType":5126,
			"count":98,
			"type":"VEC2"
		},
		{
			"bufferView":3,
			"componentType":5123,
			"count":114,
			"type":"SCALAR"
		},
		{
			"bufferView":4,
			"componentType":5126,
			"count":978,
			"max":[
				0.06537999957799911,
				0.06573899835348129,
				0.07585799694061279
			],
			"min":[
				-0.0658319965004921,
				-0.0654740035533905,
				-0.055355001240968704
			],
			"type":"VEC3"
		},
		{
			"bufferView":5,
			"componentType":5126,
			"count":978,
			"type":"VEC3"
		},
		{
			"bufferView":6,
			"componentType":5126,
			"count":978,
			"type":"VEC2"
		},
		{
			"bufferView":7,
			"componentType":5123,
			"count":978,
			"type":"SCALAR"
		}
	],
	"bufferViews":[
		{
			"buffer":0,
			"byteLength":1176,
			"byteOffset":0,
			"target":34962
		},
		{
			"buffer":0,
			"byteLength":1176,
			"byteOffset":1176,
			"target":34962
		},
		{
			"buffer":0,
			"byteLength":784,
			"byteOffset":2352,
			"target":34962
		},
		{
			"buffer":0,
			"byteLength":228,
			"byteOffset":3136,
			"target":34963
		},
		{
			"buffer":0,
			"byteLength":11736,
			"byteOffset":3364,
			"target":34962
		},
		{
			"buffer":0,
			"byteLength":11736,
			"byteOffset":15100,
			"target":34962
		},
		{
			"buffer":0,
			"byteLength":7824,
			"byteOffset":26836,
			"target":34962
		},
		{
			"buffer":0,
			"byteLength":1956,
			"byteOffset":34660,
			"target":34963
		}
	],
	"buffers":[
		{
			"byteLength":36616,
			"uri":"ornament_06.bin"
		}
	]
}
