{
	"asset":{
		"generator":"Khronos glTF Blender I/O v4.5.47",
		"version":"2.0"
	},
	"scene":0,
	"scenes":[
		{
			"name":"Scene",
			"nodes":[
				0,
				1
			]
		}
	],
	"nodes":[
		{
			"mesh":0,
			"name":"3",
			"rotation":[
				0.7071068286895752,
				0,
				0,
				0.7071068286895752
			]
		},
		{
			"mesh":1,
			"name":"3.001",
			"rotation":[
				0.7071068286895752,
				0,
				0,
				0.7071068286895752
			]
		}
	],
	"meshes":[
		{
			"name":"3",
			"primitives":[
				{
					"attributes":{
						"POSITION":0,
						"NORMAL":1,
						"TEXCOORD_0":2
					},
					"indices":3
				}
			]
		},
		{
			"name":"3.001",
			"primitives":[
				{
					"attributes":{
						"POSITION":4,
						"NORMAL":5,
						"TEXCOORD_0":6
					},
					"indices":7
				}
			]
		}
	],
	"accessors":[
		{
			"bufferView":0,
			"componentType":5126,
			"count":61,
			"max":[
				0.019003000110387802,
				0.022727999836206436,
				-0.05217500030994415
			],
			"min":[
				-0.012118999846279621,
				-0.01854100078344345,
				-0.08766999840736389
			],
			"type":"VEC3"
		},
		{
			"bufferView":1,
			"componentType":5126,
			"count":61,
			"type":"VEC3"
		},
		{
			"bufferView":2,
			"componentType":5126,
			"count":61,
			"type":"VEC2"
		},
		{
			"bufferView":3,
			"componentType":5123,
			"count":69,
			"type":"SCALAR"
		},
		{
			"bufferView":4,
			"componentType":5126,
			"count":557,
			"max":[
				0.067501001060009,
				0.0677340030670166,
				0.07746300101280212
			],
			"min":[
				-0.06823699921369553,
				-0.06817299872636795,
				-0.05519700050354004
			],
			"type":"VEC3"
		},
		{
			"bufferView":5,
			"componentType":5126,
			"count":557,
			"type":"VEC3"
		},
		{
			"bufferView":6,
			"componentType":5126,
			"count":557,
			"type":"VEC2"
		},
		{
			"bufferView":7,
			"componentType":5123,
			"count":714,
			"type":"SCALAR"
		}
	],
	"bufferViews":[
		{
			"buffer":0,
			"byteLength":732,
			"byteOffset":0,
			"target":34962
		},
		{
			"buffer":0,
			"byteLength":732,
			"byteOffset":732,
			"target":34962
		},
		{
			"buffer":0,
			"byteLength":488,
			"byteOffset":1464,
			"target":34962
		},
		{
			"buffer":0,
			"byteLength":138,
			"byteOffset":1952,
			"target":34963
		},
		{
			"buffer":0,
			"byteLength":6684,
			"byteOffset":2092,
			"target":34962
		},
		{
			"buffer":0,
			"byteLength":6684,
			"byteOffset":8776,
			"target":34962
		},
		{
			"buffer":0,
			"byteLength":4456,
			"byteOffset":15460,
			"target":34962
		},
		{
			"buffer":0,
			"byteLength":1428,
			"byteOffset":19916,
			"target":34963
		}
	],
	"buffers":[
		{
			"byteLength":21344,
			"uri":"ornament_05.bin"
		}
	]
}
