{
	"asset":{
		"generator":"Khronos glTF Blender I/O v4.5.47",
		"version":"2.0"
	},
	"scene":0,
	"scenes":[
		{
			"name":"Scene",
			"nodes":[
				0
			]
		}
	],
	"nodes":[
		{
			"mesh":0,
			"name":"Fire_Wind_House_01"
		}
	],
	"meshes":[
		{
			"name":"Cylinder.023",
			"primitives":[
				{
					"attributes":{
						"POSITION":0,
						"NORMAL":1,
						"TEXCOORD_0":2
					},
					"indices":3
				}
			]
		}
	],
	"accessors":[
		{
			"bufferView":0,
			"componentType":5126,
			"count":15184,
			"max":[
				4.751250743865967,
				13.386070251464844,
				2.648695945739746
			],
			"min":[
				-2.762430191040039,
				-0.002117633819580078,
				-2.8041324615478516
			],
			"type":"VEC3"
		},
		{
			"bufferView":1,
			"componentType":5126,
			"count":15184,
			"type":"VEC3"
		},
		{
			"bufferView":2,
			"componentType":5126,
			"count":15184,
			"type":"VEC2"
		},
		{
			"bufferView":3,
			"componentType":5123,
			"count":26982,
			"type":"SCALAR"
		}
	],
	"bufferViews":[
		{
			"buffer":0,
			"byteLength":182208,
			"byteOffset":0,
			"target":34962
		},
		{
			"buffer":0,
			"byteLength":182208,
			"byteOffset":182208,
			"target":34962
		},
		{
			"buffer":0,
			"byteLength":121472,
			"byteOffset":364416,
			"target":34962
		},
		{
			"buffer":0,
			"byteLength":53964,
			"byteOffset":485888,
			"target":34963
		}
	],
	"buffers":[
		{
			"byteLength":539852,
			"uri":"fire_wind_house.bin"
		}
	]
}
