{
	"asset":{
		"generator":"Khronos glTF Blender I/O v4.5.47",
		"version":"2.0"
	},
	"scene":0,
	"scenes":[
		{
			"name":"Scene",
			"nodes":[
				0,
				1,
				2,
				3,
				4,
				5,
				6,
				7,
				8,
				9
			]
		}
	],
	"nodes":[
		{
			"mesh":0,
			"name":"Cylinder.001",
			"rotation":[
				-0.5,
				-0.5,
				-0.5,
				0.5
			],
			"scale":[
				-1,
				-1,
				-1
			],
			"translation":[
				1.5210795402526855,
				7.272017478942871,
				-0.08158540725708008
			]
		},
		{
			"mesh":1,
			"name":"FireWindHouse1",
			"rotation":[
				0,
				-0.7071068286895752,
				0,
				0.7071067094802856
			]
		},
		{
			"mesh":2,
			"name":"Cylinder.004",
			"translation":[
				4.5905375480651855,
				7.278977870941162,
				-0.06794236600399017
			]
		},
		{
			"mesh":3,
			"name":"FireWindHouse1.001",
			"rotation":[
				0,
				-0.7071068286895752,
				0,
				0.7071067094802856
			]
		},
		{
			"mesh":4,
			"name":"FireWindHouse1.002",
			"rotation":[
				0,
				-0.7071068286895752,
				0,
				0.7071067094802856
			]
		},
		{
			"mesh":5,
			"name":"FireWindHouse1.004",
			"rotation":[
				0,
				-0.7071068286895752,
				0,
				0.7071067094802856
			]
		},
		{
			"mesh":6,
			"name":"FireWindHouse1.005",
			"rotation":[
				0,
				-0.7071068286895752,
				0,
				0.7071067094802856
			]
		},
		{
			"mesh":7,
			"name":"FireWindHouse1.006",
			"rotation":[
				0,
				-0.7071068286895752,
				0,
				0.7071067094802856
			]
		},
		{
			"mesh":8,
			"name":"Cylinder.005",
			"rotation":[
				-0.5,
				-0.5,
				-0.5,
				0.5
			],
			"scale":[
				-1,
				-1,
				-1
			],
			"translation":[
				1.6190929412841797,
				7.272017002105713,
				-0.0815872848033905
			]
		},
		{
			"mesh":9,
			"name":"Sphere",
			"scale":[
				1.665927767753601,
				1.4736112356185913,
				1.7662081718444824
			],
			"translation":[
				0,
				10.318068504333496,
				0
			]
		}
	],
	"meshes":[
		{
			"name":"Cylinder.022",
			"primitives":[
				{
					"attributes":{
						"POSITION":0,
						"NORMAL":1,
						"TEXCOORD_0":2
					},
					"indices":3
				}
			]
		},
		{
			"name":"Cylinder.018",
			"primitives":[
				{
					"attributes":{
						"POSITION":4,
						"NORMAL":5,
						"TEXCOORD_0":6
					},
					"indices":7
				}
			]
		},
		{
			"name":"Cylinder.025",
			"primitives":[
				{
					"attributes":{
						"POSITION":8,
						"NORMAL":9,
						"TEXCOORD_0":10
					},
					"indices":11
				}
			]
		},
		{
			"name":"Cylinder.019",
			"primitives":[
				{
					"attributes":{
						"POSITION":12,
						"NORMAL":13,
						"TEXCOORD_0":14
					},
					"indices":15
				}
			]
		},
		{
			"name":"Cylinder.023",
			"primitives":[
				{
					"attributes":{
						"POSITION":16,
						"NORMAL":17,
						"TEXCOORD_0":18
					},
					"indices":19
				}
			]
		},
		{
			"name":"Cylinder.026",
			"primitives":[
				{
					"attributes":{
						"POSITION":20,
						"NORMAL":21,
						"TEXCOORD_0":22
					},
					"indices":23
				}
			]
		},
		{
			"name":"Cylinder.027",
			"primitives":[
				{
					"attributes":{
						"POSITION":24,
						"NORMAL":25,
						"TEXCOORD_0":26
					},
					"indices":27
				}
			]
		},
		{
			"name":"Cylinder.028",
			"primitives":[
				{
					"attributes":{
						"POSITION":28,
						"NORMAL":29,
						"TEXCOORD_0":30
					},
					"indices":31
				}
			]
		},
		{
			"name":"Cylinder.029",
			"primitives":[
				{
					"attributes":{
						"POSITION":32,
						"NORMAL":33,
						"TEXCOORD_0":34
					},
					"indices":35
				}
			]
		},
		{
			"name":"Sphere",
			"primitives":[
				{
					"attributes":{
						"POSITION":36,
						"NORMAL":37,
						"TEXCOORD_0":38
					},
					"indices":39
				}
			]
		}
	],
	"accessors":[
		{
			"bufferView":0,
			"componentType":5126,
			"count":64,
			"max":[
				0.40858206152915955,
				0.12940146028995514,
				0.4085806906223297
			],
			"min":[
				-0.40858206152915955,
				-0.12940147519111633,
				-0.4085816442966461
			],
			"type":"VEC3"
		},
		{
			"bufferView":1,
			"componentType":5126,
			"count":64,
			"type":"VEC3"
		},
		{
			"bufferView":2,
			"componentType":5126,
			"count":64,
			"type":"VEC2"
		},
		{
			"bufferView":3,
			"componentType":5123,
			"count":162,
			"type":"SCALAR"
		},
		{
			"bufferView":4,
			"componentType":5126,
			"count":164,
			"max":[
				1.8520870208740234,
				5.135066032409668,
				2.2410004138946533
			],
			"min":[
				-2.2561540603637695,
				0.8822783827781677,
				-1.8475128412246704
			],
			"type":"VEC3"
		},
		{
			"bufferView":5,
			"componentType":5126,
			"count":164,
			"type":"VEC3"
		},
		{
			"bufferView":6,
			"componentType":5126,
			"count":164,
			"type":"VEC2"
		},
		{
			"bufferView":7,
			"componentType":5123,
			"count":360,
			"type":"SCALAR"
		},
		{
			"bufferView":8,
			"componentType":5126,
			"count":237,
			"max":[
				0.5101819038391113,
				1.3202576637268066,
				1.3202570676803589
			],
			"min":[
				-0.5101804733276367,
				-1.3202571868896484,
				-1.320257306098938
			],
			"type":"VEC3"
		},
		{
			"bufferView":9,
			"componentType":5126,
			"count":237,
			"type":"VEC3"
		},
		{
			"bufferView":10,
			"componentType":5126,
			"count":237,
			"type":"VEC2"
		},
		{
			"bufferView":11,
			"componentType":5123,
			"count":420,
			"type":"SCALAR"
		},
		{
			"bufferView":12,
			"componentType":5126,
			"count":481,
			"max":[
				2.0961852073669434,
				6.901102066040039,
				2.2858078479766846
			],
			"min":[
				-2.301433563232422,
				-0.002117753028869629,
				-3.4769725799560547
			],
			"type":"VEC3"
		},
		{
			"bufferView":13,
			"componentType":5126,
			"count":481,
			"type":"VEC3"
		},
		{
			"bufferView":14,
			"componentType":5126,
			"count":481,
			"type":"VEC2"
		},
		{
			"bufferView":15,
			"componentType":5123,
			"count":846,
			"type":"SCALAR"
		},
		{
			"bufferView":16,
			"componentType":5126,
			"count":9172,
			"max":[
				2.648695945739746,
				12.949454307556152,
				2.762430191040039
			],
			"min":[
				-2.8041324615478516,
				0,
				-3.524907112121582
			],
			"type":"VEC3"
		},
		{
			"bufferView":17,
			"componentType":5126,
			"count":9172,
			"type":"VEC3"
		},
		{
			"bufferView":18,
			"componentType":5126,
			"count":9172,
			"type":"VEC2"
		},
		{
			"bufferView":19,
			"componentType":5123,
			"count":17346,
			"type":"SCALAR"
		},
		{
			"bufferView":20,
			"componentType":5126,
			"count":20,
			"max":[
				2.0961852073669434,
				2.5000200271606445,
				0.6560554504394531
			],
			"min":[
				2.0961852073669434,
				0.26484882831573486,
				-0.6560555696487427
			],
			"type":"VEC3"
		},
		{
			"bufferView":21,
			"componentType":5126,
			"count":20,
			"type":"VEC3"
		},
		{
			"bufferView":22,
			"componentType":5126,
			"count":20,
			"type":"VEC2"
		},
		{
			"bufferView":23,
			"componentType":5123,
			"count":72,
			"type":"SCALAR"
		},
		{
			"bufferView":24,
			"componentType":5126,
			"count":646,
			"max":[
				0.23322314023971558,
				13.386070251464844,
				0.2526121735572815
			],
			"min":[
				-0.27200084924697876,
				12.949454307556152,
				-0.25261178612709045
			],
			"type":"VEC3"
		},
		{
			"bufferView":25,
			"componentType":5126,
			"count":646,
			"type":"VEC3"
		},
		{
			"bufferView":26,
			"componentType":5126,
			"count":646,
			"type":"VEC2"
		},
		{
			"bufferView":27,
			"componentType":5123,
			"count":1164,
			"type":"SCALAR"
		},
		{
			"bufferView":28,
			"componentType":5126,
			"count":2575,
			"max":[
				1.2823137044906616,
				7.326350688934326,
				1.5700117349624634
			],
			"min":[
				-1.5766019821166992,
				0.26484882831573486,
				-3.4673476219177246
			],
			"type":"VEC3"
		},
		{
			"bufferView":29,
			"componentType":5126,
			"count":2575,
			"type":"VEC3"
		},
		{
			"bufferView":30,
			"componentType":5126,
			"count":2575,
			"type":"VEC2"
		},
		{
			"bufferView":31,
			"componentType":5123,
			"count":4086,
			"type":"SCALAR"
		},
		{
			"bufferView":32,
			"componentType":5126,
			"count":40,
			"max":[
				0.2453274130821228,
				-0.03138809651136398,
				0.245329350233078
			],
			"min":[
				-0.24533116817474365,
				-3.132157802581787,
				-0.24532924592494965
			],
			"type":"VEC3"
		},
		{
			"bufferView":33,
			"componentType":5126,
			"count":40,
			"type":"VEC3"
		},
		{
			"bufferView":34,
			"componentType":5126,
			"count":40,
			"type":"VEC2"
		},
		{
			"bufferView":35,
			"componentType":5123,
			"count":66,
			"type":"SCALAR"
		},
		{
			"bufferView":36,
			"componentType":5126,
			"count":1984,
			"max":[
				0.9999997019767761,
				1,
				0.9999993443489075
			],
			"min":[
				-0.9999990463256836,
				-1,
				-1
			],
			"type":"VEC3"
		},
		{
			"bufferView":37,
			"componentType":5126,
			"count":1984,
			"type":"VEC3"
		},
		{
			"bufferView":38,
			"componentType":5126,
			"count":1984,
			"type":"VEC2"
		},
		{
			"bufferView":39,
			"componentType":5123,
			"count":2880,
			"type":"SCALAR"
		}
	],
	"bufferViews":[
		{
			"buffer":0,
			"byteLength":768,
			"byteOffset":0,
			"target":34962
		},
		{
			"buffer":0,
			"byteLength":768,
			"byteOffset":768,
			"target":34962
		},
		{
			"buffer":0,
			"byteLength":512,
			"byteOffset":1536,
			"target":34962
		},
		{
			"buffer":0,
			"byteLength":324,
			"byteOffset":2048,
			"target":34963
		},
		{
			"buffer":0,
			"byteLength":1968,
			"byteOffset":2372,
			"target":34962
		},
		{
			"buffer":0,
			"byteLength":1968,
			"byteOffset":4340,
			"target":34962
		},
		{
			"buffer":0,
			"byteLength":1312,
			"byteOffset":6308,
			"target":34962
		},
		{
			"buffer":0,
			"byteLength":720,
			"byteOffset":7620,
			"target":34963
		},
		{
			"buffer":0,
			"byteLength":2844,
			"byteOffset":8340,
			"target":34962
		},
		{
			"buffer":0,
			"byteLength":2844,
			"byteOffset":11184,
			"target":34962
		},
		{
			"buffer":0,
			"byteLength":1896,
			"byteOffset":14028,
			"target":34962
		},
		{
			"buffer":0,
			"byteLength":840,
			"byteOffset":15924,
			"target":34963
		},
		{
			"buffer":0,
			"byteLength":5772,
			"byteOffset":16764,
			"target":34962
		},
		{
			"buffer":0,
			"byteLength":5772,
			"byteOffset":22536,
			"target":34962
		},
		{
			"buffer":0,
			"byteLength":3848,
			"byteOffset":28308,
			"target":34962
		},
		{
			"buffer":0,
			"byteLength":1692,
			"byteOffset":32156,
			"target":34963
		},
		{
			"buffer":0,
			"byteLength":110064,
			"byteOffset":33848,
			"target":34962
		},
		{
			"buffer":0,
			"byteLength":110064,
			"byteOffset":143912,
			"target":34962
		},
		{
			"buffer":0,
			"byteLength":73376,
			"byteOffset":253976,
			"target":34962
		},
		{
			"buffer":0,
			"byteLength":34692,
			"byteOffset":327352,
			"target":34963
		},
		{
			"buffer":0,
			"byteLength":240,
			"byteOffset":362044,
			"target":34962
		},
		{
			"buffer":0,
			"byteLength":240,
			"byteOffset":362284,
			"target":34962
		},
		{
			"buffer":0,
			"byteLength":160,
			"byteOffset":362524,
			"target":34962
		},
		{
			"buffer":0,
			"byteLength":144,
			"byteOffset":362684,
			"target":34963
		},
		{
			"buffer":0,
			"byteLength":7752,
			"byteOffset":362828,
			"target":34962
		},
		{
			"buffer":0,
			"byteLength":7752,
			"byteOffset":370580,
			"target":34962
		},
		{
			"buffer":0,
			"byteLength":5168,
			"byteOffset":378332,
			"target":34962
		},
		{
			"buffer":0,
			"byteLength":2328,
			"byteOffset":383500,
			"target":34963
		},
		{
			"buffer":0,
			"byteLength":30900,
			"byteOffset":385828,
			"target":34962
		},
		{
			"buffer":0,
			"byteLength":30900,
			"byteOffset":416728,
			"target":34962
		},
		{
			"buffer":0,
			"byteLength":20600,
			"byteOffset":447628,
			"target":34962
		},
		{
			"buffer":0,
			"byteLength":8172,
			"byteOffset":468228,
			"target":34963
		},
		{
			"buffer":0,
			"byteLength":480,
			"byteOffset":476400,
			"target":34962
		},
		{
			"buffer":0,
			"byteLength":480,
			"byteOffset":476880,
			"target":34962
		},
		{
			"buffer":0,
			"byteLength":320,
			"byteOffset":477360,
			"target":34962
		},
		{
			"buffer":0,
			"byteLength":132,
			"byteOffset":477680,
			"target":34963
		},
		{
			"buffer":0,
			"byteLength":23808,
			"byteOffset":477812,
			"target":34962
		},
		{
			"buffer":0,
			"byteLength":23808,
			"byteOffset":501620,
			"target":34962
		},
		{
			"buffer":0,
			"byteLength":15872,
			"byteOffset":525428,
			"target":34962
		},
		{
			"buffer":0,
			"byteLength":5760,
			"byteOffset":541300,
			"target":34963
		}
	],
	"buffers":[
		{
			"byteLength":547060,
			"uri":"fire_wind_house.bin"
		}
	]
}
